{"asset":{"version":"2.0","generator":"Blockbench 5.0.7 glTF exporter"},"scenes":[{"nodes":[0,1],"name":"blockbench_export"}],"scene":0,"nodes":[{"rotation":[-0.021483501848810906,-0.003788102421231181,0.17360684107459004,0.9845733970407998],"translation":[-0.0026655070575908324,0.45182,0.003111597552805212],"name":"cube_outline","mesh":0},{"rotation":[-0.021483501848810906,-0.003788102421231181,0.17360684107459004,0.9845733970407998],"translation":[-0.005790507057590877,0.45807,-0.0000134024471947769],"name":"cube","mesh":1}],"bufferViews":[{"buffer":0,"byteOffset":0,"byteLength":6648,"target":34962,"byteStride":12},{"buffer":0,"byteOffset":6648,"byteLength":6648,"target":34962,"byteStride":12},{"buffer":0,"byteOffset":13296,"byteLength":4432,"target":34962,"byteStride":8},{"buffer":0,"byteOffset":17728,"byteLength":1656,"target":34963},{"buffer":0,"byteOffset":19384,"byteLength":6648,"target":34962,"byteStride":12},{"buffer":0,"byteOffset":26032,"byteLength":6648,"target":34962,"byteStride":12},{"buffer":0,"byteOffset":32680,"byteLength":4432,"target":34962,"byteStride":8},{"buffer":0,"byteOffset":37112,"byteLength":1656,"target":34963}],"buffers":[{"byteLength":38768,"uri":"data:application/octet-stream;base64,"}],"accessors":[{"bufferView":0,"componentType":5126,"count":554,"max":[0.12984874844551086,0.15433937311172485,0.12710687518119812],"min":[-0.0987706258893013,-0.23848749697208405,-0.18077437579631805],"type":"VEC3"},{"bufferView":1,"componentType":5126,"count":554,"max":[0.9916843175888062,0.9906670451164246,0.9999958872795105],"min":[-0.9938250780105591,-0.9416290521621704,-0.9994128346443176],"type":"VEC3"},{"bufferView":2,"componentType":5126,"count":554,"max":[0.5625,0.5453275442123413],"min":[0.0008774999878369272,0],"type":"VEC2"},{"bufferView":3,"componentType":5123,"count":828,"max":[553],"min":[0],"type":"SCALAR"},{"bufferView":4,"componentType":5126,"count":554,"max":[0.11734875291585922,0.14808937907218933,0.12241937220096588],"min":[-0.0923362523317337,-0.2410612553358078,-0.16671188175678253],"type":"VEC3"},{"bufferView":5,"componentType":5126,"count":554,"max":[0.9943047761917114,0.9293782114982605,0.9999878406524658],"min":[-0.9918104410171509,-0.9891815185546875,-0.9999846816062927],"type":"VEC3"},{"bufferView":6,"componentType":5126,"count":554,"max":[0.5234375,0.53125],"min":[0.0007843750063329935,0],"type":"VEC2"},{"bufferView":7,"componentType":5123,"count":828,"max":[553],"min":[0],"type":"SCALAR"}],"materials":[{"pbrMetallicRoughness":{"metallicFactor":0,"roughnessFactor":1,"baseColorTexture":{"index":0}},"alphaMode":"MASK","alphaCutoff":0.05,"doubleSided":true},{"pbrMetallicRoughness":{"metallicFactor":0,"roughnessFactor":1,"baseColorTexture":{"index":1}},"alphaMode":"MASK","alphaCutoff":0.05,"doubleSided":true}],"textures":[{"sampler":0,"source":0,"name":"texture"},{"sampler":1,"source":1,"name":"texture"}],"samplers":[{"magFilter":9728,"minFilter":9728,"wrapS":33071,"wrapT":33071},{"magFilter":9728,"minFilter":9728,"wrapS":33071,"wrapT":33071}],"images":[{"mimeType":"image/png","uri":"data:image/png;base64,"},{"mimeType":"image/png","uri":"data:image/png;base64,"}],"meshes":[{"primitives":[{"mode":4,"attributes":{"POSITION":0,"NORMAL":1,"TEXCOORD_0":2},"indices":3,"material":0}]},{"primitives":[{"mode":4,"attributes":{"POSITION":4,"NORMAL":5,"TEXCOORD_0":6},"indices":7,"material":1}]}]}