{"asset":{"version":"2.0","generator":"Blockbench 4.11.2 glTF exporter"},"scenes":[{"nodes":[1],"name":"blockbench_export"}],"scene":0,"nodes":[{"translation":[0,0.875,0],"name":"K1","mesh":0},{"children":[0]}],"bufferViews":[{"buffer":0,"byteOffset":0,"byteLength":2880,"target":34962,"byteStride":12},{"buffer":0,"byteOffset":2880,"byteLength":2880,"target":34962,"byteStride":12},{"buffer":0,"byteOffset":5760,"byteLength":1920,"target":34962,"byteStride":8},{"buffer":0,"byteOffset":7680,"byteLength":624,"target":34963}],"buffers":[{"byteLength":8304,"uri":"data:application/octet-stream;base64,"}],"accessors":[{"bufferView":0,"componentType":5126,"count":240,"max":[1.75,1.4375,1.6875],"min":[-1.75,-1,-1.8125],"type":"VEC3"},{"bufferView":1,"componentType":5126,"count":240,"max":[0.9876502752304077,0.9621039628982544,0.9876502752304077],"min":[-1,-0.9998277425765991,-1],"type":"VEC3"},{"bufferView":2,"componentType":5126,"count":240,"max":[1,1],"min":[0,0],"type":"VEC2"},{"bufferView":3,"componentType":5123,"count":312,"max":[239],"min":[0],"type":"SCALAR"}],"materials":[{"pbrMetallicRoughness":{"metallicFactor":0,"roughnessFactor":1,"baseColorTexture":{"index":0}},"alphaMode":"MASK","alphaCutoff":0.05,"doubleSided":true}],"textures":[{"sampler":0,"source":0,"name":"kust1.png"}],"samplers":[{"magFilter":9728,"minFilter":9728,"wrapS":33071,"wrapT":33071}],"images":[{"mimeType":"image/png","uri":"data:image/png;base64,"}],"meshes":[{"primitives":[{"mode":4,"attributes":{"POSITION":0,"NORMAL":1,"TEXCOORD_0":2},"indices":3,"material":0}]}]}