{"asset":{"version":"2.0","generator":"Blockbench 4.11.2 glTF exporter"},"scenes":[{"nodes":[1],"name":"blockbench_export"}],"scene":0,"nodes":[{"rotation":[0,-0.5555702330196022,0,0.8314696123025452],"translation":[0,0.8404411764705882,0],"name":"K2","mesh":0},{"children":[0]}],"bufferViews":[{"buffer":0,"byteOffset":0,"byteLength":5760,"target":34962,"byteStride":12},{"buffer":0,"byteOffset":5760,"byteLength":5760,"target":34962,"byteStride":12},{"buffer":0,"byteOffset":11520,"byteLength":3840,"target":34962,"byteStride":8},{"buffer":0,"byteOffset":15360,"byteLength":1248,"target":34963}],"buffers":[{"byteLength":16608,"uri":"data:application/octet-stream;base64,"}],"accessors":[{"bufferView":0,"componentType":5126,"count":480,"max":[2.193526268005371,1.4720587730407715,1.8616458177566528],"min":[-1.9529690742492676,-0.9654411673545837,-1.6672825813293457],"type":"VEC3"},{"bufferView":1,"componentType":5126,"count":480,"max":[0.9876502752304077,0.9621039628982544,0.9876502752304077],"min":[-1,-0.9998277425765991,-1],"type":"VEC3"},{"bufferView":2,"componentType":5126,"count":480,"max":[1,1],"min":[0,0],"type":"VEC2"},{"bufferView":3,"componentType":5123,"count":624,"max":[479],"min":[0],"type":"SCALAR"}],"materials":[{"pbrMetallicRoughness":{"metallicFactor":0,"roughnessFactor":1,"baseColorTexture":{"index":0}},"alphaMode":"MASK","alphaCutoff":0.05,"doubleSided":true}],"textures":[{"sampler":0,"source":0,"name":"kust1.png"}],"samplers":[{"magFilter":9728,"minFilter":9728,"wrapS":33071,"wrapT":33071}],"images":[{"mimeType":"image/png","uri":"data:image/png;base64,"}],"meshes":[{"primitives":[{"mode":4,"attributes":{"POSITION":0,"NORMAL":1,"TEXCOORD_0":2},"indices":3,"material":0}]}]}