{"asset":{"version":"2.0","generator":"Blockbench 4.11.2 glTF exporter"},"scenes":[{"nodes":[1],"name":"blockbench_export"}],"scene":0,"nodes":[{"rotation":[-0.35355339059327356,0.6123724356957955,0.3535533905932722,0.6123724356957945],"translation":[0,0.015625,0],"name":"cuboid","mesh":0},{"children":[0]}],"bufferViews":[{"buffer":0,"byteOffset":0,"byteLength":1152,"target":34962,"byteStride":12},{"buffer":0,"byteOffset":1152,"byteLength":1152,"target":34962,"byteStride":12},{"buffer":0,"byteOffset":2304,"byteLength":768,"target":34962,"byteStride":8},{"buffer":0,"byteOffset":3072,"byteLength":288,"target":34963}],"buffers":[{"byteLength":3360,"uri":"data:application/octet-stream;base64,"}],"accessors":[{"bufferView":0,"componentType":5126,"count":96,"max":[1.186145544052124,1.3448859453201294,1.3351589441299438],"min":[-1.186145544052124,-0.6158283948898315,-0.21875],"type":"VEC3"},{"bufferView":1,"componentType":5126,"count":96,"max":[0.8660253882408142,1,0.9805395007133484],"min":[-0.8660253882408142,-0.5,-6.34413185289139e-17],"type":"VEC3"},{"bufferView":2,"componentType":5126,"count":96,"max":[0.4375,0.8601406216621399],"min":[0,0],"type":"VEC2"},{"bufferView":3,"componentType":5123,"count":144,"max":[95],"min":[0],"type":"SCALAR"}],"materials":[{"pbrMetallicRoughness":{"metallicFactor":0,"roughnessFactor":1,"baseColorTexture":{"index":0}},"alphaMode":"MASK","alphaCutoff":0.05,"doubleSided":true}],"textures":[{"sampler":0,"source":0,"name":"texture"}],"samplers":[{"magFilter":9728,"minFilter":9728,"wrapS":33071,"wrapT":33071}],"images":[{"mimeType":"image/png","uri":"data:image/png;base64,"}],"meshes":[{"primitives":[{"mode":4,"attributes":{"POSITION":0,"NORMAL":1,"TEXCOORD_0":2},"indices":3,"material":0}]}]}