{"asset":{"version":"2.0","generator":"Blockbench 5.0.4 glTF exporter"},"scenes":[{"nodes":[0],"name":"blockbench_export"}],"scene":0,"nodes":[{"rotation":[0.5316310262343712,0.46622789700423517,-0.46622789700422745,0.5316310262343735],"translation":[-4.0245584642661925e-16,-0.0031250000000030143,0],"name":"semechko","mesh":0}],"bufferViews":[{"buffer":0,"byteOffset":0,"byteLength":1344,"target":34962,"byteStride":12},{"buffer":0,"byteOffset":1344,"byteLength":1344,"target":34962,"byteStride":12},{"buffer":0,"byteOffset":2688,"byteLength":896,"target":34962,"byteStride":8},{"buffer":0,"byteOffset":3584,"byteLength":288,"target":34963}],"buffers":[{"byteLength":3872,"uri":"data:application/octet-stream;base64,"}],"accessors":[{"bufferView":0,"componentType":5126,"count":112,"max":[0.08749999850988388,0.22814075648784637,0.04062499850988388],"min":[-0.08749999850988388,-0.12810923159122467,-0.05312500149011612],"type":"VEC3"},{"bufferView":1,"componentType":5126,"count":112,"max":[0.9888073801994324,0.46393054723739624,0.992317795753479],"min":[-0.9888073801994324,-0.9198263883590698,-0.992317795753479],"type":"VEC3"},{"bufferView":2,"componentType":5126,"count":112,"max":[0.8348952531814575,0.8291593790054321],"min":[0.06841562688350677,0.021160244941711426],"type":"VEC2"},{"bufferView":3,"componentType":5123,"count":144,"max":[111],"min":[0],"type":"SCALAR"}],"materials":[{"pbrMetallicRoughness":{"metallicFactor":0,"roughnessFactor":1,"baseColorTexture":{"index":0}},"alphaMode":"MASK","alphaCutoff":0.05,"doubleSided":true}],"textures":[{"sampler":0,"source":0,"name":"texture"}],"samplers":[{"magFilter":9728,"minFilter":9728,"wrapS":33071,"wrapT":33071}],"images":[{"mimeType":"image/png","uri":"data:image/png;base64,"}],"meshes":[{"primitives":[{"mode":4,"attributes":{"POSITION":0,"NORMAL":1,"TEXCOORD_0":2},"indices":3,"material":0}]}]}