{"asset":{"version":"2.0","generator":"Blockbench 5.0.7 glTF exporter"},"scenes":[{"nodes":[5],"name":"blockbench_export"}],"scene":0,"nodes":[{"translation":[0.0009187499999999999,-0.15691250000000068,-0.2165625],"name":"cuboid","mesh":0},{"translation":[-0.00277875,11.5430375,1.2708062500000001],"name":"vetryak","children":[0]},{"rotation":[-0.6427876096865393,0,0,0.766044443118978],"translation":[0,9.6875,1.71875],"name":"cuboid","mesh":1},{"translation":[0,0.008363124999999999,0.0028562500000000046],"name":"stvol","children":[1,2]},{"rotation":[-0.7071067811865475,0,0,0.7071067811865476],"translation":[0,-0.011826875,-0.04341250000000002],"name":"cuboid","mesh":2},{"rotation":[0,-0.2798290140309921,0,0.9600498543859287],"translation":[0,0.096136875,-0.335043125],"name":"all","children":[3,4]}],"bufferViews":[{"buffer":0,"byteOffset":0,"byteLength":3096,"target":34962,"byteStride":12},{"buffer":0,"byteOffset":3096,"byteLength":3096,"target":34962,"byteStride":12},{"buffer":0,"byteOffset":6192,"byteLength":2064,"target":34962,"byteStride":8},{"buffer":0,"byteOffset":8256,"byteLength":756,"target":34963},{"buffer":0,"byteOffset":9012,"byteLength":16032,"target":34962,"byteStride":12},{"buffer":0,"byteOffset":25044,"byteLength":16032,"target":34962,"byteStride":12},{"buffer":0,"byteOffset":41076,"byteLength":10688,"target":34962,"byteStride":8},{"buffer":0,"byteOffset":51764,"byteLength":4008,"target":34963},{"buffer":0,"byteOffset":55772,"byteLength":288,"target":34962,"byteStride":12},{"buffer":0,"byteOffset":56060,"byteLength":288,"target":34962,"byteStride":12},{"buffer":0,"byteOffset":56348,"byteLength":192,"target":34962,"byteStride":8},{"buffer":0,"byteOffset":56540,"byteLength":72,"target":34963},{"buffer":0,"byteOffset":56612,"byteLength":20},{"buffer":0,"byteOffset":56632,"byteLength":80},{"buffer":0,"byteOffset":56712,"byteLength":12},{"buffer":0,"byteOffset":56724,"byteLength":48}],"buffers":[{"byteLength":56772,"uri":"data:application/octet-stream;base64,"}],"accessors":[{"bufferView":0,"componentType":5126,"count":258,"max":[0.7409088015556335,0.9848999977111816,0.3149999976158142],"min":[-0.7247785925865173,-0.3079359531402588,0.09056250005960464],"type":"VEC3"},{"bufferView":1,"componentType":5126,"count":258,"max":[0.9817260503768921,0.953240156173706,1],"min":[-0.9811925888061523,-1,-1],"type":"VEC3"},{"bufferView":2,"componentType":5126,"count":258,"max":[0.39141470193862915,0.41154706478118896],"min":[0.00019326171604916453,0],"type":"VEC2"},{"bufferView":3,"componentType":5123,"count":378,"max":[257],"min":[0],"type":"SCALAR"},{"bufferView":4,"componentType":5126,"count":1336,"max":[2.1348862648010254,1.7781411409378052,3.382498264312744],"min":[-2.138606309890747,-1.4141119718551636,-9.875],"type":"VEC3"},{"bufferView":5,"componentType":5126,"count":1336,"max":[1,1,1],"min":[-1,-1,-1],"type":"VEC3"},{"bufferView":6,"componentType":5126,"count":1336,"max":[0.5478417873382568,0.51171875],"min":[0,0],"type":"VEC2"},{"bufferView":7,"componentType":5123,"count":2004,"max":[1335],"min":[0],"type":"SCALAR"},{"bufferView":8,"componentType":5126,"count":24,"max":[0.09140624850988388,0.12265624850988388,0.015625],"min":[-0.09140624850988388,-0.18515625596046448,-0.078125],"type":"VEC3"},{"bufferView":9,"componentType":5126,"count":24,"max":[1,1,1],"min":[-1,-1,-1],"type":"VEC3"},{"bufferView":10,"componentType":5126,"count":24,"max":[0.083984375,0.076171875],"min":[0.001953125,0.005859375],"type":"VEC2"},{"bufferView":11,"componentType":5123,"count":36,"max":[23],"min":[0],"type":"SCALAR"},{"bufferView":12,"componentType":5126,"count":5,"max":[2],"min":[0],"type":"SCALAR"},{"bufferView":13,"componentType":5126,"count":5,"max":[0,0,0.9673230648040771,1],"min":[0,0,-0.8549118638038635,-0.8714279532432556],"type":"VEC4"},{"bufferView":14,"componentType":5126,"count":3,"max":[2],"min":[0],"type":"SCALAR"},{"bufferView":15,"componentType":5126,"count":3,"max":[0.0007853906136006117,0,-0.0043633077293634415,0.9999904632568359],"min":[0,-0.000003426934654271463,-0.004363309126347303,0.9999901652336121],"type":"VEC4"}],"materials":[{"pbrMetallicRoughness":{"metallicFactor":0,"roughnessFactor":1,"baseColorTexture":{"index":0}},"alphaMode":"MASK","alphaCutoff":0.05,"doubleSided":true}],"textures":[{"sampler":0,"source":0,"name":"air_vet_2_texture.png"}],"samplers":[{"magFilter":9728,"minFilter":9728,"wrapS":33071,"wrapT":33071}],"images":[{"mimeType":"image/png","uri":"data:image/png;base64,"}],"meshes":[{"primitives":[{"mode":4,"attributes":{"POSITION":0,"NORMAL":1,"TEXCOORD_0":2},"indices":3,"material":0}]},{"primitives":[{"mode":4,"attributes":{"POSITION":4,"NORMAL":5,"TEXCOORD_0":6},"indices":7,"material":0}]},{"primitives":[{"mode":4,"attributes":{"POSITION":8,"NORMAL":9,"TEXCOORD_0":10},"indices":11,"material":0}]}],"animations":[{"name":"rolin'","samplers":[{"input":12,"output":13,"interpolation":"LINEAR"},{"input":14,"output":15,"interpolation":"LINEAR"}],"channels":[{"sampler":0,"target":{"node":1,"path":"rotation"}},{"sampler":1,"target":{"node":3,"path":"rotation"}}]}]}