{"asset":{"version":"2.0","generator":"Blockbench 5.0.7 glTF exporter"},"scenes":[{"nodes":[5],"name":"blockbench_export"}],"scene":0,"nodes":[{"rotation":[-0.7071067811865475,0,0,0.7071067811865476],"name":"cuboid","mesh":0},{"rotation":[-0.14240760488609794,-0.009143027772367932,-0.46139726576832557,0.8756420742833637],"translation":[0,8.4375,1.484375],"name":"cuboid","mesh":1},{"rotation":[-0.07698050545441136,0.07698050545441137,-0.7029039776384703,0.7029039776384705],"translation":[0,-0.006249999999999645,0],"name":"cuboid","mesh":2},{"translation":[-0.0007143749999999997,9.3075175,1.09375],"name":"vetryak","children":[2]},{"translation":[-0.000015000000000000256,0.014005625000000008,0.050712499999999994],"name":"stvol","children":[1,3]},{"translation":[-0.00468,0.08431,-0.221629375],"name":"all","children":[0,4]}],"bufferViews":[{"buffer":0,"byteOffset":0,"byteLength":288,"target":34962,"byteStride":12},{"buffer":0,"byteOffset":288,"byteLength":288,"target":34962,"byteStride":12},{"buffer":0,"byteOffset":576,"byteLength":192,"target":34962,"byteStride":8},{"buffer":0,"byteOffset":768,"byteLength":72,"target":34963},{"buffer":0,"byteOffset":840,"byteLength":13920,"target":34962,"byteStride":12},{"buffer":0,"byteOffset":14760,"byteLength":13920,"target":34962,"byteStride":12},{"buffer":0,"byteOffset":28680,"byteLength":9280,"target":34962,"byteStride":8},{"buffer":0,"byteOffset":37960,"byteLength":3480,"target":34963},{"buffer":0,"byteOffset":41440,"byteLength":3096,"target":34962,"byteStride":12},{"buffer":0,"byteOffset":44536,"byteLength":3096,"target":34962,"byteStride":12},{"buffer":0,"byteOffset":47632,"byteLength":2064,"target":34962,"byteStride":8},{"buffer":0,"byteOffset":49696,"byteLength":756,"target":34963},{"buffer":0,"byteOffset":50452,"byteLength":20},{"buffer":0,"byteOffset":50472,"byteLength":80},{"buffer":0,"byteOffset":50552,"byteLength":12},{"buffer":0,"byteOffset":50564,"byteLength":48}],"buffers":[{"byteLength":50612,"uri":"data:application/octet-stream;base64,"}],"accessors":[{"bufferView":0,"componentType":5126,"count":24,"max":[0.09140624850988388,0.12265624850988388,0.015625],"min":[-0.09140624850988388,-0.18515625596046448,-0.078125],"type":"VEC3"},{"bufferView":1,"componentType":5126,"count":24,"max":[1,1,1],"min":[-1,-1,-1],"type":"VEC3"},{"bufferView":2,"componentType":5126,"count":24,"max":[0.078125,0.08203125],"min":[0.0390625,0.01171875],"type":"VEC2"},{"bufferView":3,"componentType":5123,"count":36,"max":[23],"min":[0],"type":"SCALAR"},{"bufferView":4,"componentType":5126,"count":1160,"max":[6.626988887786865,1.8001071214675903,1.9807521104812622],"min":[-1.9293744564056396,-4.194672107696533,-3.637256145477295],"type":"VEC3"},{"bufferView":5,"componentType":5126,"count":1160,"max":[1,1,1],"min":[-1,-1,-1],"type":"VEC3"},{"bufferView":6,"componentType":5126,"count":1160,"max":[0.96484375,0.87109375],"min":[0,0],"type":"VEC2"},{"bufferView":7,"componentType":5123,"count":1740,"max":[1159],"min":[0],"type":"SCALAR"},{"bufferView":8,"componentType":5126,"count":258,"max":[0.36272674798965454,0.573424756526947,0.13598065078258514],"min":[-0.6633331179618835,-0.5605663657188416,-0.1431628316640854],"type":"VEC3"},{"bufferView":9,"componentType":5126,"count":258,"max":[1,0.9996326565742493,0.995414674282074],"min":[-0.9532400369644165,-0.96683269739151,-0.9911097884178162],"type":"VEC3"},{"bufferView":10,"componentType":5126,"count":258,"max":[0.6421264410018921,0.6583960056304932],"min":[0,0],"type":"VEC2"},{"bufferView":11,"componentType":5123,"count":378,"max":[257],"min":[0],"type":"SCALAR"},{"bufferView":12,"componentType":5126,"count":5,"max":[2],"min":[0],"type":"SCALAR"},{"bufferView":13,"componentType":5126,"count":5,"max":[0,0,0.9673230648040771,1],"min":[0,0,-0.8549118638038635,-0.8714279532432556],"type":"VEC4"},{"bufferView":14,"componentType":5126,"count":3,"max":[2],"min":[0],"type":"SCALAR"},{"bufferView":15,"componentType":5126,"count":3,"max":[0.0007853906136006117,0,-0.0043633077293634415,0.9999904632568359],"min":[0,-0.000003426934654271463,-0.004363309126347303,0.9999901652336121],"type":"VEC4"}],"materials":[{"pbrMetallicRoughness":{"metallicFactor":0,"roughnessFactor":1,"baseColorTexture":{"index":0}},"alphaMode":"MASK","alphaCutoff":0.05,"doubleSided":true}],"textures":[{"sampler":0,"source":0,"name":"air_vet_1_texture.png"}],"samplers":[{"magFilter":9728,"minFilter":9728,"wrapS":33071,"wrapT":33071}],"images":[{"mimeType":"image/png","uri":"data:image/png;base64,"}],"meshes":[{"primitives":[{"mode":4,"attributes":{"POSITION":0,"NORMAL":1,"TEXCOORD_0":2},"indices":3,"material":0}]},{"primitives":[{"mode":4,"attributes":{"POSITION":4,"NORMAL":5,"TEXCOORD_0":6},"indices":7,"material":0}]},{"primitives":[{"mode":4,"attributes":{"POSITION":8,"NORMAL":9,"TEXCOORD_0":10},"indices":11,"material":0}]}],"animations":[{"name":"rolin'","samplers":[{"input":12,"output":13,"interpolation":"LINEAR"},{"input":14,"output":15,"interpolation":"LINEAR"}],"channels":[{"sampler":0,"target":{"node":3,"path":"rotation"}},{"sampler":1,"target":{"node":4,"path":"rotation"}}]}]}