{"asset":{"version":"2.0","generator":"Blockbench 5.0.4 glTF exporter"},"scenes":[{"nodes":[0,1],"name":"blockbench_export"}],"scene":0,"nodes":[{"rotation":[-0.5459879653595546,0.2582797353879798,-0.7364588438499873,0.30465897538984266],"translation":[-0.027869504604745004,0.8579734135482548,0.07232861742610154],"name":"brevno 2","mesh":0},{"rotation":[-0.5459879653595546,0.2582797353879798,-0.7364588438499873,0.30465897538984266],"translation":[-0.058343355728537535,0.7743194565036392,1.7907472017288217],"name":"brevno1","mesh":1}],"bufferViews":[{"buffer":0,"byteOffset":0,"byteLength":2232,"target":34962,"byteStride":12},{"buffer":0,"byteOffset":2232,"byteLength":2232,"target":34962,"byteStride":12},{"buffer":0,"byteOffset":4464,"byteLength":1488,"target":34962,"byteStride":8},{"buffer":0,"byteOffset":5952,"byteLength":552,"target":34963},{"buffer":0,"byteOffset":6504,"byteLength":1848,"target":34962,"byteStride":12},{"buffer":0,"byteOffset":8352,"byteLength":1848,"target":34962,"byteStride":12},{"buffer":0,"byteOffset":10200,"byteLength":1232,"target":34962,"byteStride":8},{"buffer":0,"byteOffset":11432,"byteLength":456,"target":34963}],"buffers":[{"byteLength":11888,"uri":"data:application/octet-stream;base64,"}],"accessors":[{"bufferView":0,"componentType":5126,"count":186,"max":[0.8729673027992249,0.862047016620636,1.375018835067749],"min":[-0.7980355620384216,-0.5943644046783447,-1.1631289720535278],"type":"VEC3"},{"bufferView":1,"componentType":5126,"count":186,"max":[0.9636877775192261,0.9625377058982849,0.985023021697998],"min":[-0.9670178294181824,-0.9874553680419922,-0.910331130027771],"type":"VEC3"},{"bufferView":2,"componentType":5126,"count":186,"max":[0.71875,0.6916198134422302],"min":[0,0],"type":"VEC2"},{"bufferView":3,"componentType":5123,"count":276,"max":[185],"min":[0],"type":"SCALAR"},{"bufferView":4,"componentType":5126,"count":154,"max":[0.7278772592544556,0.7700610756874084,1.1553363800048828],"min":[-0.7321151494979858,-0.6653925776481628,-1.0462921857833862],"type":"VEC3"},{"bufferView":5,"componentType":5126,"count":154,"max":[0.9708408713340759,0.9657158255577087,0.9823362827301025],"min":[-0.9759346842765808,-0.9965543150901794,-0.35081279277801514],"type":"VEC3"},{"bufferView":6,"componentType":5126,"count":154,"max":[0.5209879875183105,0.5124810934066772],"min":[0,0],"type":"VEC2"},{"bufferView":7,"componentType":5123,"count":228,"max":[153],"min":[0],"type":"SCALAR"}],"materials":[{"pbrMetallicRoughness":{"metallicFactor":0,"roughnessFactor":1,"baseColorTexture":{"index":0}},"alphaMode":"MASK","alphaCutoff":0.05,"doubleSided":true}],"textures":[{"sampler":0,"source":0,"name":"texture"}],"samplers":[{"magFilter":9728,"minFilter":9728,"wrapS":33071,"wrapT":33071}],"images":[{"mimeType":"image/png","uri":"data:image/png;base64,"}],"meshes":[{"primitives":[{"mode":4,"attributes":{"POSITION":0,"NORMAL":1,"TEXCOORD_0":2},"indices":3,"material":0}]},{"primitives":[{"mode":4,"attributes":{"POSITION":4,"NORMAL":5,"TEXCOORD_0":6},"indices":7,"material":0}]}]}