{"asset":{"version":"2.0","generator":"Blockbench 5.0.4 glTF exporter"},"scenes":[{"nodes":[2],"name":"blockbench_export"}],"scene":0,"nodes":[{"translation":[0.05042228385915041,-0.3963520703143919,0.0012463343108504484],"name":"cylinder","mesh":0},{"rotation":[-0.7071067811865475,0,0,0.7071067811865476],"translation":[0.05042228385915041,0.2786479296856085,0.0012463343108504484],"name":"torus","mesh":1},{"translation":[-0.05042228385915041,0.571352070314392,-0.0012463343108504484],"name":"vedro","children":[0,1]}],"bufferViews":[{"buffer":0,"byteOffset":0,"byteLength":1920,"target":34962,"byteStride":12},{"buffer":0,"byteOffset":1920,"byteLength":1920,"target":34962,"byteStride":12},{"buffer":0,"byteOffset":3840,"byteLength":1280,"target":34962,"byteStride":8},{"buffer":0,"byteOffset":5120,"byteLength":384,"target":34963},{"buffer":0,"byteOffset":5504,"byteLength":16920,"target":34962,"byteStride":12},{"buffer":0,"byteOffset":22424,"byteLength":16920,"target":34962,"byteStride":12},{"buffer":0,"byteOffset":39344,"byteLength":11280,"target":34962,"byteStride":8},{"buffer":0,"byteOffset":50624,"byteLength":3936,"target":34963}],"buffers":[{"byteLength":54560,"uri":"data:application/octet-stream;base64,"}],"accessors":[{"bufferView":0,"componentType":5126,"count":160,"max":[0.518750011920929,0.5,0.518750011920929],"min":[-0.518750011920929,0.04374999925494194,-0.518750011920929],"type":"VEC3"},{"bufferView":1,"componentType":5126,"count":160,"max":[0.9780224561691284,1,0.9780224561691284],"min":[-0.9780224561691284,-1,-0.9780224561691284],"type":"VEC3"},{"bufferView":2,"componentType":5126,"count":160,"max":[0.6788806915283203,0.5546875],"min":[0.0009116057772189379,0],"type":"VEC2"},{"bufferView":3,"componentType":5123,"count":192,"max":[159],"min":[0],"type":"SCALAR"},{"bufferView":4,"componentType":5126,"count":1410,"max":[0.5901548862457275,0.5507367849349976,0.6776549220085144],"min":[-0.625,-0.5507367849349976,-0.8529099225997925],"type":"VEC3"},{"bufferView":5,"componentType":5126,"count":1410,"max":[1,1,1],"min":[-1,-1,-1],"type":"VEC3"},{"bufferView":6,"componentType":5126,"count":1410,"max":[1,1],"min":[0,0],"type":"VEC2"},{"bufferView":7,"componentType":5123,"count":1968,"max":[1409],"min":[0],"type":"SCALAR"}],"materials":[{"pbrMetallicRoughness":{"metallicFactor":0,"roughnessFactor":1,"baseColorTexture":{"index":0}},"alphaMode":"MASK","alphaCutoff":0.05,"doubleSided":true},{"pbrMetallicRoughness":{"metallicFactor":0,"roughnessFactor":1,"baseColorTexture":{"index":1}},"alphaMode":"MASK","alphaCutoff":0.05,"doubleSided":true}],"textures":[{"sampler":0,"source":0,"name":"texture"},{"sampler":1,"source":1,"name":"texture"}],"samplers":[{"magFilter":9728,"minFilter":9728,"wrapS":33071,"wrapT":33071},{"magFilter":9728,"minFilter":9728,"wrapS":33071,"wrapT":33071}],"images":[{"mimeType":"image/png","uri":"data:image/png;base64,"},{"mimeType":"image/png","uri":"data:image/png;base64,"}],"meshes":[{"primitives":[{"mode":4,"attributes":{"POSITION":0,"NORMAL":1,"TEXCOORD_0":2},"indices":3,"material":0}]},{"primitives":[{"mode":4,"attributes":{"POSITION":4,"NORMAL":5,"TEXCOORD_0":6},"indices":7,"material":1}]}]}