{"asset":{"version":"2.0","generator":"Blockbench 5.0.4 glTF exporter"},"scenes":[{"nodes":[2],"name":"blockbench_export"}],"scene":0,"nodes":[{"name":"s4_1","mesh":0},{"rotation":[0,0.7071067811865475,0,0.7071067811865476],"translation":[-0.017254375,0.548378125,4.357516875],"name":"s4_dop","mesh":1},{"translation":[0.010329375,0.380273125,-0.013766875],"name":"green","children":[0,1]}],"bufferViews":[{"buffer":0,"byteOffset":0,"byteLength":21192,"target":34962,"byteStride":12},{"buffer":0,"byteOffset":21192,"byteLength":21192,"target":34962,"byteStride":12},{"buffer":0,"byteOffset":42384,"byteLength":14128,"target":34962,"byteStride":8},{"buffer":0,"byteOffset":56512,"byteLength":5148,"target":34963},{"buffer":0,"byteOffset":61660,"byteLength":7680,"target":34962,"byteStride":12},{"buffer":0,"byteOffset":69340,"byteLength":7680,"target":34962,"byteStride":12},{"buffer":0,"byteOffset":77020,"byteLength":5120,"target":34962,"byteStride":8},{"buffer":0,"byteOffset":82140,"byteLength":1920,"target":34963}],"buffers":[{"byteLength":84060,"uri":"data:application/octet-stream;base64,"}],"accessors":[{"bufferView":0,"componentType":5126,"count":1766,"max":[2.296752452850342,2.1822268962860107,2.2090792655944824],"min":[-2.786161184310913,-0.3857418894767761,-2.265625],"type":"VEC3"},{"bufferView":1,"componentType":5126,"count":1766,"max":[1,1,1],"min":[-1,-1,-1],"type":"VEC3"},{"bufferView":2,"componentType":5126,"count":1766,"max":[0.9509791135787964,0.87890625],"min":[0,0],"type":"VEC2"},{"bufferView":3,"componentType":5123,"count":2574,"max":[1765],"min":[0],"type":"SCALAR"},{"bufferView":4,"componentType":5126,"count":640,"max":[1.015625,1.055723786354065,1.4912999868392944],"min":[-1.015625,-0.9286512732505798,-1.4149500131607056],"type":"VEC3"},{"bufferView":5,"componentType":5126,"count":640,"max":[1,1,1],"min":[-1,-1,-1],"type":"VEC3"},{"bufferView":6,"componentType":5126,"count":640,"max":[0.6162109375,0.541015625],"min":[0,0],"type":"VEC2"},{"bufferView":7,"componentType":5123,"count":960,"max":[639],"min":[0],"type":"SCALAR"}],"materials":[{"pbrMetallicRoughness":{"metallicFactor":0,"roughnessFactor":1,"baseColorTexture":{"index":0}},"alphaMode":"MASK","alphaCutoff":0.05,"doubleSided":true},{"pbrMetallicRoughness":{"metallicFactor":0,"roughnessFactor":1,"baseColorTexture":{"index":1}},"alphaMode":"MASK","alphaCutoff":0.05,"doubleSided":true}],"textures":[{"sampler":0,"source":0,"name":"f.nps_spherehouse_4_texture.png"},{"sampler":1,"source":1,"name":"f.nps_spherehouse_4_texture2.png"}],"samplers":[{"magFilter":9728,"minFilter":9728,"wrapS":33071,"wrapT":33071},{"magFilter":9728,"minFilter":9728,"wrapS":33071,"wrapT":33071}],"images":[{"mimeType":"image/png","uri":"data:image/png;base64,"},{"mimeType":"image/png","uri":"data:image/png;base64,"}],"meshes":[{"primitives":[{"mode":4,"attributes":{"POSITION":0,"NORMAL":1,"TEXCOORD_0":2},"indices":3,"material":0}]},{"primitives":[{"mode":4,"attributes":{"POSITION":4,"NORMAL":5,"TEXCOORD_0":6},"indices":7,"material":1}]}]}