{"asset":{"version":"2.0","generator":"Blockbench 5.0.4 glTF exporter"},"scenes":[{"nodes":[0],"name":"blockbench_export"}],"scene":0,"nodes":[{"translation":[0,0.25,0],"name":"egg","mesh":0}],"bufferViews":[{"buffer":0,"byteOffset":0,"byteLength":5760,"target":34962,"byteStride":12},{"buffer":0,"byteOffset":5760,"byteLength":5760,"target":34962,"byteStride":12},{"buffer":0,"byteOffset":11520,"byteLength":3840,"target":34962,"byteStride":8},{"buffer":0,"byteOffset":15360,"byteLength":1344,"target":34963}],"buffers":[{"byteLength":16704,"uri":"data:application/octet-stream;base64,"}],"accessors":[{"bufferView":0,"componentType":5126,"count":480,"max":[0.38749998807907104,0.6875,0.38749998807907104],"min":[-0.38749998807907104,-0.2750000059604645,-0.38749998807907104],"type":"VEC3"},{"bufferView":1,"componentType":5126,"count":480,"max":[0.9922122359275818,0.953621506690979,0.9922122359275818],"min":[-0.9922122359275818,-0.9907292127609253,-0.9922122359275818],"type":"VEC3"},{"bufferView":2,"componentType":5126,"count":480,"max":[0.640625,0.6489430665969849],"min":[0,0],"type":"VEC2"},{"bufferView":3,"componentType":5123,"count":672,"max":[479],"min":[0],"type":"SCALAR"}],"materials":[{"pbrMetallicRoughness":{"metallicFactor":0,"roughnessFactor":1,"baseColorTexture":{"index":0}},"alphaMode":"MASK","alphaCutoff":0.05,"doubleSided":true}],"textures":[{"sampler":0,"source":0,"name":"texture"}],"samplers":[{"magFilter":9728,"minFilter":9728,"wrapS":33071,"wrapT":33071}],"images":[{"mimeType":"image/png","uri":"data:image/png;base64,"}],"meshes":[{"primitives":[{"mode":4,"attributes":{"POSITION":0,"NORMAL":1,"TEXCOORD_0":2},"indices":3,"material":0}]}]}