{"asset":{"version":"2.0","generator":"Blockbench 5.0.4 glTF exporter"},"scenes":[{"nodes":[1,3,5,7,9,11,13,15],"name":"blockbench_export"}],"scene":0,"nodes":[{"translation":[0.059374999999999734,-1.1218750000000002,-0.06250000000000006],"name":"sphere","mesh":0},{"translation":[-2.9640624999999985,1.1218750000000002,-0.3062499999999991],"name":"C1","children":[0]},{"rotation":[0,0,0.02181488503456112,0.9997620270799091],"translation":[-0.09110061057221674,0.1875388436261285,-0.09374999999999989],"name":"sphere","mesh":1},{"translation":[-0.37080970046415995,1.9724589141074151,0.5687500000000008],"name":"C2","children":[2]},{"translation":[-0.9359375000000001,-2.8140625000000004,-1.5375],"name":"sphere","mesh":2},{"translation":[-1.9687499999999987,2.8140625000000004,1.168750000000001],"name":"C3","children":[4]},{"translation":[0.007291666666666474,0.015625,-0.002083333333333215],"name":"sphere","mesh":3},{"translation":[-0.7901041666666653,3.9375000000000004,1.1708333333333343],"name":"C4","children":[6]},{"translation":[-4.2375,-2.772916666666666,-1.5395833333333329],"name":"sphere","mesh":4},{"translation":[1.3328125000000013,2.772916666666666,1.1708333333333338],"name":"C5","children":[8]},{"translation":[-5.460833333333334,-0.5891666666666668,0.32500000000000007],"name":"sphere","mesh":5},{"translation":[2.5561458333333356,0.5891666666666668,-0.6937499999999992],"name":"C6","children":[10]},{"translation":[-0.019063673686257943,0,-2.220446049250313e-16],"name":"sphere","mesh":6},{"translation":[2.8453136736862605,2.1583652591296594,0.8900000000000005],"name":"C7","children":[12]},{"translation":[-4.440892098500626e-16,-2.220446049250313e-15,-8.881784197001252e-16],"name":"sphere","mesh":7},{"translation":[3.4321875000000004,2.8537500000000007,0.7275000000000007],"name":"C8","children":[14]}],"bufferViews":[{"buffer":0,"byteOffset":0,"byteLength":34944,"target":34962,"byteStride":12},{"buffer":0,"byteOffset":34944,"byteLength":34944,"target":34962,"byteStride":12},{"buffer":0,"byteOffset":69888,"byteLength":23296,"target":34962,"byteStride":8},{"buffer":0,"byteOffset":93184,"byteLength":8064,"target":34963},{"buffer":0,"byteOffset":101248,"byteLength":26208,"target":34962,"byteStride":12},{"buffer":0,"byteOffset":127456,"byteLength":26208,"target":34962,"byteStride":12},{"buffer":0,"byteOffset":153664,"byteLength":17472,"target":34962,"byteStride":8},{"buffer":0,"byteOffset":171136,"byteLength":6048,"target":34963},{"buffer":0,"byteOffset":177184,"byteLength":8736,"target":34962,"byteStride":12},{"buffer":0,"byteOffset":185920,"byteLength":8736,"target":34962,"byteStride":12},{"buffer":0,"byteOffset":194656,"byteLength":5824,"target":34962,"byteStride":8},{"buffer":0,"byteOffset":200480,"byteLength":2016,"target":34963},{"buffer":0,"byteOffset":202496,"byteLength":13104,"target":34962,"byteStride":12},{"buffer":0,"byteOffset":215600,"byteLength":13104,"target":34962,"byteStride":12},{"buffer":0,"byteOffset":228704,"byteLength":8736,"target":34962,"byteStride":8},{"buffer":0,"byteOffset":237440,"byteLength":3024,"target":34963},{"buffer":0,"byteOffset":240464,"byteLength":13104,"target":34962,"byteStride":12},{"buffer":0,"byteOffset":253568,"byteLength":13104,"target":34962,"byteStride":12},{"buffer":0,"byteOffset":266672,"byteLength":8736,"target":34962,"byteStride":8},{"buffer":0,"byteOffset":275408,"byteLength":3024,"target":34963},{"buffer":0,"byteOffset":278432,"byteLength":65520,"target":34962,"byteStride":12},{"buffer":0,"byteOffset":343952,"byteLength":65520,"target":34962,"byteStride":12},{"buffer":0,"byteOffset":409472,"byteLength":43680,"target":34962,"byteStride":8},{"buffer":0,"byteOffset":453152,"byteLength":15120,"target":34963},{"buffer":0,"byteOffset":468272,"byteLength":4368,"target":34962,"byteStride":12},{"buffer":0,"byteOffset":472640,"byteLength":4368,"target":34962,"byteStride":12},{"buffer":0,"byteOffset":477008,"byteLength":2912,"target":34962,"byteStride":8},{"buffer":0,"byteOffset":479920,"byteLength":1008,"target":34963},{"buffer":0,"byteOffset":480928,"byteLength":4368,"target":34962,"byteStride":12},{"buffer":0,"byteOffset":485296,"byteLength":4368,"target":34962,"byteStride":12},{"buffer":0,"byteOffset":489664,"byteLength":2912,"target":34962,"byteStride":8},{"buffer":0,"byteOffset":492576,"byteLength":1008,"target":34963}],"buffers":[{"byteLength":493584,"uri":"data:application/octet-stream;base64,"}],"accessors":[{"bufferView":0,"componentType":5126,"count":2912,"max":[1.4375,2.0374999046325684,0.9249639511108398],"min":[-1.625,0.4375,-0.6749639511108398],"type":"VEC3"},{"bufferView":1,"componentType":5126,"count":2912,"max":[0.9689596891403198,1,0.9619558453559875],"min":[-0.9689596891403198,-1,-0.9619558453559875],"type":"VEC3"},{"bufferView":2,"componentType":5126,"count":2912,"max":[0.7648096084594727,0.7572633028030396],"min":[0,0],"type":"VEC2"},{"bufferView":3,"componentType":5123,"count":4032,"max":[2911],"min":[0],"type":"SCALAR"},{"bufferView":4,"componentType":5126,"count":2184,"max":[1.2129340171813965,0.5244348049163818,0.5187139511108398],"min":[-1.1107110977172852,-0.7493987083435059,-0.5187139511108398],"type":"VEC3"},{"bufferView":5,"componentType":5126,"count":2184,"max":[0.9953213334083557,1,0.9622675776481628],"min":[-0.9953213334083557,-1,-0.9622675776481628],"type":"VEC3"},{"bufferView":6,"componentType":5126,"count":2184,"max":[0.76953125,0.7648882865905762],"min":[0,0],"type":"VEC2"},{"bufferView":7,"componentType":5123,"count":3024,"max":[2183],"min":[0],"type":"SCALAR"},{"bufferView":8,"componentType":5126,"count":728,"max":[1.368749976158142,3.125,1.8374639749526978],"min":[0.40625,2.581249952316284,1.2500360012054443],"type":"VEC3"},{"bufferView":9,"componentType":5126,"count":728,"max":[0.9676889777183533,1,0.956304132938385],"min":[-0.9676889777183533,-1,-0.956304132938385],"type":"VEC3"},{"bufferView":10,"componentType":5126,"count":728,"max":[0.765625,0.75390625],"min":[0.0825851559638977,0.0010583996772766113],"type":"VEC2"},{"bufferView":11,"componentType":5123,"count":1008,"max":[727],"min":[0],"type":"SCALAR"},{"bufferView":12,"componentType":5126,"count":1092,"max":[0.6781250238418579,0.359375,0.3249639570713043],"min":[-0.6781250238418579,-0.265625,-0.33746394515037537],"type":"VEC3"},{"bufferView":13,"componentType":5126,"count":1092,"max":[0.9641412496566772,1,0.9490195512771606],"min":[-0.9641412496566772,-1,-0.9490195512771606],"type":"VEC3"},{"bufferView":14,"componentType":5126,"count":1092,"max":[0.765625,0.75390625],"min":[0.0825851559638977,0.0010583996772766113],"type":"VEC2"},{"bufferView":15,"componentType":5123,"count":1512,"max":[1091],"min":[0],"type":"SCALAR"},{"bufferView":16,"componentType":5126,"count":1092,"max":[4.806250095367432,3.0999999046325684,1.824963927268982],"min":[3.581249952316284,2.5,1.212536096572876],"type":"VEC3"},{"bufferView":17,"componentType":5126,"count":1092,"max":[0.9641081094741821,1,0.9537897706031799],"min":[-0.9641081094741821,-1,-0.9537897706031799],"type":"VEC3"},{"bufferView":18,"componentType":5126,"count":1092,"max":[0.765625,0.7563774585723877],"min":[0,0],"type":"VEC2"},{"bufferView":19,"componentType":5123,"count":1512,"max":[1091],"min":[0],"type":"SCALAR"},{"bufferView":20,"componentType":5126,"count":5460,"max":[7.443749904632568,1.712499976158142,0.7437139749526978],"min":[3.4375,-0.20624999701976776,-1.3062139749526978],"type":"VEC3"},{"bufferView":21,"componentType":5126,"count":5460,"max":[0.9777733087539673,1,0.9637287855148315],"min":[-0.9777733087539673,-1,-0.9637287855148315],"type":"VEC3"},{"bufferView":22,"componentType":5126,"count":5460,"max":[0.77166348695755,0.7676628828048706],"min":[0,0],"type":"VEC2"},{"bufferView":23,"componentType":5123,"count":7560,"max":[5459],"min":[0],"type":"SCALAR"},{"bufferView":24,"componentType":5126,"count":364,"max":[0.4724999964237213,0.12163474410772324,0.2149711698293686],"min":[-0.35249999165534973,-0.15836526453495026,-0.2149711698293686],"type":"VEC3"},{"bufferView":25,"componentType":5126,"count":364,"max":[0.8739367127418518,0.9999973177909851,0.9553629159927368],"min":[-0.9219720959663391,-0.9999884963035583,-0.9536665678024292],"type":"VEC3"},{"bufferView":26,"componentType":5126,"count":364,"max":[0.7728967070579529,0.6429514288902283],"min":[0.171875,0.03515625],"type":"VEC2"},{"bufferView":27,"componentType":5123,"count":504,"max":[363],"min":[0],"type":"SCALAR"},{"bufferView":28,"componentType":5126,"count":364,"max":[0.19499999284744263,0.13124999403953552,0.13122837245464325],"min":[-0.19499999284744263,-0.13124999403953552,-0.13122837245464325],"type":"VEC3"},{"bufferView":29,"componentType":5126,"count":364,"max":[0.9494152069091797,1,0.959498405456543],"min":[-0.9494152069091797,-1,-0.959498405456543],"type":"VEC3"},{"bufferView":30,"componentType":5126,"count":364,"max":[0.749045729637146,0.7469959259033203],"min":[0.1526089906692505,0],"type":"VEC2"},{"bufferView":31,"componentType":5123,"count":504,"max":[363],"min":[0],"type":"SCALAR"}],"materials":[{"pbrMetallicRoughness":{"metallicFactor":0,"roughnessFactor":1,"baseColorTexture":{"index":0}},"alphaMode":"MASK","alphaCutoff":0.05,"doubleSided":true}],"textures":[{"sampler":0,"source":0,"name":"texture"}],"samplers":[{"magFilter":9728,"minFilter":9728,"wrapS":33071,"wrapT":33071}],"images":[{"mimeType":"image/png","uri":"data:image/png;base64,"}],"meshes":[{"primitives":[{"mode":4,"attributes":{"POSITION":0,"NORMAL":1,"TEXCOORD_0":2},"indices":3,"material":0}]},{"primitives":[{"mode":4,"attributes":{"POSITION":4,"NORMAL":5,"TEXCOORD_0":6},"indices":7,"material":0}]},{"primitives":[{"mode":4,"attributes":{"POSITION":8,"NORMAL":9,"TEXCOORD_0":10},"indices":11,"material":0}]},{"primitives":[{"mode":4,"attributes":{"POSITION":12,"NORMAL":13,"TEXCOORD_0":14},"indices":15,"material":0}]},{"primitives":[{"mode":4,"attributes":{"POSITION":16,"NORMAL":17,"TEXCOORD_0":18},"indices":19,"material":0}]},{"primitives":[{"mode":4,"attributes":{"POSITION":20,"NORMAL":21,"TEXCOORD_0":22},"indices":23,"material":0}]},{"primitives":[{"mode":4,"attributes":{"POSITION":24,"NORMAL":25,"TEXCOORD_0":26},"indices":27,"material":0}]},{"primitives":[{"mode":4,"attributes":{"POSITION":28,"NORMAL":29,"TEXCOORD_0":30},"indices":31,"material":0}]}]}