{"asset":{"version":"2.0","generator":"Blockbench 5.0.4 glTF exporter"},"scenes":[{"nodes":[0,1],"name":"blockbench_export"}],"scene":0,"nodes":[{"rotation":[0.6348716270638337,0.3004218934980659,-0.18039795785939894,0.6885791747188668],"translation":[-0.016805,4.348838125,0.087700625],"name":"cylinder","mesh":0},{"rotation":[0.020273382820298263,-0.02216685313544626,0.010433026226357844,0.9994942583801336],"translation":[0.3675,3.21125,-0.0964375],"name":"cylinder","mesh":1}],"bufferViews":[{"buffer":0,"byteOffset":0,"byteLength":12024,"target":34962,"byteStride":12},{"buffer":0,"byteOffset":12024,"byteLength":12024,"target":34962,"byteStride":12},{"buffer":0,"byteOffset":24048,"byteLength":8016,"target":34962,"byteStride":8},{"buffer":0,"byteOffset":32064,"byteLength":2004,"target":34963},{"buffer":0,"byteOffset":34068,"byteLength":1440,"target":34962,"byteStride":12},{"buffer":0,"byteOffset":35508,"byteLength":1440,"target":34962,"byteStride":12},{"buffer":0,"byteOffset":36948,"byteLength":960,"target":34962,"byteStride":8},{"buffer":0,"byteOffset":37908,"byteLength":240,"target":34963}],"buffers":[{"byteLength":38148,"uri":"data:application/octet-stream;base64,"}],"accessors":[{"bufferView":0,"componentType":5126,"count":1002,"max":[1.87535560131073,1.9710330963134766,5.461337089538574],"min":[-2.1134932041168213,-2.7238612174987793,-5.559212684631348],"type":"VEC3"},{"bufferView":1,"componentType":5126,"count":1002,"max":[0.9958603382110596,0.9979584217071533,0.9861331582069397],"min":[-0.9985311627388,-0.9926380515098572,-0.9868372678756714],"type":"VEC3"},{"bufferView":2,"componentType":5126,"count":1002,"max":[0.69140625,0.669921875],"min":[0,0],"type":"VEC2"},{"bufferView":3,"componentType":5123,"count":1002,"max":[1001],"min":[0],"type":"SCALAR"},{"bufferView":4,"componentType":5126,"count":120,"max":[2.6244006156921387,7.3110032081604,2.4271137714385986],"min":[-2.365816354751587,0.5287500023841858,-2.7728381156921387],"type":"VEC3"},{"bufferView":5,"componentType":5126,"count":120,"max":[0.8886858224868774,0.6326711177825928,0.849761962890625],"min":[-0.8466138243675232,0.430948406457901,-0.8717005252838135],"type":"VEC3"},{"bufferView":6,"componentType":5126,"count":120,"max":[0.6040762662887573,0.5825918912887573],"min":[0.0001593750057509169,0],"type":"VEC2"},{"bufferView":7,"componentType":5123,"count":120,"max":[119],"min":[0],"type":"SCALAR"}],"materials":[{"pbrMetallicRoughness":{"metallicFactor":0,"roughnessFactor":1,"baseColorTexture":{"index":0}},"alphaMode":"MASK","alphaCutoff":0.05,"doubleSided":true},{"pbrMetallicRoughness":{"metallicFactor":0,"roughnessFactor":1,"baseColorTexture":{"index":1}},"alphaMode":"MASK","alphaCutoff":0.05,"doubleSided":true}],"textures":[{"sampler":0,"source":0,"name":"ntotree 1_texture.png"},{"sampler":1,"source":1,"name":"ntotree1leaves_texture.png"}],"samplers":[{"magFilter":9728,"minFilter":9728,"wrapS":33071,"wrapT":33071},{"magFilter":9728,"minFilter":9728,"wrapS":33071,"wrapT":33071}],"images":[{"mimeType":"image/png","uri":"data:image/png;base64,"},{"mimeType":"image/png","uri":"data:image/png;base64,"}],"meshes":[{"primitives":[{"mode":4,"attributes":{"POSITION":0,"NORMAL":1,"TEXCOORD_0":2},"indices":3,"material":0}]},{"primitives":[{"mode":4,"attributes":{"POSITION":4,"NORMAL":5,"TEXCOORD_0":6},"indices":7,"material":1}]}]}