{"asset":{"version":"2.0","generator":"Blockbench 5.0.4 glTF exporter"},"scenes":[{"nodes":[0,1],"name":"blockbench_export"}],"scene":0,"nodes":[{"rotation":[0.020657160016253777,-0.02180965769950768,-0.007012142803051282,0.9995241119774964],"translation":[0.125,4.8125,0.096875],"name":"cylinder","mesh":0},{"rotation":[0.6408563820557885,0.2988362387301198,-0.18301270189221933,0.6830127018922194],"translation":[0.83155,9.013901875,-0.21710875],"name":"cylinder","mesh":1}],"bufferViews":[{"buffer":0,"byteOffset":0,"byteLength":1440,"target":34962,"byteStride":12},{"buffer":0,"byteOffset":1440,"byteLength":1440,"target":34962,"byteStride":12},{"buffer":0,"byteOffset":2880,"byteLength":960,"target":34962,"byteStride":8},{"buffer":0,"byteOffset":3840,"byteLength":240,"target":34963},{"buffer":0,"byteOffset":4080,"byteLength":12708,"target":34962,"byteStride":12},{"buffer":0,"byteOffset":16788,"byteLength":12708,"target":34962,"byteStride":12},{"buffer":0,"byteOffset":29496,"byteLength":8472,"target":34962,"byteStride":8},{"buffer":0,"byteOffset":37968,"byteLength":2120,"target":34963}],"buffers":[{"byteLength":40088,"uri":"data:application/octet-stream;base64,"}],"accessors":[{"bufferView":0,"componentType":5126,"count":120,"max":[2.879415512084961,8.176599502563477,2.6695363521575928],"min":[-2.604325532913208,-0.0625,-3.037327527999878],"type":"VEC3"},{"bufferView":1,"componentType":5126,"count":120,"max":[0.9051307439804077,0.5943302512168884,0.87233567237854],"min":[-0.8680527806282043,0.39620381593704224,-0.8904604911804199],"type":"VEC3"},{"bufferView":2,"componentType":5126,"count":120,"max":[0.6040762662887573,0.5825918912887573],"min":[0.0001593750057509169,0],"type":"VEC2"},{"bufferView":3,"componentType":5123,"count":120,"max":[119],"min":[0],"type":"SCALAR"},{"bufferView":4,"componentType":5126,"count":1059,"max":[0.839101254940033,1.5661824941635132,10.192989349365234],"min":[-3.9934499263763428,-3.9908857345581055,-3.1533401012420654],"type":"VEC3"},{"bufferView":5,"componentType":5126,"count":1059,"max":[0.9956784844398499,0.9977348446846008,0.9860103130340576],"min":[-0.9984614253044128,-0.9929674863815308,-0.986240804195404],"type":"VEC3"},{"bufferView":6,"componentType":5126,"count":1059,"max":[0.69140625,0.669921875],"min":[0,0],"type":"VEC2"},{"bufferView":7,"componentType":5123,"count":1059,"max":[1058],"min":[0],"type":"SCALAR"}],"materials":[{"pbrMetallicRoughness":{"metallicFactor":0,"roughnessFactor":1,"baseColorTexture":{"index":0}},"alphaMode":"MASK","alphaCutoff":0.05,"doubleSided":true},{"pbrMetallicRoughness":{"metallicFactor":0,"roughnessFactor":1,"baseColorTexture":{"index":1}},"alphaMode":"MASK","alphaCutoff":0.05,"doubleSided":true}],"textures":[{"sampler":0,"source":0,"name":"texture"},{"sampler":1,"source":1,"name":"Tactics tree 1_texture.png"}],"samplers":[{"magFilter":9728,"minFilter":9728,"wrapS":33071,"wrapT":33071},{"magFilter":9728,"minFilter":9728,"wrapS":33071,"wrapT":33071}],"images":[{"mimeType":"image/png","uri":"data:image/png;base64,"},{"mimeType":"image/png","uri":"data:image/png;base64,"}],"meshes":[{"primitives":[{"mode":4,"attributes":{"POSITION":0,"NORMAL":1,"TEXCOORD_0":2},"indices":3,"material":0}]},{"primitives":[{"mode":4,"attributes":{"POSITION":4,"NORMAL":5,"TEXCOORD_0":6},"indices":7,"material":1}]}]}