{"asset":{"version":"2.0","generator":"Blockbench 5.0.4 glTF exporter"},"scenes":[{"nodes":[0,1],"name":"blockbench_export"}],"scene":0,"nodes":[{"rotation":[0.6408563820557885,0.2988362387301198,-0.18301270189221933,0.6830127018922194],"translation":[0.83155,9.201401875,-0.21710875],"name":"cylinder","mesh":0},{"rotation":[0.020657160016253777,-0.02180965769950768,-0.007012142803051282,0.9995241119774964],"translation":[0.125,2.75,0.096875],"name":"cylinder","mesh":1}],"bufferViews":[{"buffer":0,"byteOffset":0,"byteLength":12024,"target":34962,"byteStride":12},{"buffer":0,"byteOffset":12024,"byteLength":12024,"target":34962,"byteStride":12},{"buffer":0,"byteOffset":24048,"byteLength":8016,"target":34962,"byteStride":8},{"buffer":0,"byteOffset":32064,"byteLength":2004,"target":34963},{"buffer":0,"byteOffset":34068,"byteLength":1440,"target":34962,"byteStride":12},{"buffer":0,"byteOffset":35508,"byteLength":1440,"target":34962,"byteStride":12},{"buffer":0,"byteOffset":36948,"byteLength":960,"target":34962,"byteStride":8},{"buffer":0,"byteOffset":37908,"byteLength":240,"target":34963}],"buffers":[{"byteLength":38148,"uri":"data:application/octet-stream;base64,"}],"accessors":[{"bufferView":0,"componentType":5126,"count":1002,"max":[0.557851254940033,1.2849324941635132,10.192989349365234],"min":[-3.7121999263763428,-3.7096357345581055,-2.5283401012420654],"type":"VEC3"},{"bufferView":1,"componentType":5126,"count":1002,"max":[0.9958548545837402,0.9977936744689941,0.9838896989822388],"min":[-0.9985132217407227,-0.9930919408798218,-0.9845584630966187],"type":"VEC3"},{"bufferView":2,"componentType":5126,"count":1002,"max":[0.69140625,0.669921875],"min":[0,0],"type":"VEC2"},{"bufferView":3,"componentType":5123,"count":1002,"max":[1001],"min":[0],"type":"SCALAR"},{"bufferView":4,"componentType":5126,"count":120,"max":[2.691915512084961,10.551599502563477,2.4820363521575928],"min":[-2.416825532913208,0.5625,-2.849827527999878],"type":"VEC3"},{"bufferView":5,"componentType":5126,"count":120,"max":[0.9380803108215332,0.4937998056411743,0.9180367588996887],"min":[-0.9123497009277344,0.3154428005218506,-0.9275177121162415],"type":"VEC3"},{"bufferView":6,"componentType":5126,"count":120,"max":[0.6040762662887573,0.5825918912887573],"min":[0.0001593750057509169,0],"type":"VEC2"},{"bufferView":7,"componentType":5123,"count":120,"max":[119],"min":[0],"type":"SCALAR"}],"materials":[{"pbrMetallicRoughness":{"metallicFactor":0,"roughnessFactor":1,"baseColorTexture":{"index":0}},"alphaMode":"MASK","alphaCutoff":0.05,"doubleSided":true},{"pbrMetallicRoughness":{"metallicFactor":0,"roughnessFactor":1,"baseColorTexture":{"index":1}},"alphaMode":"MASK","alphaCutoff":0.05,"doubleSided":true}],"textures":[{"sampler":0,"source":0,"name":"ntotree 1_texture.png"},{"sampler":1,"source":1,"name":"ntotree1leaves_texture.png"}],"samplers":[{"magFilter":9728,"minFilter":9728,"wrapS":33071,"wrapT":33071},{"magFilter":9728,"minFilter":9728,"wrapS":33071,"wrapT":33071}],"images":[{"mimeType":"image/png","uri":"data:image/png;base64,"},{"mimeType":"image/png","uri":"data:image/png;base64,"}],"meshes":[{"primitives":[{"mode":4,"attributes":{"POSITION":0,"NORMAL":1,"TEXCOORD_0":2},"indices":3,"material":0}]},{"primitives":[{"mode":4,"attributes":{"POSITION":4,"NORMAL":5,"TEXCOORD_0":6},"indices":7,"material":1}]}]}