{"asset":{"version":"2.0","generator":"Blockbench 5.0.4 glTF exporter"},"scenes":[{"nodes":[4],"name":"blockbench_export"}],"scene":0,"nodes":[{"rotation":[0,0.5555702330196022,0,0.8314696123025452],"translation":[-4.387046983174796,0.2802885563380282,-1.845073591059365],"name":"cylinder","mesh":0},{"rotation":[0,0.5555702330196022,0,0.8314696123025452],"translation":[-2.5874434669952198,0.34450080781250014,0.31044994354557104],"name":"cuboid","mesh":1},{"translation":[1.4917203237132775,0.7241914407894732,1.8101073410593653],"name":"s1_1","mesh":2},{"rotation":[0,0.5555702330196022,0,0.8314696123025452],"translation":[-5.13327967628672,0.400255721153846,-0.0435085026623558],"name":"cylinder","mesh":3},{"translation":[0.041579375,0.380273125,0.017483125],"name":"player_house","children":[0,1,2,3]}],"bufferViews":[{"buffer":0,"byteOffset":0,"byteLength":7776,"target":34962,"byteStride":12},{"buffer":0,"byteOffset":7776,"byteLength":7776,"target":34962,"byteStride":12},{"buffer":0,"byteOffset":15552,"byteLength":5184,"target":34962,"byteStride":8},{"buffer":0,"byteOffset":20736,"byteLength":1584,"target":34963},{"buffer":0,"byteOffset":22320,"byteLength":3576,"target":34962,"byteStride":12},{"buffer":0,"byteOffset":25896,"byteLength":3576,"target":34962,"byteStride":12},{"buffer":0,"byteOffset":29472,"byteLength":2384,"target":34962,"byteStride":8},{"buffer":0,"byteOffset":31856,"byteLength":888,"target":34963},{"buffer":0,"byteOffset":32744,"byteLength":21192,"target":34962,"byteStride":12},{"buffer":0,"byteOffset":53936,"byteLength":21192,"target":34962,"byteStride":12},{"buffer":0,"byteOffset":75128,"byteLength":14128,"target":34962,"byteStride":8},{"buffer":0,"byteOffset":89256,"byteLength":5148,"target":34963},{"buffer":0,"byteOffset":94404,"byteLength":8640,"target":34962,"byteStride":12},{"buffer":0,"byteOffset":103044,"byteLength":8640,"target":34962,"byteStride":12},{"buffer":0,"byteOffset":111684,"byteLength":5760,"target":34962,"byteStride":8},{"buffer":0,"byteOffset":117444,"byteLength":1728,"target":34963}],"buffers":[{"byteLength":119172,"uri":"data:application/octet-stream;base64,"}],"accessors":[{"bufferView":0,"componentType":5126,"count":648,"max":[0.7875000238418579,0.8206883072853088,0.7875000238418579],"min":[-0.7875000238418579,-0.6605616807937622,-0.7875000238418579],"type":"VEC3"},{"bufferView":1,"componentType":5126,"count":648,"max":[1,1,1],"min":[-1,-1,-1],"type":"VEC3"},{"bufferView":2,"componentType":5126,"count":648,"max":[0.69140625,0.64453125],"min":[0,0],"type":"VEC2"},{"bufferView":3,"componentType":5123,"count":792,"max":[647],"min":[0],"type":"SCALAR"},{"bufferView":4,"componentType":5126,"count":298,"max":[0.5821406245231628,1.2252260446548462,1.2000000476837158],"min":[-2.8847343921661377,-0.7247739434242249,-1.2000000476837158],"type":"VEC3"},{"bufferView":5,"componentType":5126,"count":298,"max":[1,1,1],"min":[-1,-1,-1],"type":"VEC3"},{"bufferView":6,"componentType":5126,"count":298,"max":[0.466796875,0.4833984375],"min":[0,0],"type":"VEC2"},{"bufferView":7,"componentType":5123,"count":444,"max":[297],"min":[0],"type":"SCALAR"},{"bufferView":8,"componentType":5126,"count":1766,"max":[1.972442865371704,1.4580354690551758,2.5799643993377686],"min":[-3.110470771789551,-1.1099332571029663,-1.8947399854660034],"type":"VEC3"},{"bufferView":9,"componentType":5126,"count":1766,"max":[1,1,1],"min":[-1,-1,-1],"type":"VEC3"},{"bufferView":10,"componentType":5126,"count":1766,"max":[0.9509791135787964,0.87890625],"min":[0,0],"type":"VEC2"},{"bufferView":11,"componentType":5123,"count":2574,"max":[1765],"min":[0],"type":"SCALAR"},{"bufferView":12,"componentType":5126,"count":720,"max":[0.84375,1.2069711685180664,0.84375],"min":[-0.84375,-0.7805288434028625,-0.84375],"type":"VEC3"},{"bufferView":13,"componentType":5126,"count":720,"max":[1,1,1],"min":[-1,-1,-1],"type":"VEC3"},{"bufferView":14,"componentType":5126,"count":720,"max":[0.53125,0.630859375],"min":[0,0],"type":"VEC2"},{"bufferView":15,"componentType":5123,"count":864,"max":[719],"min":[0],"type":"SCALAR"}],"materials":[{"pbrMetallicRoughness":{"metallicFactor":0,"roughnessFactor":1,"baseColorTexture":{"index":0}},"alphaMode":"MASK","alphaCutoff":0.05,"doubleSided":true},{"pbrMetallicRoughness":{"metallicFactor":0,"roughnessFactor":1,"baseColorTexture":{"index":1}},"alphaMode":"MASK","alphaCutoff":0.05,"doubleSided":true},{"pbrMetallicRoughness":{"metallicFactor":0,"roughnessFactor":1,"baseColorTexture":{"index":2}},"alphaMode":"MASK","alphaCutoff":0.05,"doubleSided":true}],"textures":[{"sampler":0,"source":0,"name":"f.farm_texture1.png"},{"sampler":1,"source":1,"name":"f.farm_texture2.png"},{"sampler":2,"source":2,"name":"W.house_yellow_texture.png"}],"samplers":[{"magFilter":9728,"minFilter":9728,"wrapS":33071,"wrapT":33071},{"magFilter":9728,"minFilter":9728,"wrapS":33071,"wrapT":33071},{"magFilter":9728,"minFilter":9728,"wrapS":33071,"wrapT":33071}],"images":[{"mimeType":"image/png","uri":"data:image/png;base64,"},{"mimeType":"image/png","uri":"data:image/png;base64,"},{"mimeType":"image/png","uri":"data:image/png;base64,"}],"meshes":[{"primitives":[{"mode":4,"attributes":{"POSITION":0,"NORMAL":1,"TEXCOORD_0":2},"indices":3,"material":0}]},{"primitives":[{"mode":4,"attributes":{"POSITION":4,"NORMAL":5,"TEXCOORD_0":6},"indices":7,"material":1}]},{"primitives":[{"mode":4,"attributes":{"POSITION":8,"NORMAL":9,"TEXCOORD_0":10},"indices":11,"material":2}]},{"primitives":[{"mode":4,"attributes":{"POSITION":12,"NORMAL":13,"TEXCOORD_0":14},"indices":15,"material":0}]}]}