{"asset":{"version":"2.0","generator":"Blockbench 5.0.7 glTF exporter"},"scenes":[{"nodes":[0,1,2,3],"name":"blockbench_export"}],"scene":0,"nodes":[{"translation":[-3.449943704962225,0.22098562418327203,1.8924254033973122],"name":"sphere","mesh":0},{"translation":[-1.565063894075926,0.1771530401552345,-1.6375097036064337],"name":"sphere","mesh":1},{"translation":[2.8238439100869366,0.4476779566915996,1.675061907898045],"name":"sphere","mesh":2},{"translation":[-2.852083333333333,0.27447958963646985,4.908355313040671],"name":"cylinder","mesh":3}],"bufferViews":[{"buffer":0,"byteOffset":0,"byteLength":1440,"target":34962,"byteStride":12},{"buffer":0,"byteOffset":1440,"byteLength":1440,"target":34962,"byteStride":12},{"buffer":0,"byteOffset":2880,"byteLength":960,"target":34962,"byteStride":8},{"buffer":0,"byteOffset":3840,"byteLength":312,"target":34963},{"buffer":0,"byteOffset":4152,"byteLength":2424,"target":34962,"byteStride":12},{"buffer":0,"byteOffset":6576,"byteLength":2424,"target":34962,"byteStride":12},{"buffer":0,"byteOffset":9000,"byteLength":1616,"target":34962,"byteStride":8},{"buffer":0,"byteOffset":10616,"byteLength":576,"target":34963},{"buffer":0,"byteOffset":11192,"byteLength":2424,"target":34962,"byteStride":12},{"buffer":0,"byteOffset":13616,"byteLength":2424,"target":34962,"byteStride":12},{"buffer":0,"byteOffset":16040,"byteLength":1616,"target":34962,"byteStride":8},{"buffer":0,"byteOffset":17656,"byteLength":576,"target":34963},{"buffer":0,"byteOffset":18232,"byteLength":1440,"target":34962,"byteStride":12},{"buffer":0,"byteOffset":19672,"byteLength":1440,"target":34962,"byteStride":12},{"buffer":0,"byteOffset":21112,"byteLength":960,"target":34962,"byteStride":8},{"buffer":0,"byteOffset":22072,"byteLength":336,"target":34963}],"buffers":[{"byteLength":22408,"uri":"data:application/octet-stream;base64,"}],"accessors":[{"bufferView":0,"componentType":5126,"count":120,"max":[0.6472378969192505,0.8396745324134827,0.8575745820999146],"min":[-0.7317254543304443,-0.6694374680519104,-0.9473835229873657],"type":"VEC3"},{"bufferView":1,"componentType":5126,"count":120,"max":[0.9833762645721436,0.9485835433006287,0.9173629283905029],"min":[-0.9669656753540039,-0.9809737205505371,-0.9012009501457214],"type":"VEC3"},{"bufferView":2,"componentType":5126,"count":120,"max":[0.673828125,0.681640625],"min":[0,0.1015625],"type":"VEC2"},{"bufferView":3,"componentType":5123,"count":156,"max":[119],"min":[0],"type":"SCALAR"},{"bufferView":4,"componentType":5126,"count":202,"max":[1.1275639533996582,1.0884720087051392,1.1375097036361694],"min":[-1.1849360466003418,-1.0328187942504883,-1.2062402963638306],"type":"VEC3"},{"bufferView":5,"componentType":5126,"count":202,"max":[0.9777828454971313,0.9954832792282104,0.955235481262207],"min":[-0.9041420817375183,-0.9947755336761475,-0.9309062957763672],"type":"VEC3"},{"bufferView":6,"componentType":5126,"count":202,"max":[0.6850904822349548,0.6847162246704102],"min":[0.00017481732356827706,0.0703125],"type":"VEC2"},{"bufferView":7,"componentType":5123,"count":288,"max":[201],"min":[0],"type":"SCALAR"},{"bufferView":8,"componentType":5126,"count":202,"max":[1.9261560440063477,1.4585720300674438,2.1061880588531494],"min":[-2.0113439559936523,-1.522093653678894,-2.0813119411468506],"type":"VEC3"},{"bufferView":9,"componentType":5126,"count":202,"max":[0.9694090485572815,0.9973085522651672,0.9752330183982849],"min":[-0.9901273250579834,-0.9950727224349976,-0.9967741966247559],"type":"VEC3"},{"bufferView":10,"componentType":5126,"count":202,"max":[0.7218613028526306,0.666015625],"min":[0,0],"type":"VEC2"},{"bufferView":11,"componentType":5123,"count":288,"max":[201],"min":[0],"type":"SCALAR"},{"bufferView":12,"componentType":5126,"count":120,"max":[0.8135337829589844,1.0247023105621338,1.0262737274169922],"min":[-0.8423146605491638,-0.7276045680046082,-0.7914384603500366],"type":"VEC3"},{"bufferView":13,"componentType":5126,"count":120,"max":[0.9483727812767029,0.9858859181404114,0.8787325024604797],"min":[-0.9718371629714966,-1,-0.9680083990097046],"type":"VEC3"},{"bufferView":14,"componentType":5126,"count":120,"max":[0.6953125,0.68359375],"min":[0.039821092039346695,0],"type":"VEC2"},{"bufferView":15,"componentType":5123,"count":168,"max":[119],"min":[0],"type":"SCALAR"}],"materials":[{"pbrMetallicRoughness":{"metallicFactor":0,"roughnessFactor":1,"baseColorTexture":{"index":0}},"alphaMode":"MASK","alphaCutoff":0.05,"doubleSided":true}],"textures":[{"sampler":0,"source":0,"name":"rocks mid_texture.png"}],"samplers":[{"magFilter":9728,"minFilter":9728,"wrapS":33071,"wrapT":33071}],"images":[{"mimeType":"image/png","uri":"data:image/png;base64,"}],"meshes":[{"primitives":[{"mode":4,"attributes":{"POSITION":0,"NORMAL":1,"TEXCOORD_0":2},"indices":3,"material":0}]},{"primitives":[{"mode":4,"attributes":{"POSITION":4,"NORMAL":5,"TEXCOORD_0":6},"indices":7,"material":0}]},{"primitives":[{"mode":4,"attributes":{"POSITION":8,"NORMAL":9,"TEXCOORD_0":10},"indices":11,"material":0}]},{"primitives":[{"mode":4,"attributes":{"POSITION":12,"NORMAL":13,"TEXCOORD_0":14},"indices":15,"material":0}]}]}