{"asset":{"version":"2.0","generator":"Blockbench 5.0.7 glTF exporter"},"scenes":[{"nodes":[0,1],"name":"blockbench_export"}],"scene":0,"nodes":[{"rotation":[-0.5000000114791772,0.4999999885208224,-0.4999999856696089,0.5000000143303909],"translation":[8.310785059182341e-9,1.6316447644511574,0.03991328113700979],"name":"cylinder","mesh":0},{"rotation":[-0.5000000114791772,0.4999999885208224,-0.4999999856696089,0.5000000143303909],"translation":[2.48843140076472e-16,1.6316447644511574,-1.875],"name":"cylinder","mesh":1}],"bufferViews":[{"buffer":0,"byteOffset":0,"byteLength":14640,"target":34962,"byteStride":12},{"buffer":0,"byteOffset":14640,"byteLength":14640,"target":34962,"byteStride":12},{"buffer":0,"byteOffset":29280,"byteLength":9760,"target":34962,"byteStride":8},{"buffer":0,"byteOffset":39040,"byteLength":3480,"target":34963},{"buffer":0,"byteOffset":42520,"byteLength":14640,"target":34962,"byteStride":12},{"buffer":0,"byteOffset":57160,"byteLength":14640,"target":34962,"byteStride":12},{"buffer":0,"byteOffset":71800,"byteLength":9760,"target":34962,"byteStride":8},{"buffer":0,"byteOffset":81560,"byteLength":3480,"target":34963}],"buffers":[{"byteLength":85040,"uri":"data:application/octet-stream;base64,"}],"accessors":[{"bufferView":0,"componentType":5126,"count":1220,"max":[1.67519211769104,0.6674543023109436,2.6875],"min":[-2.204099178314209,-0.6942034363746643,-2.6875],"type":"VEC3"},{"bufferView":1,"componentType":5126,"count":1220,"max":[0.8799721002578735,1,1],"min":[-0.879357099533081,-1,-1],"type":"VEC3"},{"bufferView":2,"componentType":5126,"count":1220,"max":[0.5859375,0.625],"min":[0,0],"type":"VEC2"},{"bufferView":3,"componentType":5123,"count":1740,"max":[1219],"min":[0],"type":"SCALAR"},{"bufferView":4,"componentType":5126,"count":1220,"max":[1.67519211769104,0.6674543023109436,2.6875],"min":[-2.204099178314209,-0.6942034363746643,-2.6875],"type":"VEC3"},{"bufferView":5,"componentType":5126,"count":1220,"max":[0.8799721002578735,1,1],"min":[-0.879357099533081,-1,-1],"type":"VEC3"},{"bufferView":6,"componentType":5126,"count":1220,"max":[0.5859375,0.625],"min":[0,0],"type":"VEC2"},{"bufferView":7,"componentType":5123,"count":1740,"max":[1219],"min":[0],"type":"SCALAR"}],"materials":[{"pbrMetallicRoughness":{"metallicFactor":0,"roughnessFactor":1,"baseColorTexture":{"index":0}},"alphaMode":"MASK","alphaCutoff":0.05,"doubleSided":true},{"pbrMetallicRoughness":{"metallicFactor":0,"roughnessFactor":1,"baseColorTexture":{"index":1}},"alphaMode":"MASK","alphaCutoff":0.05,"doubleSided":true}],"textures":[{"sampler":0,"source":0,"name":"texture"},{"sampler":1,"source":1,"name":"W.Paseka_texture.png"}],"samplers":[{"magFilter":9728,"minFilter":9728,"wrapS":33071,"wrapT":33071},{"magFilter":9728,"minFilter":9728,"wrapS":33071,"wrapT":33071}],"images":[{"mimeType":"image/png","uri":"data:image/png;base64,"},{"mimeType":"image/png","uri":"data:image/png;base64,"}],"meshes":[{"primitives":[{"mode":4,"attributes":{"POSITION":0,"NORMAL":1,"TEXCOORD_0":2},"indices":3,"material":0}]},{"primitives":[{"mode":4,"attributes":{"POSITION":4,"NORMAL":5,"TEXCOORD_0":6},"indices":7,"material":1}]}]}