{"asset":{"version":"2.0","generator":"Blockbench 5.0.4 glTF exporter"},"scenes":[{"nodes":[3],"name":"blockbench_export"}],"scene":0,"nodes":[{"name":"s1_1","mesh":0},{"translation":[3.513701875,-0.378350125,-0.9206081250000002],"name":"sphere_2","mesh":1},{"translation":[2.9278303125,-0.3813769375,3.260563125],"name":"sphere_1","mesh":2},{"translation":[0.041579375,0.380273125,0.017483125],"name":"purple_house","children":[0,1,2]}],"bufferViews":[{"buffer":0,"byteOffset":0,"byteLength":21192,"target":34962,"byteStride":12},{"buffer":0,"byteOffset":21192,"byteLength":21192,"target":34962,"byteStride":12},{"buffer":0,"byteOffset":42384,"byteLength":14128,"target":34962,"byteStride":8},{"buffer":0,"byteOffset":56512,"byteLength":5148,"target":34963},{"buffer":0,"byteOffset":61660,"byteLength":20880,"target":34962,"byteStride":12},{"buffer":0,"byteOffset":82540,"byteLength":20880,"target":34962,"byteStride":12},{"buffer":0,"byteOffset":103420,"byteLength":13920,"target":34962,"byteStride":8},{"buffer":0,"byteOffset":117340,"byteLength":5112,"target":34963},{"buffer":0,"byteOffset":122452,"byteLength":34944,"target":34962,"byteStride":12},{"buffer":0,"byteOffset":157396,"byteLength":34944,"target":34962,"byteStride":12},{"buffer":0,"byteOffset":192340,"byteLength":23296,"target":34962,"byteStride":8},{"buffer":0,"byteOffset":215636,"byteLength":8592,"target":34963}],"buffers":[{"byteLength":224228,"uri":"data:application/octet-stream;base64,"}],"accessors":[{"bufferView":0,"componentType":5126,"count":1766,"max":[2.265502452850342,2.1822268962860107,2.1778292655944824],"min":[-2.817411184310913,-0.3857418894767761,-2.296875],"type":"VEC3"},{"bufferView":1,"componentType":5126,"count":1766,"max":[1,1,1],"min":[-1,-1,-1],"type":"VEC3"},{"bufferView":2,"componentType":5126,"count":1766,"max":[0.9509791135787964,0.87890625],"min":[0,0],"type":"VEC2"},{"bufferView":3,"componentType":5123,"count":2574,"max":[1765],"min":[0],"type":"SCALAR"},{"bufferView":4,"componentType":5126,"count":1740,"max":[1.1174999475479126,1.3105770349502563,1.1174999475479126],"min":[-1.1174999475479126,-0.005673000123351812,-1.1174999475479126],"type":"VEC3"},{"bufferView":5,"componentType":5126,"count":1740,"max":[1,1,1],"min":[-1,-1,-1],"type":"VEC3"},{"bufferView":6,"componentType":5126,"count":1740,"max":[0.8864972591400146,0.79296875],"min":[0,0],"type":"VEC2"},{"bufferView":7,"componentType":5123,"count":2556,"max":[1739],"min":[0],"type":"SCALAR"},{"bufferView":8,"componentType":5126,"count":2912,"max":[2.0747156143188477,2.2417287826538086,2.0539228916168213],"min":[-2.032972574234009,0.004853812512010336,-2.053765296936035],"type":"VEC3"},{"bufferView":9,"componentType":5126,"count":2912,"max":[0.9999867081642151,1,0.9999867081642151],"min":[-0.9999867081642151,-1,-0.9999867081642151],"type":"VEC3"},{"bufferView":10,"componentType":5126,"count":2912,"max":[0.8864972591400146,0.79296875],"min":[0,0],"type":"VEC2"},{"bufferView":11,"componentType":5123,"count":4296,"max":[2911],"min":[0],"type":"SCALAR"}],"materials":[{"pbrMetallicRoughness":{"metallicFactor":0,"roughnessFactor":1,"baseColorTexture":{"index":0}},"alphaMode":"MASK","alphaCutoff":0.05,"doubleSided":true},{"pbrMetallicRoughness":{"metallicFactor":0,"roughnessFactor":1,"baseColorTexture":{"index":1}},"alphaMode":"MASK","alphaCutoff":0.05,"doubleSided":true},{"pbrMetallicRoughness":{"metallicFactor":0,"roughnessFactor":1,"baseColorTexture":{"index":2}},"alphaMode":"MASK","alphaCutoff":0.05,"doubleSided":true}],"textures":[{"sampler":0,"source":0,"name":"W.house_yellow_texture.png"},{"sampler":1,"source":1,"name":"F.sphere_2_texture.png"},{"sampler":2,"source":2,"name":"F.sphere_1_texture.png"}],"samplers":[{"magFilter":9728,"minFilter":9728,"wrapS":33071,"wrapT":33071},{"magFilter":9728,"minFilter":9728,"wrapS":33071,"wrapT":33071},{"magFilter":9728,"minFilter":9728,"wrapS":33071,"wrapT":33071}],"images":[{"mimeType":"image/png","uri":"data:image/png;base64,"},{"mimeType":"image/png","uri":"data:image/png;base64,"},{"mimeType":"image/png","uri":"data:image/png;base64,"}],"meshes":[{"primitives":[{"mode":4,"attributes":{"POSITION":0,"NORMAL":1,"TEXCOORD_0":2},"indices":3,"material":0}]},{"primitives":[{"mode":4,"attributes":{"POSITION":4,"NORMAL":5,"TEXCOORD_0":6},"indices":7,"material":1}]},{"primitives":[{"mode":4,"attributes":{"POSITION":8,"NORMAL":9,"TEXCOORD_0":10},"indices":11,"material":2}]}]}