{"asset":{"version":"2.0","generator":"Blockbench 4.12.3 glTF exporter"},"scenes":[{"nodes":[1],"name":"blockbench_export"}],"scene":0,"nodes":[{"rotation":[0.6581578160366538,-0.017816285993054938,0.1049714211443174,0.7453132696297698],"translation":[0.6849621456110255,7.919607919515327,0.3963052477811929],"name":"S3","mesh":0},{"children":[0]}],"bufferViews":[{"buffer":0,"byteOffset":0,"byteLength":9936,"target":34962,"byteStride":12},{"buffer":0,"byteOffset":9936,"byteLength":9936,"target":34962,"byteStride":12},{"buffer":0,"byteOffset":19872,"byteLength":6624,"target":34962,"byteStride":8},{"buffer":0,"byteOffset":26496,"byteLength":2244,"target":34963}],"buffers":[{"byteLength":28740,"uri":"data:application/octet-stream;base64,"}],"accessors":[{"bufferView":0,"componentType":5126,"count":828,"max":[1.2793734073638916,1.8827866315841675,8.664040565490723],"min":[-3.621877908706665,-3.3922526836395264,-3.435297966003418],"type":"VEC3"},{"bufferView":1,"componentType":5126,"count":828,"max":[0.9946901202201843,0.9975504875183105,0.9860103130340576],"min":[-0.9979435801506042,-0.9929674863815308,-0.9862407445907593],"type":"VEC3"},{"bufferView":2,"componentType":5126,"count":828,"max":[0.4994140565395355,0.5005859136581421],"min":[0,0],"type":"VEC2"},{"bufferView":3,"componentType":5123,"count":1122,"max":[827],"min":[0],"type":"SCALAR"}],"materials":[{"pbrMetallicRoughness":{"metallicFactor":0,"roughnessFactor":1,"baseColorTexture":{"index":0}},"alphaMode":"MASK","alphaCutoff":0.05,"doubleSided":true}],"textures":[{"sampler":0,"source":0,"name":"ntotree 1_texture_2.png"}],"samplers":[{"magFilter":9728,"minFilter":9728,"wrapS":33071,"wrapT":33071}],"images":[{"mimeType":"image/png","uri":"data:image/png;base64,"}],"meshes":[{"primitives":[{"mode":4,"attributes":{"POSITION":0,"NORMAL":1,"TEXCOORD_0":2},"indices":3,"material":0}]}]}