{"asset":{"version":"2.0","generator":"Blockbench 4.12.3 glTF exporter"},"scenes":[{"nodes":[1],"name":"blockbench_export"}],"scene":0,"nodes":[{"rotation":[-0.10779189370825235,0.035768115025412994,-0.03312688639612153,0.9929774211914469],"translation":[0.1328383702035305,5.480410736154692,-1.8928891649931603],"name":"sphere","mesh":0},{"children":[0]}],"bufferViews":[{"buffer":0,"byteOffset":0,"byteLength":6336,"target":34962,"byteStride":12},{"buffer":0,"byteOffset":6336,"byteLength":6336,"target":34962,"byteStride":12},{"buffer":0,"byteOffset":12672,"byteLength":4224,"target":34962,"byteStride":8},{"buffer":0,"byteOffset":16896,"byteLength":1476,"target":34963}],"buffers":[{"byteLength":18372,"uri":"data:application/octet-stream;base64,"}],"accessors":[{"bufferView":0,"componentType":5126,"count":528,"max":[1.7092008590698242,0.22771650552749634,2.9006166458129883],"min":[-1.8034824132919312,-6.575519561767578,-1.2193323373794556],"type":"VEC3"},{"bufferView":1,"componentType":5126,"count":528,"max":[0.9974542856216431,0.9886683225631714,0.9853091835975647],"min":[-0.9552814364433289,-0.9912391304969788,-0.9738757014274597],"type":"VEC3"},{"bufferView":2,"componentType":5126,"count":528,"max":[0.69140625,0.68359375],"min":[0,0],"type":"VEC2"},{"bufferView":3,"componentType":5123,"count":738,"max":[527],"min":[0],"type":"SCALAR"}],"materials":[{"pbrMetallicRoughness":{"metallicFactor":0,"roughnessFactor":1,"baseColorTexture":{"index":0}},"alphaMode":"MASK","alphaCutoff":0.05,"doubleSided":true}],"textures":[{"sampler":0,"source":0,"name":"Tactics tree 1_texture.png"}],"samplers":[{"magFilter":9728,"minFilter":9728,"wrapS":33071,"wrapT":33071}],"images":[{"mimeType":"image/png","uri":"data:image/png;base64,"}],"meshes":[{"primitives":[{"mode":4,"attributes":{"POSITION":0,"NORMAL":1,"TEXCOORD_0":2},"indices":3,"material":0}]}]}