{"asset":{"version":"2.0","generator":"Blockbench 4.12.3 glTF exporter"},"scenes":[{"nodes":[1],"name":"blockbench_export"}],"scene":0,"nodes":[{"rotation":[0.6408563820557885,0.2988362387301198,-0.18301270189221933,0.6830127018922194],"translation":[0.8315501786138941,9.263901879780514,-0.21710889440177072],"name":"S1","mesh":0},{"children":[0]}],"bufferViews":[{"buffer":0,"byteOffset":0,"byteLength":10404,"target":34962,"byteStride":12},{"buffer":0,"byteOffset":10404,"byteLength":10404,"target":34962,"byteStride":12},{"buffer":0,"byteOffset":20808,"byteLength":6936,"target":34962,"byteStride":8},{"buffer":0,"byteOffset":27744,"byteLength":2360,"target":34963}],"buffers":[{"byteLength":30104,"uri":"data:application/octet-stream;base64,"}],"accessors":[{"bufferView":0,"componentType":5126,"count":867,"max":[1.5759613513946533,2.1799423694610596,10.192989349365234],"min":[-4.32771635055542,-3.9908854961395264,-4.053018093109131],"type":"VEC3"},{"bufferView":1,"componentType":5126,"count":867,"max":[0.9946901202201843,0.9975504875183105,0.9860103130340576],"min":[-0.9979435801506042,-0.9929674863815308,-0.9862407445907593],"type":"VEC3"},{"bufferView":2,"componentType":5126,"count":867,"max":[0.4994140565395355,0.5005859136581421],"min":[0,0],"type":"VEC2"},{"bufferView":3,"componentType":5123,"count":1179,"max":[866],"min":[0],"type":"SCALAR"}],"materials":[{"pbrMetallicRoughness":{"metallicFactor":0,"roughnessFactor":1,"baseColorTexture":{"index":0}},"alphaMode":"MASK","alphaCutoff":0.05,"doubleSided":true}],"textures":[{"sampler":0,"source":0,"name":"ntotree 1_texture_2.png"}],"samplers":[{"magFilter":9728,"minFilter":9728,"wrapS":33071,"wrapT":33071}],"images":[{"mimeType":"image/png","uri":"data:image/png;base64,"}],"meshes":[{"primitives":[{"mode":4,"attributes":{"POSITION":0,"NORMAL":1,"TEXCOORD_0":2},"indices":3,"material":0}]}]}