{"asset":{"version":"2.0","generator":"Blockbench 4.11.2 glTF exporter"},"scenes":[{"nodes":[1],"name":"blockbench_export"}],"scene":0,"nodes":[{"rotation":[-0.5687031450878948,-0.20344044041607964,-0.3053286151036279,0.7361814699986335],"translation":[1.1377092412609953,-0.11809420183939381,-1.4047224707701325],"name":"cylinder","mesh":0},{"children":[0]}],"bufferViews":[{"buffer":0,"byteOffset":0,"byteLength":17364,"target":34962,"byteStride":12},{"buffer":0,"byteOffset":17364,"byteLength":17364,"target":34962,"byteStride":12},{"buffer":0,"byteOffset":34728,"byteLength":11576,"target":34962,"byteStride":8},{"buffer":0,"byteOffset":46304,"byteLength":3920,"target":34963}],"buffers":[{"byteLength":50224,"uri":"data:application/octet-stream;base64,"}],"accessors":[{"bufferView":0,"componentType":5126,"count":1447,"max":[2.398012161254883,4.375579357147217,11.369889259338379],"min":[-6.432814598083496,-5.013498783111572,-0.7364745736122131],"type":"VEC3"},{"bufferView":1,"componentType":5126,"count":1447,"max":[0.998994767665863,0.9987380504608154,0.9996048212051392],"min":[-0.993308424949646,-1,-0.9912266731262207],"type":"VEC3"},{"bufferView":2,"componentType":5126,"count":1447,"max":[0.98046875,0.95703125],"min":[0,0],"type":"VEC2"},{"bufferView":3,"componentType":5123,"count":1959,"max":[1446],"min":[0],"type":"SCALAR"}],"materials":[{"pbrMetallicRoughness":{"metallicFactor":0,"roughnessFactor":1,"baseColorTexture":{"index":0}},"alphaMode":"MASK","alphaCutoff":0.05,"doubleSided":true}],"textures":[{"sampler":0,"source":0,"name":"Tactics tree 1_texture.png"}],"samplers":[{"magFilter":9728,"minFilter":9728,"wrapS":33071,"wrapT":33071}],"images":[{"mimeType":"image/png","uri":"data:image/png;base64,"}],"meshes":[{"primitives":[{"mode":4,"attributes":{"POSITION":0,"NORMAL":1,"TEXCOORD_0":2},"indices":3,"material":0}]}]}