{"asset":{"version":"2.0","generator":"Blockbench 4.11.2 glTF exporter"},"scenes":[{"nodes":[1],"name":"blockbench_export"}],"scene":0,"nodes":[{"rotation":[-0.10779189370825235,0.035768115025412994,-0.03312688639612153,0.9929774211914469],"translation":[0.14555993044325424,5.480410736154692,-1.6733608869661565],"name":"sphere","mesh":0},{"children":[0]}],"bufferViews":[{"buffer":0,"byteOffset":0,"byteLength":19512,"target":34962,"byteStride":12},{"buffer":0,"byteOffset":19512,"byteLength":19512,"target":34962,"byteStride":12},{"buffer":0,"byteOffset":39024,"byteLength":13008,"target":34962,"byteStride":8},{"buffer":0,"byteOffset":52032,"byteLength":4404,"target":34963}],"buffers":[{"byteLength":56436,"uri":"data:application/octet-stream;base64,"}],"accessors":[{"bufferView":0,"componentType":5126,"count":1626,"max":[3.7747061252593994,3.477531671524048,5.61851167678833],"min":[-4.883084774017334,-6.7067694664001465,-1.7206306457519531],"type":"VEC3"},{"bufferView":1,"componentType":5126,"count":1626,"max":[0.9970861077308655,0.9981638193130493,0.997802734375],"min":[-0.9979428052902222,-0.9959954023361206,-0.9963721632957458],"type":"VEC3"},{"bufferView":2,"componentType":5126,"count":1626,"max":[0.98046875,0.95703125],"min":[0,0],"type":"VEC2"},{"bufferView":3,"componentType":5123,"count":2202,"max":[1625],"min":[0],"type":"SCALAR"}],"materials":[{"pbrMetallicRoughness":{"metallicFactor":0,"roughnessFactor":1,"baseColorTexture":{"index":0}},"alphaMode":"MASK","alphaCutoff":0.05,"doubleSided":true}],"textures":[{"sampler":0,"source":0,"name":"Tactics tree 1_texture.png"}],"samplers":[{"magFilter":9728,"minFilter":9728,"wrapS":33071,"wrapT":33071}],"images":[{"mimeType":"image/png","uri":"data:image/png;base64,"}],"meshes":[{"primitives":[{"mode":4,"attributes":{"POSITION":0,"NORMAL":1,"TEXCOORD_0":2},"indices":3,"material":0}]}]}