{"asset":{"version":"2.0","generator":"Blockbench 5.0.7 glTF exporter"},"scenes":[{"nodes":[0],"name":"blockbench_export"}],"scene":0,"nodes":[{"rotation":[0,0.6087614290087207,0,0.7933533402912352],"name":"Bush","mesh":0}],"bufferViews":[{"buffer":0,"byteOffset":0,"byteLength":64512,"target":34962,"byteStride":12},{"buffer":0,"byteOffset":64512,"byteLength":64512,"target":34962,"byteStride":12},{"buffer":0,"byteOffset":129024,"byteLength":43008,"target":34962,"byteStride":8},{"buffer":0,"byteOffset":172032,"byteLength":15360,"target":34963}],"buffers":[{"byteLength":187392,"uri":"data:application/octet-stream;base64,"}],"accessors":[{"bufferView":0,"componentType":5126,"count":5376,"max":[1.9187500476837158,1.8624999523162842,2.450000047683716],"min":[-1.7625000476837158,-0.3062500059604645,-2.231250047683716],"type":"VEC3"},{"bufferView":1,"componentType":5126,"count":5376,"max":[0.9998917579650879,0.9971129894256592,0.9998917579650879],"min":[-0.9999215006828308,-0.9925910234451294,-0.9998917579650879],"type":"VEC3"},{"bufferView":2,"componentType":5126,"count":5376,"max":[0.847379207611084,0.07388317584991455],"min":[0.5283203125,0.041015625],"type":"VEC2"},{"bufferView":3,"componentType":5123,"count":7680,"max":[5375],"min":[0],"type":"SCALAR"}],"materials":[{"pbrMetallicRoughness":{"metallicFactor":0,"roughnessFactor":1,"baseColorTexture":{"index":0}},"alphaMode":"MASK","alphaCutoff":0.05,"doubleSided":true}],"textures":[{"sampler":0,"source":0,"name":"W.Bush_texture.png"}],"samplers":[{"magFilter":9728,"minFilter":9728,"wrapS":33071,"wrapT":33071}],"images":[{"mimeType":"image/png","uri":"data:image/png;base64,"}],"meshes":[{"primitives":[{"mode":4,"attributes":{"POSITION":0,"NORMAL":1,"TEXCOORD_0":2},"indices":3,"material":0}]}]}