{"asset":{"version":"2.0","generator":"Blockbench 5.0.7 glTF exporter"},"scenes":[{"nodes":[0],"name":"blockbench_export"}],"scene":0,"nodes":[{"name":"Log","mesh":0}],"bufferViews":[{"buffer":0,"byteOffset":0,"byteLength":6156,"target":34962,"byteStride":12},{"buffer":0,"byteOffset":6156,"byteLength":6156,"target":34962,"byteStride":12},{"buffer":0,"byteOffset":12312,"byteLength":4104,"target":34962,"byteStride":8},{"buffer":0,"byteOffset":16416,"byteLength":1424,"target":34963}],"buffers":[{"byteLength":17840,"uri":"data:application/octet-stream;base64,"}],"accessors":[{"bufferView":0,"componentType":5126,"count":513,"max":[0.4997537434101105,3.1846094131469727,0.43738090991973877],"min":[-0.3928578794002533,2.0135765075683594,-0.4251191020011902],"type":"VEC3"},{"bufferView":1,"componentType":5126,"count":513,"max":[0.9504836201667786,0.3793981075286865,1],"min":[-0.9699524641036987,-1,-1],"type":"VEC3"},{"bufferView":2,"componentType":5126,"count":513,"max":[0.2060546875,0.5034944415092468],"min":[0.0654296875,0.369719922542572],"type":"VEC2"},{"bufferView":3,"componentType":5123,"count":711,"max":[512],"min":[0],"type":"SCALAR"}],"materials":[{"pbrMetallicRoughness":{"metallicFactor":0,"roughnessFactor":1,"baseColorTexture":{"index":0}},"alphaMode":"MASK","alphaCutoff":0.05,"doubleSided":true}],"textures":[{"sampler":0,"source":0,"name":"W.Trees_texture.png"}],"samplers":[{"magFilter":9728,"minFilter":9728,"wrapS":33071,"wrapT":33071}],"images":[{"mimeType":"image/png","uri":"data:image/png;base64,"}],"meshes":[{"primitives":[{"mode":4,"attributes":{"POSITION":0,"NORMAL":1,"TEXCOORD_0":2},"indices":3,"material":0}]}]}