{"asset":{"version":"2.0","generator":"Blockbench 5.0.7 glTF exporter"},"scenes":[{"nodes":[0,1,2,3],"name":"blockbench_export"}],"scene":0,"nodes":[{"rotation":[0,-0.46174861323503386,0,0.8870108331782217],"translation":[-1.343608125,0,2.480304375],"name":"R1","mesh":0},{"rotation":[-0.1921598269017142,-0.02870904102377379,0.022835028120344946,0.9806778030420295],"translation":[-2.312296875,0,0.275434375],"name":"R2","mesh":1},{"rotation":[-0.06515428554103726,-0.005700288299579992,0.0869691043251112,0.9940617690474907],"translation":[0.020356875,0,0.015110625],"name":"R3","mesh":2},{"rotation":[0,0,0.08715574274765817,0.9961946980917455],"translation":[3.322025,0,0.0063],"name":"R4","mesh":3}],"bufferViews":[{"buffer":0,"byteOffset":0,"byteLength":1608,"target":34962,"byteStride":12},{"buffer":0,"byteOffset":1608,"byteLength":1608,"target":34962,"byteStride":12},{"buffer":0,"byteOffset":3216,"byteLength":1072,"target":34962,"byteStride":8},{"buffer":0,"byteOffset":4288,"byteLength":336,"target":34963},{"buffer":0,"byteOffset":4624,"byteLength":1608,"target":34962,"byteStride":12},{"buffer":0,"byteOffset":6232,"byteLength":1608,"target":34962,"byteStride":12},{"buffer":0,"byteOffset":7840,"byteLength":1072,"target":34962,"byteStride":8},{"buffer":0,"byteOffset":8912,"byteLength":336,"target":34963},{"buffer":0,"byteOffset":9248,"byteLength":1656,"target":34962,"byteStride":12},{"buffer":0,"byteOffset":10904,"byteLength":1656,"target":34962,"byteStride":12},{"buffer":0,"byteOffset":12560,"byteLength":1104,"target":34962,"byteStride":8},{"buffer":0,"byteOffset":13664,"byteLength":384,"target":34963},{"buffer":0,"byteOffset":14048,"byteLength":2424,"target":34962,"byteStride":12},{"buffer":0,"byteOffset":16472,"byteLength":2424,"target":34962,"byteStride":12},{"buffer":0,"byteOffset":18896,"byteLength":1616,"target":34962,"byteStride":8},{"buffer":0,"byteOffset":20512,"byteLength":576,"target":34963}],"buffers":[{"byteLength":21088,"uri":"data:application/octet-stream;base64,"}],"accessors":[{"bufferView":0,"componentType":5126,"count":134,"max":[0.6342931389808655,0.7644468545913696,0.8404231071472168],"min":[-0.7170912623405457,-0.426983118057251,-0.928436279296875],"type":"VEC3"},{"bufferView":1,"componentType":5126,"count":134,"max":[0.9751640558242798,0.9657161831855774,0.884429395198822],"min":[-0.9505330920219421,-0.9875277876853943,-0.8895897269248962],"type":"VEC3"},{"bufferView":2,"componentType":5126,"count":134,"max":[0.7917344570159912,0.6015658378601074],"min":[0.08869312703609467,0.546875],"type":"VEC2"},{"bufferView":3,"componentType":5123,"count":168,"max":[133],"min":[0],"type":"SCALAR"},{"bufferView":4,"componentType":5126,"count":134,"max":[0.9125881195068359,1.2825137376785278,1.2440325021743774],"min":[-1.0179612636566162,-0.8302425146102905,-1.2829087972640991],"type":"VEC3"},{"bufferView":5,"componentType":5126,"count":134,"max":[0.9833762049674988,0.9485834240913391,0.9173631072044373],"min":[-0.9669654369354248,-0.9809736609458923,-0.9012008905410767],"type":"VEC3"},{"bufferView":6,"componentType":5126,"count":134,"max":[0.7917344570159912,0.6015658378601074],"min":[0.08869312703609467,0.546875],"type":"VEC2"},{"bufferView":7,"componentType":5123,"count":168,"max":[133],"min":[0],"type":"SCALAR"},{"bufferView":8,"componentType":5126,"count":138,"max":[1.1774425506591797,1.7223525047302246,1.56571626663208],"min":[-1.1407443284988403,-0.5208768844604492,-1.136581301689148],"type":"VEC3"},{"bufferView":9,"componentType":5126,"count":138,"max":[0.9345651268959045,0.9881579279899597,0.899096667766571],"min":[-0.9605059623718262,-1,-0.95960533618927],"type":"VEC3"},{"bufferView":10,"componentType":5126,"count":138,"max":[0.7809348702430725,0.6121898293495178],"min":[0.11878937482833862,0.5703125],"type":"VEC2"},{"bufferView":11,"componentType":5123,"count":192,"max":[137],"min":[0],"type":"SCALAR"},{"bufferView":12,"componentType":5126,"count":202,"max":[1.6542155742645264,1.9527587890625,1.5925137996673584],"min":[-1.5832843780517578,-1.0170481204986572,-1.6887362003326416],"type":"VEC3"},{"bufferView":13,"componentType":5126,"count":202,"max":[0.9777828454971313,0.9954832792282104,0.9552354216575623],"min":[-0.9050785303115845,-0.9947755932807922,-0.9309062957763672],"type":"VEC3"},{"bufferView":14,"componentType":5126,"count":202,"max":[0.7276443243026733,0.8222834467887878],"min":[0.10822288691997528,0.8062524795532227],"type":"VEC2"},{"bufferView":15,"componentType":5123,"count":288,"max":[201],"min":[0],"type":"SCALAR"}],"materials":[{"pbrMetallicRoughness":{"metallicFactor":0,"roughnessFactor":1,"baseColorTexture":{"index":0}},"alphaMode":"MASK","alphaCutoff":0.05,"doubleSided":true}],"textures":[{"sampler":0,"source":0,"name":"W.rocks_texture.png"}],"samplers":[{"magFilter":9728,"minFilter":9728,"wrapS":33071,"wrapT":33071}],"images":[{"mimeType":"image/png","uri":"data:image/png;base64,"}],"meshes":[{"primitives":[{"mode":4,"attributes":{"POSITION":0,"NORMAL":1,"TEXCOORD_0":2},"indices":3,"material":0}]},{"primitives":[{"mode":4,"attributes":{"POSITION":4,"NORMAL":5,"TEXCOORD_0":6},"indices":7,"material":0}]},{"primitives":[{"mode":4,"attributes":{"POSITION":8,"NORMAL":9,"TEXCOORD_0":10},"indices":11,"material":0}]},{"primitives":[{"mode":4,"attributes":{"POSITION":12,"NORMAL":13,"TEXCOORD_0":14},"indices":15,"material":0}]}]}