{"asset":{"version":"2.0","generator":"Blockbench 5.0.7 glTF exporter"},"scenes":[{"nodes":[2],"name":"blockbench_export"}],"scene":0,"nodes":[{"translation":[0.125,4.75,0],"name":"Stvol","mesh":0},{"translation":[0.125,4.75,0],"name":"Listva","mesh":1},{"translation":[-0.125,0,0],"name":"T1_","children":[0,1]}],"bufferViews":[{"buffer":0,"byteOffset":0,"byteLength":9840,"target":34962,"byteStride":12},{"buffer":0,"byteOffset":9840,"byteLength":9840,"target":34962,"byteStride":12},{"buffer":0,"byteOffset":19680,"byteLength":6560,"target":34962,"byteStride":8},{"buffer":0,"byteOffset":26240,"byteLength":2340,"target":34963},{"buffer":0,"byteOffset":28580,"byteLength":43776,"target":34962,"byteStride":12},{"buffer":0,"byteOffset":72356,"byteLength":43776,"target":34962,"byteStride":12},{"buffer":0,"byteOffset":116132,"byteLength":29184,"target":34962,"byteStride":8},{"buffer":0,"byteOffset":145316,"byteLength":10368,"target":34963}],"buffers":[{"byteLength":155684,"uri":"data:application/octet-stream;base64,"}],"accessors":[{"bufferView":0,"componentType":5126,"count":820,"max":[1.479082465171814,2.7673792839050293,0.6693006157875061],"min":[-0.79339998960495,-4.753920555114746,-0.669448733329773],"type":"VEC3"},{"bufferView":1,"componentType":5126,"count":820,"max":[0.9875940084457397,0.9632205367088318,0.9998337626457214],"min":[-0.9832772612571716,-1,-0.9998337626457214],"type":"VEC3"},{"bufferView":2,"componentType":5126,"count":820,"max":[0.11855234205722809,0.4296875],"min":[0.0654296875,0.357421875],"type":"VEC2"},{"bufferView":3,"componentType":5123,"count":1170,"max":[819],"min":[0],"type":"SCALAR"},{"bufferView":4,"componentType":5126,"count":3648,"max":[3.6654269695281982,3.6642043590545654,3.3989038467407227],"min":[-3.270366907119751,-1.6253893375396729,-3.1070306301116943],"type":"VEC3"},{"bufferView":5,"componentType":5126,"count":3648,"max":[0.9990182518959045,0.9977699518203735,0.9997592568397522],"min":[-0.9999433755874634,-0.9983118176460266,-0.999787449836731],"type":"VEC3"},{"bufferView":6,"componentType":5126,"count":3648,"max":[0.2691124677658081,0.052734375],"min":[0.0166015625,0.0185546875],"type":"VEC2"},{"bufferView":7,"componentType":5123,"count":5184,"max":[3647],"min":[0],"type":"SCALAR"}],"materials":[{"pbrMetallicRoughness":{"metallicFactor":0,"roughnessFactor":1,"baseColorTexture":{"index":0}},"alphaMode":"MASK","alphaCutoff":0.05,"doubleSided":true}],"textures":[{"sampler":0,"source":0,"name":"W.Trees_texture.png"}],"samplers":[{"magFilter":9728,"minFilter":9728,"wrapS":33071,"wrapT":33071}],"images":[{"mimeType":"image/png","uri":"data:image/png;base64,"}],"meshes":[{"primitives":[{"mode":4,"attributes":{"POSITION":0,"NORMAL":1,"TEXCOORD_0":2},"indices":3,"material":0}]},{"primitives":[{"mode":4,"attributes":{"POSITION":4,"NORMAL":5,"TEXCOORD_0":6},"indices":7,"material":0}]}]}