{"asset":{"version":"2.0","generator":"Blockbench 5.0.7 glTF exporter"},"scenes":[{"nodes":[2],"name":"blockbench_export"}],"scene":0,"nodes":[{"rotation":[0,0.3420201433256687,0,0.9396926207859084],"translation":[0,-11.625,0],"name":"Stvol","mesh":0},{"rotation":[0,0.3420201433256687,0,0.9396926207859084],"name":"Listva","mesh":1},{"rotation":[0,0.5555702330196022,0,0.8314696123025452],"translation":[-0.09306375,11.625,0.2180975],"name":"group","children":[0,1]}],"bufferViews":[{"buffer":0,"byteOffset":0,"byteLength":11400,"target":34962,"byteStride":12},{"buffer":0,"byteOffset":11400,"byteLength":11400,"target":34962,"byteStride":12},{"buffer":0,"byteOffset":22800,"byteLength":7600,"target":34962,"byteStride":8},{"buffer":0,"byteOffset":30400,"byteLength":2700,"target":34963},{"buffer":0,"byteOffset":33100,"byteLength":72960,"target":34962,"byteStride":12},{"buffer":0,"byteOffset":106060,"byteLength":72960,"target":34962,"byteStride":12},{"buffer":0,"byteOffset":179020,"byteLength":48640,"target":34962,"byteStride":8},{"buffer":0,"byteOffset":227660,"byteLength":17280,"target":34963}],"buffers":[{"byteLength":244940,"uri":"data:application/octet-stream;base64,"}],"accessors":[{"bufferView":0,"componentType":5126,"count":950,"max":[3.009786367416382,12.329999923706055,1.0976662635803223],"min":[-2.2933199405670166,0,-1.1137499809265137],"type":"VEC3"},{"bufferView":1,"componentType":5126,"count":950,"max":[0.9784938097000122,0.9662057757377625,0.9998337626457214],"min":[-0.9832780361175537,-1,-0.9998337626457214],"type":"VEC3"},{"bufferView":2,"componentType":5126,"count":950,"max":[0.11757577955722809,0.4296875],"min":[0.0654296875,0.357421875],"type":"VEC2"},{"bufferView":3,"componentType":5123,"count":1350,"max":[949],"min":[0],"type":"SCALAR"},{"bufferView":4,"componentType":5126,"count":6080,"max":[5.831214427947998,1.350000023841858,4.6757330894470215],"min":[-5.101858139038086,-7.101949214935303,-5.070565700531006],"type":"VEC3"},{"bufferView":5,"componentType":5126,"count":6080,"max":[0.9997072815895081,0.9999599456787109,0.9998626112937927],"min":[-0.9993069767951965,-0.9996953010559082,-0.9998624324798584],"type":"VEC3"},{"bufferView":6,"componentType":5126,"count":6080,"max":[0.2691124677658081,0.052734375],"min":[0.0166015625,0.0185546875],"type":"VEC2"},{"bufferView":7,"componentType":5123,"count":8640,"max":[6079],"min":[0],"type":"SCALAR"}],"materials":[{"pbrMetallicRoughness":{"metallicFactor":0,"roughnessFactor":1,"baseColorTexture":{"index":0}},"alphaMode":"MASK","alphaCutoff":0.05,"doubleSided":true}],"textures":[{"sampler":0,"source":0,"name":"W.Trees_texture.png"}],"samplers":[{"magFilter":9728,"minFilter":9728,"wrapS":33071,"wrapT":33071}],"images":[{"mimeType":"image/png","uri":"data:image/png;base64,"}],"meshes":[{"primitives":[{"mode":4,"attributes":{"POSITION":0,"NORMAL":1,"TEXCOORD_0":2},"indices":3,"material":0}]},{"primitives":[{"mode":4,"attributes":{"POSITION":4,"NORMAL":5,"TEXCOORD_0":6},"indices":7,"material":0}]}]}