{"asset":{"version":"2.0","generator":"Blockbench 5.0.7 glTF exporter"},"scenes":[{"nodes":[2],"name":"blockbench_export"}],"scene":0,"nodes":[{"translation":[0.0071725,-0.01179125,0.0074375],"name":"Stvol","mesh":0},{"rotation":[0,0,0.02181488503456112,0.9997620270799091],"translation":[0,5.3125,0],"name":"Listva","mesh":1},{"translation":[0,0.01179125,0],"name":"T3","children":[0,1]}],"bufferViews":[{"buffer":0,"byteOffset":0,"byteLength":6840,"target":34962,"byteStride":12},{"buffer":0,"byteOffset":6840,"byteLength":6840,"target":34962,"byteStride":12},{"buffer":0,"byteOffset":13680,"byteLength":4560,"target":34962,"byteStride":8},{"buffer":0,"byteOffset":18240,"byteLength":1620,"target":34963},{"buffer":0,"byteOffset":19860,"byteLength":15768,"target":34962,"byteStride":12},{"buffer":0,"byteOffset":35628,"byteLength":15768,"target":34962,"byteStride":12},{"buffer":0,"byteOffset":51396,"byteLength":10512,"target":34962,"byteStride":8},{"buffer":0,"byteOffset":61908,"byteLength":3396,"target":34963}],"buffers":[{"byteLength":65304,"uri":"data:application/octet-stream;base64,"}],"accessors":[{"bufferView":0,"componentType":5126,"count":570,"max":[0.6552762389183044,8.169500350952148,0.6367499828338623],"min":[-0.6552762389183044,0,-0.6682500243186951],"type":"VEC3"},{"bufferView":1,"componentType":5126,"count":570,"max":[0.9788260459899902,0.6508525609970093,0.9998636841773987],"min":[-0.9847970008850098,-1,-0.9998636841773987],"type":"VEC3"},{"bufferView":2,"componentType":5126,"count":570,"max":[0.11757577955722809,0.4296875],"min":[0.0654296875,0.36871039867401123],"type":"VEC2"},{"bufferView":3,"componentType":5123,"count":810,"max":[569],"min":[0],"type":"SCALAR"},{"bufferView":4,"componentType":5126,"count":1314,"max":[1.9068249464035034,3.6776180267333984,2.047238826751709],"min":[-2.150648832321167,-3.2730705738067627,-2.0309219360351562],"type":"VEC3"},{"bufferView":5,"componentType":5126,"count":1314,"max":[0.9589224457740784,0.7531235218048096,0.9372177720069885],"min":[-0.9231690168380737,-1,-0.9243970513343811],"type":"VEC3"},{"bufferView":6,"componentType":5126,"count":1314,"max":[0.4891357123851776,0.29106348752975464],"min":[0.16533277928829193,0.20156562328338623],"type":"VEC2"},{"bufferView":7,"componentType":5123,"count":1698,"max":[1313],"min":[0],"type":"SCALAR"}],"materials":[{"pbrMetallicRoughness":{"metallicFactor":0,"roughnessFactor":1,"baseColorTexture":{"index":0}},"alphaMode":"MASK","alphaCutoff":0.05,"doubleSided":true}],"textures":[{"sampler":0,"source":0,"name":"W.Trees_texture.png"}],"samplers":[{"magFilter":9728,"minFilter":9728,"wrapS":33071,"wrapT":33071}],"images":[{"mimeType":"image/png","uri":"data:image/png;base64,"}],"meshes":[{"primitives":[{"mode":4,"attributes":{"POSITION":0,"NORMAL":1,"TEXCOORD_0":2},"indices":3,"material":0}]},{"primitives":[{"mode":4,"attributes":{"POSITION":4,"NORMAL":5,"TEXCOORD_0":6},"indices":7,"material":0}]}]}