{"asset":{"version":"2.0","generator":"Blockbench 5.0.7 glTF exporter"},"scenes":[{"nodes":[2],"name":"blockbench_export"}],"scene":0,"nodes":[{"name":"stvol","mesh":0},{"rotation":[0,0,0.02181488503456112,0.9997620270799091],"translation":[-0.00044687499999999936,12.975,-0.001604375],"name":"Listva","mesh":1},{"translation":[0.00452,0,0.01239625],"name":"T4","children":[0,1]}],"bufferViews":[{"buffer":0,"byteOffset":0,"byteLength":6840,"target":34962,"byteStride":12},{"buffer":0,"byteOffset":6840,"byteLength":6840,"target":34962,"byteStride":12},{"buffer":0,"byteOffset":13680,"byteLength":4560,"target":34962,"byteStride":8},{"buffer":0,"byteOffset":18240,"byteLength":1620,"target":34963},{"buffer":0,"byteOffset":19860,"byteLength":23688,"target":34962,"byteStride":12},{"buffer":0,"byteOffset":43548,"byteLength":23688,"target":34962,"byteStride":12},{"buffer":0,"byteOffset":67236,"byteLength":15792,"target":34962,"byteStride":8},{"buffer":0,"byteOffset":83028,"byteLength":5100,"target":34963}],"buffers":[{"byteLength":88128,"uri":"data:application/octet-stream;base64,"}],"accessors":[{"bufferView":0,"componentType":5126,"count":570,"max":[1.0921274423599243,14.970000267028809,1.0612499713897705],"min":[-1.0921274423599243,0,-1.1137499809265137],"type":"VEC3"},{"bufferView":1,"componentType":5126,"count":570,"max":[0.9790871143341064,0.6149014830589294,0.999887228012085],"min":[-0.9859982132911682,-1,-0.999887228012085],"type":"VEC3"},{"bufferView":2,"componentType":5126,"count":570,"max":[0.11757577955722809,0.4296875],"min":[0.0654296875,0.36871039867401123],"type":"VEC2"},{"bufferView":3,"componentType":5123,"count":810,"max":[569],"min":[0],"type":"SCALAR"},{"bufferView":4,"componentType":5126,"count":1974,"max":[2.927314281463623,3.5999999046325684,3.3534936904907227],"min":[-3.730276346206665,-9.85398006439209,-3.350996255874634],"type":"VEC3"},{"bufferView":5,"componentType":5126,"count":1974,"max":[0.9589224457740784,0.7531226873397827,0.9372180700302124],"min":[-0.9231691360473633,-1,-0.924396812915802],"type":"VEC3"},{"bufferView":6,"componentType":5126,"count":1974,"max":[0.490827739238739,0.29106348752975464],"min":[0.1591918170452118,0.20156562328338623],"type":"VEC2"},{"bufferView":7,"componentType":5123,"count":2550,"max":[1973],"min":[0],"type":"SCALAR"}],"materials":[{"pbrMetallicRoughness":{"metallicFactor":0,"roughnessFactor":1,"baseColorTexture":{"index":0}},"alphaMode":"MASK","alphaCutoff":0.05,"doubleSided":true}],"textures":[{"sampler":0,"source":0,"name":"W.Trees_texture.png"}],"samplers":[{"magFilter":9728,"minFilter":9728,"wrapS":33071,"wrapT":33071}],"images":[{"mimeType":"image/png","uri":"data:image/png;base64,"}],"meshes":[{"primitives":[{"mode":4,"attributes":{"POSITION":0,"NORMAL":1,"TEXCOORD_0":2},"indices":3,"material":0}]},{"primitives":[{"mode":4,"attributes":{"POSITION":4,"NORMAL":5,"TEXCOORD_0":6},"indices":7,"material":0}]}]}