{"asset":{"version":"2.0","generator":"Blockbench 5.0.7 glTF exporter"},"scenes":[{"nodes":[0],"name":"blockbench_export"}],"scene":0,"nodes":[{"rotation":[0.031509091148350044,-0.2646305438436102,-0.7216762150647975,0.638875021463344],"name":"T5","mesh":0}],"bufferViews":[{"buffer":0,"byteOffset":0,"byteLength":10320,"target":34962,"byteStride":12},{"buffer":0,"byteOffset":10320,"byteLength":10320,"target":34962,"byteStride":12},{"buffer":0,"byteOffset":20640,"byteLength":6880,"target":34962,"byteStride":8},{"buffer":0,"byteOffset":27520,"byteLength":2484,"target":34963}],"buffers":[{"byteLength":30004,"uri":"data:application/octet-stream;base64,"}],"accessors":[{"bufferView":0,"componentType":5126,"count":860,"max":[0.32889437675476074,3.328579902648926,1.074874997138977],"min":[-1.4185093641281128,-3.330198049545288,-0.6651250123977661],"type":"VEC3"},{"bufferView":1,"componentType":5126,"count":860,"max":[0.9790874123573303,1,0.999887228012085],"min":[-0.9859980344772339,-0.9841045141220093,-0.999887228012085],"type":"VEC3"},{"bufferView":2,"componentType":5126,"count":860,"max":[0.1461174637079239,0.4625241160392761],"min":[0.05859375,0.36871039867401123],"type":"VEC2"},{"bufferView":3,"componentType":5123,"count":1242,"max":[859],"min":[0],"type":"SCALAR"}],"materials":[{"pbrMetallicRoughness":{"metallicFactor":0,"roughnessFactor":1,"baseColorTexture":{"index":0}},"alphaMode":"MASK","alphaCutoff":0.05,"doubleSided":true}],"textures":[{"sampler":0,"source":0,"name":"W.Trees_texture.png"}],"samplers":[{"magFilter":9728,"minFilter":9728,"wrapS":33071,"wrapT":33071}],"images":[{"mimeType":"image/png","uri":"data:image/png;base64,"}],"meshes":[{"primitives":[{"mode":4,"attributes":{"POSITION":0,"NORMAL":1,"TEXCOORD_0":2},"indices":3,"material":0}]}]}