{"asset":{"version":"2.0","generator":"Blockbench 5.0.4 glTF exporter"},"scenes":[{"nodes":[21],"name":"blockbench_export"}],"scene":0,"nodes":[{"translation":[-0.00020188214292251873,0.1844528943302532,0.21914283028300197],"name":"cuboid","mesh":0},{"translation":[0.003668683958798724,0.30510565381705357,-0.34944598041363995],"name":"cuboid","mesh":1},{"translation":[-0.000045242977293605286,-0.32800690383124453,0.7836283290421916],"name":"cuboid","mesh":2},{"translation":[-0.000045242977293605286,-0.32800690383124453,0.7836283290421916],"name":"cuboid","mesh":3},{"translation":[-0.000045242977293605286,-0.32800690383124453,-0.3288716709578091],"name":"cuboid","mesh":4},{"translation":[-0.000045242977293605286,-0.32800690383124453,-0.3288716709578091],"name":"cuboid","mesh":5},{"rotation":[0.70290397763847,-0.07698050545441132,0.0769805054544114,0.7029039776384708],"translation":[0.33745475702270644,0.10011809616875544,-0.7335591709578088],"name":"cylinder","mesh":6},{"rotation":[0.70290397763847,-0.07698050545441132,0.0769805054544114,0.7029039776384708],"translation":[0.39370475702270624,0.014180596168755333,-0.7226216709578088],"name":"cylinder","mesh":7},{"rotation":[0.70290397763847,0.07698050545441132,-0.0769805054544114,0.7029039776384708],"translation":[-0.3937952429772934,0.014180596168755333,-0.7226216709578088],"name":"cylinder","mesh":8},{"rotation":[0.70290397763847,0.07698050545441132,-0.0769805054544114,0.7029039776384708],"translation":[-0.3375452429772936,0.10011809616875544,-0.7335591709578088],"name":"cylinder","mesh":9},{"rotation":[0.7071067811865475,0,0,0.7071067811865476],"translation":[-0.00004524297729360102,0.031368096168755466,-0.7773091709578085],"name":"cylinder","mesh":10},{"rotation":[-0.7071067811865475,0,0,0.7071067811865476],"translation":[0.31661307235891123,0.035028489805209506,1.2201799513078195],"name":"cylinder","mesh":11},{"rotation":[-0.7071067811865475,0,0,0.7071067811865476],"translation":[-0.3167035583134984,0.035028489805209506,1.2201799513078195],"name":"cylinder","mesh":12},{"rotation":[0,0,0.7040147244559682,0.7101853756232854],"translation":[0.4280797570227061,-0.12488190383124453,-0.4726216709578087],"name":"weel_fr","mesh":13},{"rotation":[0,0,0.7040147244559682,0.7101853756232854],"translation":[0.4280797570227061,-0.12488190383124453,-0.4726216709578087],"name":"weel_fr","mesh":14},{"rotation":[0,0,-0.7040147244559682,0.7101853756232854],"translation":[-0.4281702429772933,-0.12488190383124453,-0.4726216709578087],"name":"weel_fr","mesh":15},{"rotation":[0,0,-0.7040147244559682,0.7101853756232854],"translation":[-0.4281702429772933,-0.12488190383124453,-0.4726216709578087],"name":"weel_fr","mesh":16},{"rotation":[-0.10886687485196457,0,0,0.9940563382223196],"translation":[-0.0000542273522936121,0.07900725318978713,-0.4751313791913706],"name":"cuboid","mesh":17},{"translation":[-0.0000542273522936121,-0.20224274681021287,0.47174362080862947],"name":"cuboid","mesh":18},{"translation":[-0.0000542273522936121,-0.20224274681021287,-0.10448696272424696],"name":"cuboid","mesh":19},{"translation":[-0.000045242977293605286,-0.31238190383124453,0.25862832904219124],"name":"cuboid","mesh":20},{"translation":[0.000045242977293605286,0.31238190383124453,-0.25862832904219124],"name":"Fiat_500","children":[0,1,2,3,4,5,6,7,8,9,10,11,12,13,14,15,16,17,18,19,20]}],"bufferViews":[{"buffer":0,"byteOffset":0,"byteLength":42456,"target":34962,"byteStride":12},{"buffer":0,"byteOffset":42456,"byteLength":42456,"target":34962,"byteStride":12},{"buffer":0,"byteOffset":84912,"byteLength":28304,"target":34962,"byteStride":8},{"buffer":0,"byteOffset":113216,"byteLength":10416,"target":34963},{"buffer":0,"byteOffset":123632,"byteLength":1464,"target":34962,"byteStride":12},{"buffer":0,"byteOffset":125096,"byteLength":1464,"target":34962,"byteStride":12},{"buffer":0,"byteOffset":126560,"byteLength":976,"target":34962,"byteStride":8},{"buffer":0,"byteOffset":127536,"byteLength":348,"target":34963},{"buffer":0,"byteOffset":127884,"byteLength":1920,"target":34962,"byteStride":12},{"buffer":0,"byteOffset":129804,"byteLength":1920,"target":34962,"byteStride":12},{"buffer":0,"byteOffset":131724,"byteLength":1280,"target":34962,"byteStride":8},{"buffer":0,"byteOffset":133004,"byteLength":480,"target":34963},{"buffer":0,"byteOffset":133484,"byteLength":1920,"target":34962,"byteStride":12},{"buffer":0,"byteOffset":135404,"byteLength":1920,"target":34962,"byteStride":12},{"buffer":0,"byteOffset":137324,"byteLength":1280,"target":34962,"byteStride":8},{"buffer":0,"byteOffset":138604,"byteLength":480,"target":34963},{"buffer":0,"byteOffset":139084,"byteLength":1920,"target":34962,"byteStride":12},{"buffer":0,"byteOffset":141004,"byteLength":1920,"target":34962,"byteStride":12},{"buffer":0,"byteOffset":142924,"byteLength":1280,"target":34962,"byteStride":8},{"buffer":0,"byteOffset":144204,"byteLength":480,"target":34963},{"buffer":0,"byteOffset":144684,"byteLength":1920,"target":34962,"byteStride":12},{"buffer":0,"byteOffset":146604,"byteLength":1920,"target":34962,"byteStride":12},{"buffer":0,"byteOffset":148524,"byteLength":1280,"target":34962,"byteStride":8},{"buffer":0,"byteOffset":149804,"byteLength":480,"target":34963},{"buffer":0,"byteOffset":150284,"byteLength":3744,"target":34962,"byteStride":12},{"buffer":0,"byteOffset":154028,"byteLength":3744,"target":34962,"byteStride":12},{"buffer":0,"byteOffset":157772,"byteLength":2496,"target":34962,"byteStride":8},{"buffer":0,"byteOffset":160268,"byteLength":864,"target":34963},{"buffer":0,"byteOffset":161132,"byteLength":2592,"target":34962,"byteStride":12},{"buffer":0,"byteOffset":163724,"byteLength":2592,"target":34962,"byteStride":12},{"buffer":0,"byteOffset":166316,"byteLength":1728,"target":34962,"byteStride":8},{"buffer":0,"byteOffset":168044,"byteLength":576,"target":34963},{"buffer":0,"byteOffset":168620,"byteLength":2592,"target":34962,"byteStride":12},{"buffer":0,"byteOffset":171212,"byteLength":2592,"target":34962,"byteStride":12},{"buffer":0,"byteOffset":173804,"byteLength":1728,"target":34962,"byteStride":8},{"buffer":0,"byteOffset":175532,"byteLength":576,"target":34963},{"buffer":0,"byteOffset":176108,"byteLength":3744,"target":34962,"byteStride":12},{"buffer":0,"byteOffset":179852,"byteLength":3744,"target":34962,"byteStride":12},{"buffer":0,"byteOffset":183596,"byteLength":2496,"target":34962,"byteStride":8},{"buffer":0,"byteOffset":186092,"byteLength":864,"target":34963},{"buffer":0,"byteOffset":186956,"byteLength":2016,"target":34962,"byteStride":12},{"buffer":0,"byteOffset":188972,"byteLength":2016,"target":34962,"byteStride":12},{"buffer":0,"byteOffset":190988,"byteLength":1344,"target":34962,"byteStride":8},{"buffer":0,"byteOffset":192332,"byteLength":432,"target":34963},{"buffer":0,"byteOffset":192764,"byteLength":2376,"target":34962,"byteStride":12},{"buffer":0,"byteOffset":195140,"byteLength":2376,"target":34962,"byteStride":12},{"buffer":0,"byteOffset":197516,"byteLength":1584,"target":34962,"byteStride":8},{"buffer":0,"byteOffset":199100,"byteLength":540,"target":34963},{"buffer":0,"byteOffset":199640,"byteLength":2376,"target":34962,"byteStride":12},{"buffer":0,"byteOffset":202016,"byteLength":2376,"target":34962,"byteStride":12},{"buffer":0,"byteOffset":204392,"byteLength":1584,"target":34962,"byteStride":8},{"buffer":0,"byteOffset":205976,"byteLength":540,"target":34963},{"buffer":0,"byteOffset":206516,"byteLength":14400,"target":34962,"byteStride":12},{"buffer":0,"byteOffset":220916,"byteLength":14400,"target":34962,"byteStride":12},{"buffer":0,"byteOffset":235316,"byteLength":9600,"target":34962,"byteStride":8},{"buffer":0,"byteOffset":244916,"byteLength":3456,"target":34963},{"buffer":0,"byteOffset":248372,"byteLength":14400,"target":34962,"byteStride":12},{"buffer":0,"byteOffset":262772,"byteLength":14400,"target":34962,"byteStride":12},{"buffer":0,"byteOffset":277172,"byteLength":9600,"target":34962,"byteStride":8},{"buffer":0,"byteOffset":286772,"byteLength":3456,"target":34963},{"buffer":0,"byteOffset":290228,"byteLength":14400,"target":34962,"byteStride":12},{"buffer":0,"byteOffset":304628,"byteLength":14400,"target":34962,"byteStride":12},{"buffer":0,"byteOffset":319028,"byteLength":9600,"target":34962,"byteStride":8},{"buffer":0,"byteOffset":328628,"byteLength":3456,"target":34963},{"buffer":0,"byteOffset":332084,"byteLength":14400,"target":34962,"byteStride":12},{"buffer":0,"byteOffset":346484,"byteLength":14400,"target":34962,"byteStride":12},{"buffer":0,"byteOffset":360884,"byteLength":9600,"target":34962,"byteStride":8},{"buffer":0,"byteOffset":370484,"byteLength":3456,"target":34963},{"buffer":0,"byteOffset":373940,"byteLength":1536,"target":34962,"byteStride":12},{"buffer":0,"byteOffset":375476,"byteLength":1536,"target":34962,"byteStride":12},{"buffer":0,"byteOffset":377012,"byteLength":1024,"target":34962,"byteStride":8},{"buffer":0,"byteOffset":378036,"byteLength":384,"target":34963},{"buffer":0,"byteOffset":378420,"byteLength":1344,"target":34962,"byteStride":12},{"buffer":0,"byteOffset":379764,"byteLength":1344,"target":34962,"byteStride":12},{"buffer":0,"byteOffset":381108,"byteLength":896,"target":34962,"byteStride":8},{"buffer":0,"byteOffset":382004,"byteLength":336,"target":34963},{"buffer":0,"byteOffset":382340,"byteLength":1344,"target":34962,"byteStride":12},{"buffer":0,"byteOffset":383684,"byteLength":1344,"target":34962,"byteStride":12},{"buffer":0,"byteOffset":385028,"byteLength":896,"target":34962,"byteStride":8},{"buffer":0,"byteOffset":385924,"byteLength":336,"target":34963},{"buffer":0,"byteOffset":386260,"byteLength":672,"target":34962,"byteStride":12},{"buffer":0,"byteOffset":386932,"byteLength":672,"target":34962,"byteStride":12},{"buffer":0,"byteOffset":387604,"byteLength":448,"target":34962,"byteStride":8},{"buffer":0,"byteOffset":388052,"byteLength":168,"target":34963}],"buffers":[{"byteLength":388220,"uri":"data:application/octet-stream;base64,"}],"accessors":[{"bufferView":0,"componentType":5126,"count":3538,"max":[0.4972981810569763,0.44534003734588623,1.0172892808914185],"min":[-0.49698489904403687,-0.3606249988079071,-1.0038200616836548],"type":"VEC3"},{"bufferView":1,"componentType":5126,"count":3538,"max":[1,0.9998965859413147,0.9994605779647827],"min":[-1,-1,-0.9999863505363464],"type":"VEC3"},{"bufferView":2,"componentType":5126,"count":3538,"max":[0.771484375,1],"min":[0,0],"type":"VEC2"},{"bufferView":3,"componentType":5123,"count":5208,"max":[3537],"min":[0],"type":"SCALAR"},{"bufferView":4,"componentType":5126,"count":122,"max":[0.34893080592155457,0.028852635994553566,0.027804557234048843],"min":[-0.35635867714881897,-0.15186698734760284,-0.4050867557525635],"type":"VEC3"},{"bufferView":5,"componentType":5126,"count":122,"max":[0.9285581111907959,0.9990243911743164,0.9327148199081421],"min":[-0.8152129054069519,-0.2040788233280182,-0.966302216053009],"type":"VEC3"},{"bufferView":6,"componentType":5126,"count":122,"max":[0.5428590774536133,0.995684027671814],"min":[0.000004439581516635371,0.0078125],"type":"VEC2"},{"bufferView":7,"componentType":5123,"count":174,"max":[121],"min":[0],"type":"SCALAR"},{"bufferView":8,"componentType":5126,"count":160,"max":[0.4226227104663849,0.30000001192092896,0.484375],"min":[0,0.24130727350711823,0.3464534282684326],"type":"VEC3"},{"bufferView":9,"componentType":5126,"count":160,"max":[0.9794560074806213,0.9746943712234497,0.9754824638366699],"min":[-1,-0.9746943712234497,-0.9918219447135925],"type":"VEC3"},{"bufferView":10,"componentType":5126,"count":160,"max":[0.16380085051059723,0.13284462690353394],"min":[0.000597219739574939,0.03125],"type":"VEC2"},{"bufferView":11,"componentType":5123,"count":240,"max":[159],"min":[0],"type":"SCALAR"},{"bufferView":12,"componentType":5126,"count":160,"max":[0,0.30000001192092896,0.484375],"min":[-0.4226227104663849,0.24130727350711823,0.3464534282684326],"type":"VEC3"},{"bufferView":13,"componentType":5126,"count":160,"max":[1,0.9746943712234497,0.9754824638366699],"min":[-0.9794560074806213,-0.9746943712234497,-0.9918219447135925],"type":"VEC3"},{"bufferView":14,"componentType":5126,"count":160,"max":[0.16380085051059723,0.13284462690353394],"min":[0.000597219739574939,0.03125],"type":"VEC2"},{"bufferView":15,"componentType":5123,"count":240,"max":[159],"min":[0],"type":"SCALAR"},{"bufferView":16,"componentType":5126,"count":160,"max":[0.4264008700847626,0.30000001192092896,-0.3795125484466553],"min":[0,0.24130727350711823,-0.484375],"type":"VEC3"},{"bufferView":17,"componentType":5126,"count":160,"max":[0.9250938892364502,0.9746943712234497,0.9918219447135925],"min":[-1,-0.9746943712234497,-0.9754824638366699],"type":"VEC3"},{"bufferView":18,"componentType":5126,"count":160,"max":[0.18098096549510956,0.125],"min":[0.05486249923706055,0.015625],"type":"VEC2"},{"bufferView":19,"componentType":5123,"count":240,"max":[159],"min":[0],"type":"SCALAR"},{"bufferView":20,"componentType":5126,"count":160,"max":[0,0.30000001192092896,-0.3795125484466553],"min":[-0.4264008700847626,0.24130727350711823,-0.484375],"type":"VEC3"},{"bufferView":21,"componentType":5126,"count":160,"max":[1,0.9746943712234497,0.9918219447135925],"min":[-0.9250938892364502,-0.9746943712234497,-0.9754824638366699],"type":"VEC3"},{"bufferView":22,"componentType":5126,"count":160,"max":[0.18098096549510956,0.125],"min":[0.05486249923706055,0.015625],"type":"VEC2"},{"bufferView":23,"componentType":5123,"count":240,"max":[159],"min":[0],"type":"SCALAR"},{"bufferView":24,"componentType":5126,"count":312,"max":[0.0546875,0.03125,0.06718750298023224],"min":[-0.06718750298023224,-0.03690740093588829,-0.0546875],"type":"VEC3"},{"bufferView":25,"componentType":5126,"count":312,"max":[0.9995120763778687,1,0.9995120763778687],"min":[-0.9995120763778687,-0.9860575199127197,-0.9995120763778687],"type":"VEC3"},{"bufferView":26,"componentType":5126,"count":312,"max":[0.095703125,0.1015625],"min":[0.0004515624896157533,0],"type":"VEC2"},{"bufferView":27,"componentType":5123,"count":432,"max":[311],"min":[0],"type":"SCALAR"},{"bufferView":28,"componentType":5126,"count":216,"max":[0.022506404668092728,0.03125,0.03437500074505806],"min":[-0.03437500074505806,-0.020201386883854866,-0.02031249925494194],"type":"VEC3"},{"bufferView":29,"componentType":5126,"count":216,"max":[0.9999171495437622,1,1],"min":[-0.9999075531959534,-0.9981419444084167,-1],"type":"VEC3"},{"bufferView":30,"componentType":5126,"count":216,"max":[0.103515625,0.10546875],"min":[0.0004246093740221113,0],"type":"VEC2"},{"bufferView":31,"componentType":5123,"count":288,"max":[215],"min":[0],"type":"SCALAR"},{"bufferView":32,"componentType":5126,"count":216,"max":[0.03437500074505806,0.03125,0.03437500074505806],"min":[-0.022506404668092728,-0.020201386883854866,-0.02031249925494194],"type":"VEC3"},{"bufferView":33,"componentType":5126,"count":216,"max":[0.9999075531959534,1,1],"min":[-0.9999171495437622,-0.9981419444084167,-1],"type":"VEC3"},{"bufferView":34,"componentType":5126,"count":216,"max":[0.103515625,0.10546875],"min":[0.0004246093740221113,0],"type":"VEC2"},{"bufferView":35,"componentType":5123,"count":288,"max":[215],"min":[0],"type":"SCALAR"},{"bufferView":36,"componentType":5126,"count":312,"max":[0.06718750298023224,0.03125,0.06718750298023224],"min":[-0.0546875,-0.03690740093588829,-0.0546875],"type":"VEC3"},{"bufferView":37,"componentType":5126,"count":312,"max":[0.9995120763778687,1,0.9995120763778687],"min":[-0.9995120763778687,-0.9860575199127197,-0.9995120763778687],"type":"VEC3"},{"bufferView":38,"componentType":5126,"count":312,"max":[0.095703125,0.1015625],"min":[0.0004515624896157533,0],"type":"VEC2"},{"bufferView":39,"componentType":5123,"count":432,"max":[311],"min":[0],"type":"SCALAR"},{"bufferView":40,"componentType":5126,"count":168,"max":[0.05937499925494194,0.015625,0.04531250149011612],"min":[-0.05937499925494194,-0.00937500037252903,-0.04531250149011612],"type":"VEC3"},{"bufferView":41,"componentType":5126,"count":168,"max":[1,1,1],"min":[-1,-1,-1],"type":"VEC3"},{"bufferView":42,"componentType":5126,"count":168,"max":[0.06438437849283218,0.0546875],"min":[0.016060156747698784,0],"type":"VEC2"},{"bufferView":43,"componentType":5123,"count":216,"max":[167],"min":[0],"type":"SCALAR"},{"bufferView":44,"componentType":5126,"count":198,"max":[0.04121451824903488,0.05373912304639816,0.08852710574865341],"min":[-0.05415831506252289,-0.036710139364004135,-0.06772289425134659],"type":"VEC3"},{"bufferView":45,"componentType":5126,"count":198,"max":[0.9997175335884094,1,0.9997054934501648],"min":[-0.9525842666625977,-0.9995934963226318,-1],"type":"VEC3"},{"bufferView":46,"componentType":5126,"count":198,"max":[0.128556028008461,0.1171875],"min":[0.0009579373872838914,0.001578986644744873],"type":"VEC2"},{"bufferView":47,"componentType":5123,"count":270,"max":[197],"min":[0],"type":"SCALAR"},{"bufferView":48,"componentType":5126,"count":198,"max":[0.05415831506252289,0.05373912304639816,0.08852710574865341],"min":[-0.04121451824903488,-0.036710139364004135,-0.06772289425134659],"type":"VEC3"},{"bufferView":49,"componentType":5126,"count":198,"max":[0.9525842666625977,1,0.9997054934501648],"min":[-0.9997175335884094,-0.9995934963226318,-1],"type":"VEC3"},{"bufferView":50,"componentType":5126,"count":198,"max":[0.128556028008461,0.1171875],"min":[0.0009579373872838914,0.001578986644744873],"type":"VEC2"},{"bufferView":51,"componentType":5123,"count":270,"max":[197],"min":[0],"type":"SCALAR"},{"bufferView":52,"componentType":5126,"count":1200,"max":[0.17499999701976776,0.06562499701976776,0.17499999701976776],"min":[-0.17499999701976776,-0.06562499701976776,-0.17499999701976776],"type":"VEC3"},{"bufferView":53,"componentType":5126,"count":1200,"max":[1,1,1],"min":[-1,-1,-1],"type":"VEC3"},{"bufferView":54,"componentType":5126,"count":1200,"max":[0.98828125,0.29296875],"min":[0,0],"type":"VEC2"},{"bufferView":55,"componentType":5123,"count":1728,"max":[1199],"min":[0],"type":"SCALAR"},{"bufferView":56,"componentType":5126,"count":1200,"max":[0.17499999701976776,0.06562499701976776,1.4874999523162842],"min":[-0.17499999701976776,-0.06562499701976776,1.1375000476837158],"type":"VEC3"},{"bufferView":57,"componentType":5126,"count":1200,"max":[1,1,1],"min":[-1,-1,-1],"type":"VEC3"},{"bufferView":58,"componentType":5126,"count":1200,"max":[0.98828125,0.29296875],"min":[0,0],"type":"VEC2"},{"bufferView":59,"componentType":5123,"count":1728,"max":[1199],"min":[0],"type":"SCALAR"},{"bufferView":60,"componentType":5126,"count":1200,"max":[0.17499999701976776,0.06562499701976776,0.17499999701976776],"min":[-0.17499999701976776,-0.06562499701976776,-0.17499999701976776],"type":"VEC3"},{"bufferView":61,"componentType":5126,"count":1200,"max":[1,1,1],"min":[-1,-1,-1],"type":"VEC3"},{"bufferView":62,"componentType":5126,"count":1200,"max":[0.98828125,0.29296875],"min":[0,0],"type":"VEC2"},{"bufferView":63,"componentType":5123,"count":1728,"max":[1199],"min":[0],"type":"SCALAR"},{"bufferView":64,"componentType":5126,"count":1200,"max":[0.17499999701976776,0.06562499701976776,1.4874999523162842],"min":[-0.17499999701976776,-0.06562499701976776,1.1375000476837158],"type":"VEC3"},{"bufferView":65,"componentType":5126,"count":1200,"max":[1,1,1],"min":[-1,-1,-1],"type":"VEC3"},{"bufferView":66,"componentType":5126,"count":1200,"max":[0.98828125,0.29296875],"min":[0,0],"type":"VEC2"},{"bufferView":67,"componentType":5123,"count":1728,"max":[1199],"min":[0],"type":"SCALAR"},{"bufferView":68,"componentType":5126,"count":128,"max":[0.3812499940395355,0.19449767470359802,0.2918151021003723],"min":[-0.3812499940395355,-0.005129176191985607,-0.24423879384994507],"type":"VEC3"},{"bufferView":69,"componentType":5126,"count":128,"max":[0.9966023564338684,0.9987932443618774,0.9991714954376221],"min":[-0.9951698780059814,-1,-0.998856782913208],"type":"VEC3"},{"bufferView":70,"componentType":5126,"count":128,"max":[0.3116302788257599,0.26953125],"min":[0,0],"type":"VEC2"},{"bufferView":71,"componentType":5123,"count":192,"max":[127],"min":[0],"type":"SCALAR"},{"bufferView":72,"componentType":5126,"count":112,"max":[0.359375,0.1875,0.581250011920929],"min":[-0.359375,-0.0062500000931322575,0.25],"type":"VEC3"},{"bufferView":73,"componentType":5126,"count":112,"max":[1,1,0.9701424837112427],"min":[-1,-0.9838716983795166,-0.9701424837112427],"type":"VEC3"},{"bufferView":74,"componentType":5126,"count":112,"max":[0.3337499797344208,0.29765623807907104],"min":[0.0234375,0.06306862831115723],"type":"VEC2"},{"bufferView":75,"componentType":5123,"count":168,"max":[111],"min":[0],"type":"SCALAR"},{"bufferView":76,"componentType":5126,"count":112,"max":[0.359375,0.1875,-0.25],"min":[-0.359375,-0.0062500000931322575,-0.5],"type":"VEC3"},{"bufferView":77,"componentType":5126,"count":112,"max":[1,1,0.9701424837112427],"min":[-1,-0.9597954750061035,-0.9701424837112427],"type":"VEC3"},{"bufferView":78,"componentType":5126,"count":112,"max":[0.3337499797344208,0.29765623807907104],"min":[0.0234375,0.06306862831115723],"type":"VEC2"},{"bufferView":79,"componentType":5123,"count":168,"max":[111],"min":[0],"type":"SCALAR"},{"bufferView":80,"componentType":5126,"count":56,"max":[0.125,0.5,0.5],"min":[-0.125,0.11874999850988388,-0.668749988079071],"type":"VEC3"},{"bufferView":81,"componentType":5126,"count":56,"max":[1,1,1],"min":[-1,-1,-1],"type":"VEC3"},{"bufferView":82,"componentType":5126,"count":56,"max":[0.4373433589935303,0.447265625],"min":[0.04703164100646973,0.0234375],"type":"VEC2"},{"bufferView":83,"componentType":5123,"count":84,"max":[55],"min":[0],"type":"SCALAR"}],"materials":[{"pbrMetallicRoughness":{"metallicFactor":0,"roughnessFactor":1,"baseColorTexture":{"index":0}},"alphaMode":"MASK","alphaCutoff":0.05,"doubleSided":true}],"textures":[{"sampler":0,"source":0,"name":"texture"}],"samplers":[{"magFilter":9728,"minFilter":9728,"wrapS":33071,"wrapT":33071}],"images":[{"mimeType":"image/png","uri":"data:image/png;base64,"}],"meshes":[{"primitives":[{"mode":4,"attributes":{"POSITION":0,"NORMAL":1,"TEXCOORD_0":2},"indices":3,"material":0}]},{"primitives":[{"mode":4,"attributes":{"POSITION":4,"NORMAL":5,"TEXCOORD_0":6},"indices":7,"material":0}]},{"primitives":[{"mode":4,"attributes":{"POSITION":8,"NORMAL":9,"TEXCOORD_0":10},"indices":11,"material":0}]},{"primitives":[{"mode":4,"attributes":{"POSITION":12,"NORMAL":13,"TEXCOORD_0":14},"indices":15,"material":0}]},{"primitives":[{"mode":4,"attributes":{"POSITION":16,"NORMAL":17,"TEXCOORD_0":18},"indices":19,"material":0}]},{"primitives":[{"mode":4,"attributes":{"POSITION":20,"NORMAL":21,"TEXCOORD_0":22},"indices":23,"material":0}]},{"primitives":[{"mode":4,"attributes":{"POSITION":24,"NORMAL":25,"TEXCOORD_0":26},"indices":27,"material":0}]},{"primitives":[{"mode":4,"attributes":{"POSITION":28,"NORMAL":29,"TEXCOORD_0":30},"indices":31,"material":0}]},{"primitives":[{"mode":4,"attributes":{"POSITION":32,"NORMAL":33,"TEXCOORD_0":34},"indices":35,"material":0}]},{"primitives":[{"mode":4,"attributes":{"POSITION":36,"NORMAL":37,"TEXCOORD_0":38},"indices":39,"material":0}]},{"primitives":[{"mode":4,"attributes":{"POSITION":40,"NORMAL":41,"TEXCOORD_0":42},"indices":43,"material":0}]},{"primitives":[{"mode":4,"attributes":{"POSITION":44,"NORMAL":45,"TEXCOORD_0":46},"indices":47,"material":0}]},{"primitives":[{"mode":4,"attributes":{"POSITION":48,"NORMAL":49,"TEXCOORD_0":50},"indices":51,"material":0}]},{"primitives":[{"mode":4,"attributes":{"POSITION":52,"NORMAL":53,"TEXCOORD_0":54},"indices":55,"material":0}]},{"primitives":[{"mode":4,"attributes":{"POSITION":56,"NORMAL":57,"TEXCOORD_0":58},"indices":59,"material":0}]},{"primitives":[{"mode":4,"attributes":{"POSITION":60,"NORMAL":61,"TEXCOORD_0":62},"indices":63,"material":0}]},{"primitives":[{"mode":4,"attributes":{"POSITION":64,"NORMAL":65,"TEXCOORD_0":66},"indices":67,"material":0}]},{"primitives":[{"mode":4,"attributes":{"POSITION":68,"NORMAL":69,"TEXCOORD_0":70},"indices":71,"material":0}]},{"primitives":[{"mode":4,"attributes":{"POSITION":72,"NORMAL":73,"TEXCOORD_0":74},"indices":75,"material":0}]},{"primitives":[{"mode":4,"attributes":{"POSITION":76,"NORMAL":77,"TEXCOORD_0":78},"indices":79,"material":0}]},{"primitives":[{"mode":4,"attributes":{"POSITION":80,"NORMAL":81,"TEXCOORD_0":82},"indices":83,"material":0}]}]}