{"asset":{"version":"2.0","generator":"Blockbench 5.0.4 glTF exporter"},"scenes":[{"nodes":[2],"name":"blockbench_export"}],"scene":0,"nodes":[{"rotation":[0,0,-0.02181488503456112,0.9997620270799091],"translation":[-0.016858548389513395,-0.46954358111135985,0.19929349897041182],"name":"cuboid","mesh":0},{"rotation":[-0.021809693682668004,0.00047588920907111904,-0.021809693682668004,0.9995241107909291],"translation":[0.0002711485237486544,0.03841598090568299,0.7037577846846971],"name":"cuboid","mesh":1},{"rotation":[0,-3.469446951953614e-18,0,1],"translation":[-0.000030291241225943732,1.3771147790088638,-0.3518788923423488],"name":"axe","children":[0,1]}],"bufferViews":[{"buffer":0,"byteOffset":0,"byteLength":1632,"target":34962,"byteStride":12},{"buffer":0,"byteOffset":1632,"byteLength":1632,"target":34962,"byteStride":12},{"buffer":0,"byteOffset":3264,"byteLength":1088,"target":34962,"byteStride":8},{"buffer":0,"byteOffset":4352,"byteLength":408,"target":34963},{"buffer":0,"byteOffset":4760,"byteLength":1920,"target":34962,"byteStride":12},{"buffer":0,"byteOffset":6680,"byteLength":1920,"target":34962,"byteStride":12},{"buffer":0,"byteOffset":8600,"byteLength":1280,"target":34962,"byteStride":8},{"buffer":0,"byteOffset":9880,"byteLength":480,"target":34963}],"buffers":[{"byteLength":10360,"uri":"data:application/octet-stream;base64,"}],"accessors":[{"bufferView":0,"componentType":5126,"count":136,"max":[0.03437500074505806,0.5765625238418579,0.590624988079071],"min":[-0.04374999925494194,0.4296875,-0.550000011920929],"type":"VEC3"},{"bufferView":1,"componentType":5126,"count":136,"max":[1,0.9676754474639893,0.9912033081054688],"min":[-1,-0.9835163950920105,-0.6482542157173157],"type":"VEC3"},{"bufferView":2,"componentType":5126,"count":136,"max":[0.8336296677589417,1.0015137195587158],"min":[0,0.408203125],"type":"VEC2"},{"bufferView":3,"componentType":5123,"count":204,"max":[135],"min":[0],"type":"SCALAR"},{"bufferView":4,"componentType":5126,"count":160,"max":[0.05245358869433403,0.14802369475364685,0.09308446198701859],"min":[-0.04754640907049179,-0.28010129928588867,-0.12254054099321365],"type":"VEC3"},{"bufferView":5,"componentType":5126,"count":160,"max":[1,0.6246950626373291,1],"min":[-1,-0.3713906705379486,-1],"type":"VEC3"},{"bufferView":6,"componentType":5126,"count":160,"max":[0.19062499701976776,0.21694815158843994],"min":[0.00019531250291038305,0],"type":"VEC2"},{"bufferView":7,"componentType":5123,"count":240,"max":[159],"min":[0],"type":"SCALAR"}],"materials":[{"pbrMetallicRoughness":{"metallicFactor":0,"roughnessFactor":1,"baseColorTexture":{"index":0}},"alphaMode":"MASK","alphaCutoff":0.05,"doubleSided":true}],"textures":[{"sampler":0,"source":0,"name":"axe.png"}],"samplers":[{"magFilter":9728,"minFilter":9728,"wrapS":33071,"wrapT":33071}],"images":[{"mimeType":"image/png","uri":"data:image/png;base64,"}],"meshes":[{"primitives":[{"mode":4,"attributes":{"POSITION":0,"NORMAL":1,"TEXCOORD_0":2},"indices":3,"material":0}]},{"primitives":[{"mode":4,"attributes":{"POSITION":4,"NORMAL":5,"TEXCOORD_0":6},"indices":7,"material":0}]}]}