{"asset":{"version":"2.0","generator":"Blockbench 4.12.3 glTF exporter"},"scenes":[{"nodes":[23],"name":"blockbench_export"}],"scene":0,"nodes":[{"rotation":[-0.6427876096865393,0,0,0.766044443118978],"name":"cuboid","mesh":0},{"rotation":[-0.7071067811865475,0,0,0.7071067811865476],"translation":[-8.673617379884037e-19,-0.011827029271785583,-0.043412270523470964],"name":"cuboid","mesh":1},{"translation":[-0.0018599999999999286,11.39448797072821,2.238349663042494],"name":"cuboid","mesh":2},{"rotation":[0.7071067811865475,0,0,0.7071067811865476],"translation":[-0.0018599999999999286,11.51261297072821,2.120224663042495],"name":"cylinder","mesh":3},{"rotation":[0.08189960831908934,0.029809019626209157,-0.34071865342161006,0.9361168066628592],"translation":[-4.336808689942018e-18,9.70309172072821,1.7092524130424944],"name":"cuboid","mesh":4},{"rotation":[0.26319988768749564,0.0943591410129909,-0.26724522244494286,0.9221725232888547],"translation":[-4.336808689942018e-18,9.70309172072821,1.7092524130424944],"name":"cuboid","mesh":5},{"rotation":[-0.13865643463833005,-0.033732961202027206,-0.3023339696267489,0.9424598937205027],"translation":[-4.336808689942018e-18,9.70309172072821,1.7092524130424944],"name":"cuboid","mesh":6},{"rotation":[0.18220925102409363,-0.15551252008075814,-0.32786272583883647,0.9138499209087336],"translation":[-4.336808689942018e-18,9.70309172072821,1.7092524130424944],"name":"cuboid","mesh":7},{"rotation":[-0.08825554476151833,0.11819913364041826,-0.32069053746089876,0.9356267967563467],"translation":[-4.336808689942018e-18,9.70309172072821,1.7092524130424944],"name":"cuboid","mesh":8},{"translation":[-0.0018599999999999286,9.54386297072821,2.238349663042494],"name":"cuboid","mesh":9},{"rotation":[-0.08825554476151833,-0.11819913364041826,0.32069053746089876,0.9356267967563467],"translation":[-4.336808689942018e-18,9.70309172072821,1.7092524130424944],"name":"cuboid","mesh":10},{"rotation":[0.18220925102409363,0.15551252008075814,0.32786272583883647,0.9138499209087336],"translation":[-4.336808689942018e-18,9.70309172072821,1.7092524130424944],"name":"cuboid","mesh":11},{"rotation":[-0.13865643463833005,0.033732961202027206,0.3023339696267489,0.9424598937205027],"translation":[-4.336808689942018e-18,9.70309172072821,1.7092524130424944],"name":"cuboid","mesh":12},{"rotation":[0.26319988768749564,-0.0943591410129909,0.26724522244494286,0.9221725232888547],"translation":[-4.336808689942018e-18,9.70309172072821,1.7092524130424944],"name":"cuboid","mesh":13},{"rotation":[0.08189960831908934,-0.029809019626209157,0.34071865342161006,0.9361168066628592],"translation":[-4.336808689942018e-18,9.70309172072821,1.7092524130424944],"name":"cuboid","mesh":14},{"rotation":[-0.6427876096865393,0,0,0.766044443118978],"translation":[-8.673617379884037e-19,9.695862970728214,1.7216064794765291],"name":"cuboid","mesh":15},{"translation":[0.0009187500000001278,-0.15691250000000245,-0.2165625000000002],"name":"cuboid","mesh":16},{"rotation":[-0.028176863130401433,-0.10515733404371685,0.9601846956537453,0.25728068274410587],"translation":[0,-0.007812500000001776,0],"name":"cuboid","mesh":17},{"rotation":[-0.10515733404371685,-0.02817686313040143,0.2572806827441059,0.9601846956537453],"translation":[0,-0.007812500000001776,0],"name":"cuboid","mesh":18},{"rotation":[-0.07698050545441136,0.07698050545441137,-0.7029039776384703,0.7029039776384705],"translation":[0,-0.007812500000001776,0],"name":"cuboid","mesh":19},{"translation":[-0.0027787500000000555,11.543037499999999,1.2708056835659656],"name":"vetryak","children":[16,17,18,19]},{"translation":[-8.673617379884037e-19,0.008362970728214236,0.002856479476529117],"name":"stvol","children":[20]},{"translation":[8.673617379884037e-19,0.09613702927178558,-0.3350430616467017],"name":"all","children":[0,1,2,3,4,5,6,7,8,9,10,11,12,13,14,15,21]},{"children":[22]}],"bufferViews":[{"buffer":0,"byteOffset":0,"byteLength":288,"target":34962,"byteStride":12},{"buffer":0,"byteOffset":288,"byteLength":288,"target":34962,"byteStride":12},{"buffer":0,"byteOffset":576,"byteLength":192,"target":34962,"byteStride":8},{"buffer":0,"byteOffset":768,"byteLength":72,"target":34963},{"buffer":0,"byteOffset":840,"byteLength":288,"target":34962,"byteStride":12},{"buffer":0,"byteOffset":1128,"byteLength":288,"target":34962,"byteStride":12},{"buffer":0,"byteOffset":1416,"byteLength":192,"target":34962,"byteStride":8},{"buffer":0,"byteOffset":1608,"byteLength":72,"target":34963},{"buffer":0,"byteOffset":1680,"byteLength":1920,"target":34962,"byteStride":12},{"buffer":0,"byteOffset":3600,"byteLength":1920,"target":34962,"byteStride":12},{"buffer":0,"byteOffset":5520,"byteLength":1280,"target":34962,"byteStride":8},{"buffer":0,"byteOffset":6800,"byteLength":480,"target":34963},{"buffer":0,"byteOffset":7280,"byteLength":9792,"target":34962,"byteStride":12},{"buffer":0,"byteOffset":17072,"byteLength":9792,"target":34962,"byteStride":12},{"buffer":0,"byteOffset":26864,"byteLength":6528,"target":34962,"byteStride":8},{"buffer":0,"byteOffset":33392,"byteLength":2448,"target":34963},{"buffer":0,"byteOffset":35840,"byteLength":288,"target":34962,"byteStride":12},{"buffer":0,"byteOffset":36128,"byteLength":288,"target":34962,"byteStride":12},{"buffer":0,"byteOffset":36416,"byteLength":192,"target":34962,"byteStride":8},{"buffer":0,"byteOffset":36608,"byteLength":72,"target":34963},{"buffer":0,"byteOffset":36680,"byteLength":288,"target":34962,"byteStride":12},{"buffer":0,"byteOffset":36968,"byteLength":288,"target":34962,"byteStride":12},{"buffer":0,"byteOffset":37256,"byteLength":192,"target":34962,"byteStride":8},{"buffer":0,"byteOffset":37448,"byteLength":72,"target":34963},{"buffer":0,"byteOffset":37520,"byteLength":288,"target":34962,"byteStride":12},{"buffer":0,"byteOffset":37808,"byteLength":288,"target":34962,"byteStride":12},{"buffer":0,"byteOffset":38096,"byteLength":192,"target":34962,"byteStride":8},{"buffer":0,"byteOffset":38288,"byteLength":72,"target":34963},{"buffer":0,"byteOffset":38360,"byteLength":288,"target":34962,"byteStride":12},{"buffer":0,"byteOffset":38648,"byteLength":288,"target":34962,"byteStride":12},{"buffer":0,"byteOffset":38936,"byteLength":192,"target":34962,"byteStride":8},{"buffer":0,"byteOffset":39128,"byteLength":72,"target":34963},{"buffer":0,"byteOffset":39200,"byteLength":288,"target":34962,"byteStride":12},{"buffer":0,"byteOffset":39488,"byteLength":288,"target":34962,"byteStride":12},{"buffer":0,"byteOffset":39776,"byteLength":192,"target":34962,"byteStride":8},{"buffer":0,"byteOffset":39968,"byteLength":72,"target":34963},{"buffer":0,"byteOffset":40040,"byteLength":864,"target":34962,"byteStride":12},{"buffer":0,"byteOffset":40904,"byteLength":864,"target":34962,"byteStride":12},{"buffer":0,"byteOffset":41768,"byteLength":576,"target":34962,"byteStride":8},{"buffer":0,"byteOffset":42344,"byteLength":216,"target":34963},{"buffer":0,"byteOffset":42560,"byteLength":288,"target":34962,"byteStride":12},{"buffer":0,"byteOffset":42848,"byteLength":288,"target":34962,"byteStride":12},{"buffer":0,"byteOffset":43136,"byteLength":192,"target":34962,"byteStride":8},{"buffer":0,"byteOffset":43328,"byteLength":72,"target":34963},{"buffer":0,"byteOffset":43400,"byteLength":288,"target":34962,"byteStride":12},{"buffer":0,"byteOffset":43688,"byteLength":288,"target":34962,"byteStride":12},{"buffer":0,"byteOffset":43976,"byteLength":192,"target":34962,"byteStride":8},{"buffer":0,"byteOffset":44168,"byteLength":72,"target":34963},{"buffer":0,"byteOffset":44240,"byteLength":288,"target":34962,"byteStride":12},{"buffer":0,"byteOffset":44528,"byteLength":288,"target":34962,"byteStride":12},{"buffer":0,"byteOffset":44816,"byteLength":192,"target":34962,"byteStride":8},{"buffer":0,"byteOffset":45008,"byteLength":72,"target":34963},{"buffer":0,"byteOffset":45080,"byteLength":288,"target":34962,"byteStride":12},{"buffer":0,"byteOffset":45368,"byteLength":288,"target":34962,"byteStride":12},{"buffer":0,"byteOffset":45656,"byteLength":192,"target":34962,"byteStride":8},{"buffer":0,"byteOffset":45848,"byteLength":72,"target":34963},{"buffer":0,"byteOffset":45920,"byteLength":288,"target":34962,"byteStride":12},{"buffer":0,"byteOffset":46208,"byteLength":288,"target":34962,"byteStride":12},{"buffer":0,"byteOffset":46496,"byteLength":192,"target":34962,"byteStride":8},{"buffer":0,"byteOffset":46688,"byteLength":72,"target":34963},{"buffer":0,"byteOffset":46760,"byteLength":288,"target":34962,"byteStride":12},{"buffer":0,"byteOffset":47048,"byteLength":288,"target":34962,"byteStride":12},{"buffer":0,"byteOffset":47336,"byteLength":192,"target":34962,"byteStride":8},{"buffer":0,"byteOffset":47528,"byteLength":72,"target":34963},{"buffer":0,"byteOffset":47600,"byteLength":1152,"target":34962,"byteStride":12},{"buffer":0,"byteOffset":48752,"byteLength":1152,"target":34962,"byteStride":12},{"buffer":0,"byteOffset":49904,"byteLength":768,"target":34962,"byteStride":8},{"buffer":0,"byteOffset":50672,"byteLength":288,"target":34963},{"buffer":0,"byteOffset":50960,"byteLength":648,"target":34962,"byteStride":12},{"buffer":0,"byteOffset":51608,"byteLength":648,"target":34962,"byteStride":12},{"buffer":0,"byteOffset":52256,"byteLength":432,"target":34962,"byteStride":8},{"buffer":0,"byteOffset":52688,"byteLength":156,"target":34963},{"buffer":0,"byteOffset":52844,"byteLength":648,"target":34962,"byteStride":12},{"buffer":0,"byteOffset":53492,"byteLength":648,"target":34962,"byteStride":12},{"buffer":0,"byteOffset":54140,"byteLength":432,"target":34962,"byteStride":8},{"buffer":0,"byteOffset":54572,"byteLength":156,"target":34963},{"buffer":0,"byteOffset":54728,"byteLength":648,"target":34962,"byteStride":12},{"buffer":0,"byteOffset":55376,"byteLength":648,"target":34962,"byteStride":12},{"buffer":0,"byteOffset":56024,"byteLength":432,"target":34962,"byteStride":8},{"buffer":0,"byteOffset":56456,"byteLength":156,"target":34963},{"buffer":0,"byteOffset":56612,"byteLength":20},{"buffer":0,"byteOffset":56632,"byteLength":80},{"buffer":0,"byteOffset":56712,"byteLength":12},{"buffer":0,"byteOffset":56724,"byteLength":48}],"buffers":[{"byteLength":56772,"uri":"data:application/octet-stream;base64,"}],"accessors":[{"bufferView":0,"componentType":5126,"count":24,"max":[0.02890625037252903,0.01712377741932869,0.2537648677825928],"min":[-0.02890625037252903,-0.04068872332572937,-0.02748514711856842],"type":"VEC3"},{"bufferView":1,"componentType":5126,"count":24,"max":[1,1,1],"min":[-1,-1,-1],"type":"VEC3"},{"bufferView":2,"componentType":5126,"count":24,"max":[0.021484375,0.03515625],"min":[0,0.005859375],"type":"VEC2"},{"bufferView":3,"componentType":5123,"count":36,"max":[23],"min":[0],"type":"SCALAR"},{"bufferView":4,"componentType":5126,"count":24,"max":[0.09140624850988388,0.12265624850988388,0.015625],"min":[-0.09140624850988388,-0.18515625596046448,-0.078125],"type":"VEC3"},{"bufferView":5,"componentType":5126,"count":24,"max":[1,1,1],"min":[-1,-1,-1],"type":"VEC3"},{"bufferView":6,"componentType":5126,"count":24,"max":[0.083984375,0.076171875],"min":[0.001953125,0.005859375],"type":"VEC2"},{"bufferView":7,"componentType":5123,"count":36,"max":[23],"min":[0],"type":"SCALAR"},{"bufferView":8,"componentType":5126,"count":160,"max":[0.18703125417232513,0.34453123807907104,0.5512499809265137],"min":[-0.18703125417232513,-0.029531249776482582,-0.8662499785423279],"type":"VEC3"},{"bufferView":9,"componentType":5126,"count":160,"max":[0.9763249158859253,0.9697845578193665,1],"min":[-0.9763244986534119,-0.9697846174240112,-1],"type":"VEC3"},{"bufferView":10,"componentType":5126,"count":160,"max":[0.275390625,0.23611366748809814],"min":[0.006313239689916372,0.0008665919303894043],"type":"VEC2"},{"bufferView":11,"componentType":5123,"count":240,"max":[159],"min":[0],"type":"SCALAR"},{"bufferView":12,"componentType":5126,"count":816,"max":[2.1367461681365967,1.5813742876052856,0.2475074976682663],"min":[-2.1367461681365967,-1.6601243019104004,-1.328612208366394],"type":"VEC3"},{"bufferView":13,"componentType":5126,"count":816,"max":[0.9496746063232422,0.9894222617149353,0.997668445110321],"min":[-0.9496746063232422,-0.9894222617149353,-0.9975122213363647],"type":"VEC3"},{"bufferView":14,"componentType":5126,"count":816,"max":[0.5478417873382568,0.400390625],"min":[0,0],"type":"VEC2"},{"bufferView":15,"componentType":5123,"count":1224,"max":[815],"min":[0],"type":"SCALAR"},{"bufferView":16,"componentType":5126,"count":24,"max":[0.009619499556720257,2.230795383453369,0.011250000447034836],"min":[-0.01288050040602684,0.018295500427484512,-0.011250000447034836],"type":"VEC3"},{"bufferView":17,"componentType":5126,"count":24,"max":[1,1,1],"min":[-1,-1,-1],"type":"VEC3"},{"bufferView":18,"componentType":5126,"count":24,"max":[0.2421875,0.30859375],"min":[0.052734375,0.04296875],"type":"VEC2"},{"bufferView":19,"componentType":5123,"count":36,"max":[23],"min":[0],"type":"SCALAR"},{"bufferView":20,"componentType":5126,"count":24,"max":[0.009619499556720257,2.5307955741882324,0.011250000447034836],"min":[-0.01288050040602684,0.018295500427484512,-0.011250000447034836],"type":"VEC3"},{"bufferView":21,"componentType":5126,"count":24,"max":[1,1,1],"min":[-1,-1,-1],"type":"VEC3"},{"bufferView":22,"componentType":5126,"count":24,"max":[0.216796875,0.310546875],"min":[0.02734375,0.017578125],"type":"VEC2"},{"bufferView":23,"componentType":5123,"count":36,"max":[23],"min":[0],"type":"SCALAR"},{"bufferView":24,"componentType":5126,"count":24,"max":[0.009619499556720257,2.380795478820801,0.011250000447034836],"min":[-0.01288050040602684,0.018295500427484512,-0.011250000447034836],"type":"VEC3"},{"bufferView":25,"componentType":5126,"count":24,"max":[1,1,1],"min":[-1,-1,-1],"type":"VEC3"},{"bufferView":26,"componentType":5126,"count":24,"max":[0.232421875,0.3125],"min":[0.03515625,0.0625],"type":"VEC2"},{"bufferView":27,"componentType":5123,"count":36,"max":[23],"min":[0],"type":"SCALAR"},{"bufferView":28,"componentType":5126,"count":24,"max":[0.009619499556720257,1.2370455265045166,0.011250000447034836],"min":[-0.01288050040602684,1.2182954549789429,-0.40687501430511475],"type":"VEC3"},{"bufferView":29,"componentType":5126,"count":24,"max":[1,1,1],"min":[-1,-1,-1],"type":"VEC3"},{"bufferView":30,"componentType":5126,"count":24,"max":[0.126953125,0.091796875],"min":[0.041015625,0],"type":"VEC2"},{"bufferView":31,"componentType":5123,"count":36,"max":[23],"min":[0],"type":"SCALAR"},{"bufferView":32,"componentType":5126,"count":24,"max":[0.009619499556720257,1.210795521736145,0.47999998927116394],"min":[-0.01288050040602684,1.1882954835891724,-0.0037499999161809683],"type":"VEC3"},{"bufferView":33,"componentType":5126,"count":24,"max":[1,1,1],"min":[-1,-1,-1],"type":"VEC3"},{"bufferView":34,"componentType":5126,"count":24,"max":[0.068359375,0.087890625],"min":[0,0.0078125],"type":"VEC2"},{"bufferView":35,"componentType":5123,"count":36,"max":[23],"min":[0],"type":"SCALAR"},{"bufferView":36,"componentType":5126,"count":72,"max":[0.039374999701976776,3.1795313358306885,0.3189375102519989],"min":[-0.039374999701976776,1.9982812404632568,-0.5118749737739563],"type":"VEC3"},{"bufferView":37,"componentType":5126,"count":72,"max":[0.9998412132263184,1,0.9999651312828064],"min":[-0.9998234510421753,-1,-1],"type":"VEC3"},{"bufferView":38,"componentType":5126,"count":72,"max":[0.23127025365829468,0.2380957007408142],"min":[0,0],"type":"VEC2"},{"bufferView":39,"componentType":5123,"count":108,"max":[71],"min":[0],"type":"SCALAR"},{"bufferView":40,"componentType":5126,"count":24,"max":[0.01288050040602684,1.210795521736145,0.47999998927116394],"min":[-0.009619499556720257,1.1882954835891724,-0.0037499999161809683],"type":"VEC3"},{"bufferView":41,"componentType":5126,"count":24,"max":[1,1,1],"min":[-1,-1,-1],"type":"VEC3"},{"bufferView":42,"componentType":5126,"count":24,"max":[0.05859375,0.072265625],"min":[0,0.013671875],"type":"VEC2"},{"bufferView":43,"componentType":5123,"count":36,"max":[23],"min":[0],"type":"SCALAR"},{"bufferView":44,"componentType":5126,"count":24,"max":[0.01288050040602684,1.2370455265045166,0.011250000447034836],"min":[-0.009619499556720257,1.2182954549789429,-0.40687501430511475],"type":"VEC3"},{"bufferView":45,"componentType":5126,"count":24,"max":[1,1,1],"min":[-1,-1,-1],"type":"VEC3"},{"bufferView":46,"componentType":5126,"count":24,"max":[0.072265625,0.1015625],"min":[0.01171875,0.017578125],"type":"VEC2"},{"bufferView":47,"componentType":5123,"count":36,"max":[23],"min":[0],"type":"SCALAR"},{"bufferView":48,"componentType":5126,"count":24,"max":[0.01288050040602684,2.380795478820801,0.011250000447034836],"min":[-0.009619499556720257,0.018295500427484512,-0.011250000447034836],"type":"VEC3"},{"bufferView":49,"componentType":5126,"count":24,"max":[1,1,1],"min":[-1,-1,-1],"type":"VEC3"},{"bufferView":50,"componentType":5126,"count":24,"max":[0.166015625,0.3125],"min":[0.013671875,0.037109375],"type":"VEC2"},{"bufferView":51,"componentType":5123,"count":36,"max":[23],"min":[0],"type":"SCALAR"},{"bufferView":52,"componentType":5126,"count":24,"max":[0.01288050040602684,2.5307955741882324,0.011250000447034836],"min":[-0.009619499556720257,0.018295500427484512,-0.011250000447034836],"type":"VEC3"},{"bufferView":53,"componentType":5126,"count":24,"max":[1,1,1],"min":[-1,-1,-1],"type":"VEC3"},{"bufferView":54,"componentType":5126,"count":24,"max":[0.205078125,0.302734375],"min":[0.03125,0],"type":"VEC2"},{"bufferView":55,"componentType":5123,"count":36,"max":[23],"min":[0],"type":"SCALAR"},{"bufferView":56,"componentType":5126,"count":24,"max":[0.01288050040602684,2.230795383453369,0.011250000447034836],"min":[-0.009619499556720257,0.018295500427484512,-0.011250000447034836],"type":"VEC3"},{"bufferView":57,"componentType":5126,"count":24,"max":[1,1,1],"min":[-1,-1,-1],"type":"VEC3"},{"bufferView":58,"componentType":5126,"count":24,"max":[0.05078125,0.30859375],"min":[0.00390625,0.025390625],"type":"VEC2"},{"bufferView":59,"componentType":5123,"count":36,"max":[23],"min":[0],"type":"SCALAR"},{"bufferView":60,"componentType":5126,"count":24,"max":[0.01015624962747097,0.01015624962747097,0.03125],"min":[-0.01015624962747097,-0.01015624962747097,-9.8125],"type":"VEC3"},{"bufferView":61,"componentType":5126,"count":24,"max":[1,1,1],"min":[-1,-1,-1],"type":"VEC3"},{"bufferView":62,"componentType":5126,"count":24,"max":[0.513671875,0.51171875],"min":[0.009765625,0],"type":"VEC2"},{"bufferView":63,"componentType":5123,"count":36,"max":[23],"min":[0],"type":"SCALAR"},{"bufferView":64,"componentType":5126,"count":96,"max":[0.11812499910593033,0.27562499046325684,0.3149999976158142],"min":[-0.11812499910593033,0.039374999701976776,0.09056250005960464],"type":"VEC3"},{"bufferView":65,"componentType":5126,"count":96,"max":[0.9644691348075867,0.953240156173706,1],"min":[-0.9644691348075867,-0.953240156173706,-1],"type":"VEC3"},{"bufferView":66,"componentType":5126,"count":96,"max":[0.078125,0.0791015625],"min":[0.00021484374883584678,0],"type":"VEC2"},{"bufferView":67,"componentType":5123,"count":144,"max":[95],"min":[0],"type":"SCALAR"},{"bufferView":68,"componentType":5126,"count":54,"max":[-0.06798750162124634,0.06155624985694885,0.026929499581456184],"min":[-0.8357999920845032,-0.13531875610351562,-0.028094999492168427],"type":"VEC3"},{"bufferView":69,"componentType":5126,"count":54,"max":[1,0.9996324181556702,0.9954141974449158],"min":[-0.938758373260498,-0.9668328166007996,-0.9911089539527893],"type":"VEC3"},{"bufferView":70,"componentType":5126,"count":54,"max":[0.26055532693862915,0.40764081478118896],"min":[0.00019326868641655892,0],"type":"VEC2"},{"bufferView":71,"componentType":5123,"count":78,"max":[53],"min":[0],"type":"SCALAR"},{"bufferView":72,"componentType":5126,"count":54,"max":[-0.06798750162124634,0.06155624985694885,0.026929499581456184],"min":[-0.8357999920845032,-0.13531875610351562,-0.028094999492168427],"type":"VEC3"},{"bufferView":73,"componentType":5126,"count":54,"max":[1,0.9996324181556702,0.9954141974449158],"min":[-0.938758373260498,-0.9668328166007996,-0.9911089539527893],"type":"VEC3"},{"bufferView":74,"componentType":5126,"count":54,"max":[0.33086782693862915,0.40959393978118896],"min":[0.019724518060684204,0.009765625],"type":"VEC2"},{"bufferView":75,"componentType":5123,"count":78,"max":[53],"min":[0],"type":"SCALAR"},{"bufferView":76,"componentType":5126,"count":54,"max":[-0.06798750162124634,0.06155624985694885,0.026929499581456184],"min":[-0.8357999920845032,-0.13531875610351562,-0.028094999492168427],"type":"VEC3"},{"bufferView":77,"componentType":5126,"count":54,"max":[1,0.9996324181556702,0.9954141974449158],"min":[-0.938758373260498,-0.9668328166007996,-0.9911089539527893],"type":"VEC3"},{"bufferView":78,"componentType":5126,"count":54,"max":[0.39141470193862915,0.41154706478118896],"min":[0.07275000214576721,0],"type":"VEC2"},{"bufferView":79,"componentType":5123,"count":78,"max":[53],"min":[0],"type":"SCALAR"},{"bufferView":80,"componentType":5126,"count":5,"max":[2],"min":[0],"type":"SCALAR"},{"bufferView":81,"componentType":5126,"count":5,"max":[0,0,0.9673230648040771,1],"min":[0,0,-0.8549118638038635,-0.8714279532432556],"type":"VEC4"},{"bufferView":82,"componentType":5126,"count":3,"max":[2],"min":[0],"type":"SCALAR"},{"bufferView":83,"componentType":5126,"count":3,"max":[0.0007853906136006117,0,-0.0043633077293634415,0.9999904632568359],"min":[0,-0.000003426934654271463,-0.004363309126347303,0.9999901652336121],"type":"VEC4"}],"materials":[{"pbrMetallicRoughness":{"metallicFactor":0,"roughnessFactor":1,"baseColorTexture":{"index":0}},"alphaMode":"MASK","alphaCutoff":0.05,"doubleSided":true}],"textures":[{"sampler":0,"source":0,"name":"texture"}],"samplers":[{"magFilter":9728,"minFilter":9728,"wrapS":33071,"wrapT":33071}],"images":[{"mimeType":"image/png","uri":"data:image/png;base64,"}],"meshes":[{"primitives":[{"mode":4,"attributes":{"POSITION":0,"NORMAL":1,"TEXCOORD_0":2},"indices":3,"material":0}]},{"primitives":[{"mode":4,"attributes":{"POSITION":4,"NORMAL":5,"TEXCOORD_0":6},"indices":7,"material":0}]},{"primitives":[{"mode":4,"attributes":{"POSITION":8,"NORMAL":9,"TEXCOORD_0":10},"indices":11,"material":0}]},{"primitives":[{"mode":4,"attributes":{"POSITION":12,"NORMAL":13,"TEXCOORD_0":14},"indices":15,"material":0}]},{"primitives":[{"mode":4,"attributes":{"POSITION":16,"NORMAL":17,"TEXCOORD_0":18},"indices":19,"material":0}]},{"primitives":[{"mode":4,"attributes":{"POSITION":20,"NORMAL":21,"TEXCOORD_0":22},"indices":23,"material":0}]},{"primitives":[{"mode":4,"attributes":{"POSITION":24,"NORMAL":25,"TEXCOORD_0":26},"indices":27,"material":0}]},{"primitives":[{"mode":4,"attributes":{"POSITION":28,"NORMAL":29,"TEXCOORD_0":30},"indices":31,"material":0}]},{"primitives":[{"mode":4,"attributes":{"POSITION":32,"NORMAL":33,"TEXCOORD_0":34},"indices":35,"material":0}]},{"primitives":[{"mode":4,"attributes":{"POSITION":36,"NORMAL":37,"TEXCOORD_0":38},"indices":39,"material":0}]},{"primitives":[{"mode":4,"attributes":{"POSITION":40,"NORMAL":41,"TEXCOORD_0":42},"indices":43,"material":0}]},{"primitives":[{"mode":4,"attributes":{"POSITION":44,"NORMAL":45,"TEXCOORD_0":46},"indices":47,"material":0}]},{"primitives":[{"mode":4,"attributes":{"POSITION":48,"NORMAL":49,"TEXCOORD_0":50},"indices":51,"material":0}]},{"primitives":[{"mode":4,"attributes":{"POSITION":52,"NORMAL":53,"TEXCOORD_0":54},"indices":55,"material":0}]},{"primitives":[{"mode":4,"attributes":{"POSITION":56,"NORMAL":57,"TEXCOORD_0":58},"indices":59,"material":0}]},{"primitives":[{"mode":4,"attributes":{"POSITION":60,"NORMAL":61,"TEXCOORD_0":62},"indices":63,"material":0}]},{"primitives":[{"mode":4,"attributes":{"POSITION":64,"NORMAL":65,"TEXCOORD_0":66},"indices":67,"material":0}]},{"primitives":[{"mode":4,"attributes":{"POSITION":68,"NORMAL":69,"TEXCOORD_0":70},"indices":71,"material":0}]},{"primitives":[{"mode":4,"attributes":{"POSITION":72,"NORMAL":73,"TEXCOORD_0":74},"indices":75,"material":0}]},{"primitives":[{"mode":4,"attributes":{"POSITION":76,"NORMAL":77,"TEXCOORD_0":78},"indices":79,"material":0}]}],"animations":[{"name":"rolin'","samplers":[{"input":80,"output":81,"interpolation":"LINEAR"},{"input":82,"output":83,"interpolation":"LINEAR"}],"channels":[{"sampler":0,"target":{"node":20,"path":"rotation"}},{"sampler":1,"target":{"node":21,"path":"rotation"}}]}]}