{"asset":{"version":"2.0","generator":"Blockbench 4.12.3 glTF exporter"},"scenes":[{"nodes":[19],"name":"blockbench_export"}],"scene":0,"nodes":[{"rotation":[-0.7071067811865475,0,0,0.7071067811865476],"name":"cuboid","mesh":0},{"translation":[0.000015000000000000256,9.182934375,1.859375],"name":"cuboid","mesh":1},{"rotation":[0.7071067811865475,0,0,0.7071067811865476],"translation":[0.000015000000000000256,9.276684375,1.765625],"name":"cylinder","mesh":2},{"translation":[0.000015000000000000256,7.714184375,1.859375],"name":"cuboid","mesh":3},{"rotation":[-0.14240760488609794,0.009143027772367932,0.46139726576832557,0.8756420742833637],"translation":[0.000015000000000000256,8.4375,1.484375],"name":"cuboid","mesh":4},{"rotation":[0.2755865843693997,-0.047221438459717865,0.4233186886214196,0.8617560316755807],"translation":[0.000015000000000000256,8.4375,1.484375],"name":"cuboid","mesh":5},{"rotation":[0.08583163599778432,-0.015134403205703955,0.49809737781826424,0.8627299011348339],"translation":[0.000015000000000000256,8.4375,1.484375],"name":"cuboid","mesh":6},{"rotation":[-0.6427876096865393,0,0,0.766044443118978],"translation":[0.000015000000000000256,7.693684375,1.3549306250000002],"name":"cuboid","mesh":7},{"rotation":[-0.6427876096865393,0,0,0.766044443118978],"translation":[0.000015000000000000256,9.693684375,1.7143056250000002],"name":"cuboid","mesh":8},{"rotation":[0.08583163599778432,0.015134403205703955,-0.49809737781826424,0.8627299011348339],"translation":[0,8.4375,1.484375],"name":"cuboid","mesh":9},{"rotation":[0.2755865843693997,0.047221438459717865,-0.4233186886214196,0.8617560316755807],"translation":[0,8.4375,1.484375],"name":"cuboid","mesh":10},{"rotation":[-0.14240760488609794,-0.009143027772367932,-0.46139726576832557,0.8756420742833637],"translation":[0,8.4375,1.484375],"name":"cuboid","mesh":11},{"rotation":[-0.07698050545441136,0.07698050545441137,-0.7029039776384703,0.7029039776384705],"translation":[0,-0.006250000000001421,0],"name":"cuboid","mesh":12},{"translation":[0.000729375,-0.1245831250000009,-0.171875],"name":"cuboid","mesh":13},{"rotation":[-0.028176863130401433,-0.10515733404371685,0.9601846956537453,0.25728068274410587],"translation":[0,-0.006250000000001421,0],"name":"cuboid","mesh":14},{"rotation":[-0.10515733404371685,-0.02817686313040143,0.2572806827441059,0.9601846956537453],"translation":[0,-0.006250000000001421,0],"name":"cuboid","mesh":15},{"translation":[-0.0007143749999999997,9.307517500000001,1.09375],"name":"vetryak","children":[12,13,14,15]},{"translation":[-0.000015000000000000256,0.014005624999999688,0.05071249999999991],"name":"stvol","children":[1,2,3,4,5,6,7,8,9,10,11,16]},{"translation":[-0.00468,0.08431,-0.221629375],"name":"all","children":[0,17]},{"children":[18]}],"bufferViews":[{"buffer":0,"byteOffset":0,"byteLength":288,"target":34962,"byteStride":12},{"buffer":0,"byteOffset":288,"byteLength":288,"target":34962,"byteStride":12},{"buffer":0,"byteOffset":576,"byteLength":192,"target":34962,"byteStride":8},{"buffer":0,"byteOffset":768,"byteLength":72,"target":34963},{"buffer":0,"byteOffset":840,"byteLength":1920,"target":34962,"byteStride":12},{"buffer":0,"byteOffset":2760,"byteLength":1920,"target":34962,"byteStride":12},{"buffer":0,"byteOffset":4680,"byteLength":1280,"target":34962,"byteStride":8},{"buffer":0,"byteOffset":5960,"byteLength":480,"target":34963},{"buffer":0,"byteOffset":6440,"byteLength":8832,"target":34962,"byteStride":12},{"buffer":0,"byteOffset":15272,"byteLength":8832,"target":34962,"byteStride":12},{"buffer":0,"byteOffset":24104,"byteLength":5888,"target":34962,"byteStride":8},{"buffer":0,"byteOffset":29992,"byteLength":2208,"target":34963},{"buffer":0,"byteOffset":32200,"byteLength":864,"target":34962,"byteStride":12},{"buffer":0,"byteOffset":33064,"byteLength":864,"target":34962,"byteStride":12},{"buffer":0,"byteOffset":33928,"byteLength":576,"target":34962,"byteStride":8},{"buffer":0,"byteOffset":34504,"byteLength":216,"target":34963},{"buffer":0,"byteOffset":34720,"byteLength":288,"target":34962,"byteStride":12},{"buffer":0,"byteOffset":35008,"byteLength":288,"target":34962,"byteStride":12},{"buffer":0,"byteOffset":35296,"byteLength":192,"target":34962,"byteStride":8},{"buffer":0,"byteOffset":35488,"byteLength":72,"target":34963},{"buffer":0,"byteOffset":35560,"byteLength":288,"target":34962,"byteStride":12},{"buffer":0,"byteOffset":35848,"byteLength":288,"target":34962,"byteStride":12},{"buffer":0,"byteOffset":36136,"byteLength":192,"target":34962,"byteStride":8},{"buffer":0,"byteOffset":36328,"byteLength":72,"target":34963},{"buffer":0,"byteOffset":36400,"byteLength":288,"target":34962,"byteStride":12},{"buffer":0,"byteOffset":36688,"byteLength":288,"target":34962,"byteStride":12},{"buffer":0,"byteOffset":36976,"byteLength":192,"target":34962,"byteStride":8},{"buffer":0,"byteOffset":37168,"byteLength":72,"target":34963},{"buffer":0,"byteOffset":37240,"byteLength":288,"target":34962,"byteStride":12},{"buffer":0,"byteOffset":37528,"byteLength":288,"target":34962,"byteStride":12},{"buffer":0,"byteOffset":37816,"byteLength":192,"target":34962,"byteStride":8},{"buffer":0,"byteOffset":38008,"byteLength":72,"target":34963},{"buffer":0,"byteOffset":38080,"byteLength":288,"target":34962,"byteStride":12},{"buffer":0,"byteOffset":38368,"byteLength":288,"target":34962,"byteStride":12},{"buffer":0,"byteOffset":38656,"byteLength":192,"target":34962,"byteStride":8},{"buffer":0,"byteOffset":38848,"byteLength":72,"target":34963},{"buffer":0,"byteOffset":38920,"byteLength":288,"target":34962,"byteStride":12},{"buffer":0,"byteOffset":39208,"byteLength":288,"target":34962,"byteStride":12},{"buffer":0,"byteOffset":39496,"byteLength":192,"target":34962,"byteStride":8},{"buffer":0,"byteOffset":39688,"byteLength":72,"target":34963},{"buffer":0,"byteOffset":39760,"byteLength":288,"target":34962,"byteStride":12},{"buffer":0,"byteOffset":40048,"byteLength":288,"target":34962,"byteStride":12},{"buffer":0,"byteOffset":40336,"byteLength":192,"target":34962,"byteStride":8},{"buffer":0,"byteOffset":40528,"byteLength":72,"target":34963},{"buffer":0,"byteOffset":40600,"byteLength":288,"target":34962,"byteStride":12},{"buffer":0,"byteOffset":40888,"byteLength":288,"target":34962,"byteStride":12},{"buffer":0,"byteOffset":41176,"byteLength":192,"target":34962,"byteStride":8},{"buffer":0,"byteOffset":41368,"byteLength":72,"target":34963},{"buffer":0,"byteOffset":41440,"byteLength":648,"target":34962,"byteStride":12},{"buffer":0,"byteOffset":42088,"byteLength":648,"target":34962,"byteStride":12},{"buffer":0,"byteOffset":42736,"byteLength":432,"target":34962,"byteStride":8},{"buffer":0,"byteOffset":43168,"byteLength":156,"target":34963},{"buffer":0,"byteOffset":43324,"byteLength":1152,"target":34962,"byteStride":12},{"buffer":0,"byteOffset":44476,"byteLength":1152,"target":34962,"byteStride":12},{"buffer":0,"byteOffset":45628,"byteLength":768,"target":34962,"byteStride":8},{"buffer":0,"byteOffset":46396,"byteLength":288,"target":34963},{"buffer":0,"byteOffset":46684,"byteLength":648,"target":34962,"byteStride":12},{"buffer":0,"byteOffset":47332,"byteLength":648,"target":34962,"byteStride":12},{"buffer":0,"byteOffset":47980,"byteLength":432,"target":34962,"byteStride":8},{"buffer":0,"byteOffset":48412,"byteLength":156,"target":34963},{"buffer":0,"byteOffset":48568,"byteLength":648,"target":34962,"byteStride":12},{"buffer":0,"byteOffset":49216,"byteLength":648,"target":34962,"byteStride":12},{"buffer":0,"byteOffset":49864,"byteLength":432,"target":34962,"byteStride":8},{"buffer":0,"byteOffset":50296,"byteLength":156,"target":34963},{"buffer":0,"byteOffset":50452,"byteLength":20},{"buffer":0,"byteOffset":50472,"byteLength":80},{"buffer":0,"byteOffset":50552,"byteLength":12},{"buffer":0,"byteOffset":50564,"byteLength":48}],"buffers":[{"byteLength":50612,"uri":"data:application/octet-stream;base64,"}],"accessors":[{"bufferView":0,"componentType":5126,"count":24,"max":[0.09140624850988388,0.12265624850988388,0.015625],"min":[-0.09140624850988388,-0.18515625596046448,-0.078125],"type":"VEC3"},{"bufferView":1,"componentType":5126,"count":24,"max":[1,1,1],"min":[-1,-1,-1],"type":"VEC3"},{"bufferView":2,"componentType":5126,"count":24,"max":[0.078125,0.08203125],"min":[0.0390625,0.01171875],"type":"VEC2"},{"bufferView":3,"componentType":5123,"count":36,"max":[23],"min":[0],"type":"SCALAR"},{"bufferView":4,"componentType":5126,"count":160,"max":[0.1484375,0.2734375,0.4375],"min":[-0.1484375,-0.0234375,-0.6875],"type":"VEC3"},{"bufferView":5,"componentType":5126,"count":160,"max":[0.9763250350952148,0.9697848558425903,1],"min":[-0.9763250350952148,-0.9697848558425903,-1],"type":"VEC3"},{"bufferView":6,"componentType":5126,"count":160,"max":[0.423828125,0.359375],"min":[0.10212070494890213,0.00041741132736206055],"type":"VEC2"},{"bufferView":7,"componentType":5123,"count":240,"max":[159],"min":[0],"type":"SCALAR"},{"bufferView":8,"componentType":5126,"count":736,"max":[1.2475500106811523,1.2550593614578247,0.1964343786239624],"min":[-1.2475500106811523,-1.3175593614578247,-1.179453730583191],"type":"VEC3"},{"bufferView":9,"componentType":5126,"count":736,"max":[0.957853376865387,0.9898301362991333,0.9847264289855957],"min":[-0.957853376865387,-0.9898301362991333,-0.9562082886695862],"type":"VEC3"},{"bufferView":10,"componentType":5126,"count":736,"max":[0.96484375,0.8671633005142212],"min":[0,0],"type":"VEC2"},{"bufferView":11,"componentType":5123,"count":1104,"max":[735],"min":[0],"type":"SCALAR"},{"bufferView":12,"componentType":5126,"count":72,"max":[0.03125,2.5859375,0.25312501192092896],"min":[-0.03125,1.5859375,-0.40625],"type":"VEC3"},{"bufferView":13,"componentType":5126,"count":72,"max":[0.9998412132263184,1,0.9999693632125854],"min":[-0.9998255968093872,-1,-1],"type":"VEC3"},{"bufferView":14,"componentType":5126,"count":72,"max":[0.3389967381954193,0.3476829528808594],"min":[0,0],"type":"VEC2"},{"bufferView":15,"componentType":5123,"count":108,"max":[71],"min":[0],"type":"SCALAR"},{"bufferView":16,"componentType":5126,"count":24,"max":[0.010733749717473984,1.4214962720870972,0.00937500037252903],"min":[-0.008016250096261501,-0.0003787500027101487,-0.00937500037252903],"type":"VEC3"},{"bufferView":17,"componentType":5126,"count":24,"max":[1,1,1],"min":[-1,-1,-1],"type":"VEC3"},{"bufferView":18,"componentType":5126,"count":24,"max":[0.296875,0.4921875],"min":[0.04296875,0.02734375],"type":"VEC2"},{"bufferView":19,"componentType":5123,"count":36,"max":[23],"min":[0],"type":"SCALAR"},{"bufferView":20,"componentType":5126,"count":24,"max":[0.010733749717473984,1.5464962720870972,0.00937500037252903],"min":[-0.008016250096261501,0.0027462500147521496,-0.00937500037252903],"type":"VEC3"},{"bufferView":21,"componentType":5126,"count":24,"max":[1,1,1],"min":[-1,-1,-1],"type":"VEC3"},{"bufferView":22,"componentType":5126,"count":24,"max":[0.15234375,0.48828125],"min":[0.0703125,0],"type":"VEC2"},{"bufferView":23,"componentType":5123,"count":36,"max":[23],"min":[0],"type":"SCALAR"},{"bufferView":24,"componentType":5126,"count":24,"max":[0.010733749717473984,1.3589962720870972,0.00937500037252903],"min":[-0.008016250096261501,-0.003503750078380108,-0.00937500037252903],"type":"VEC3"},{"bufferView":25,"componentType":5126,"count":24,"max":[1,1,1],"min":[-1,-1,-1],"type":"VEC3"},{"bufferView":26,"componentType":5126,"count":24,"max":[0.3046875,0.48828125],"min":[0.0078125,0.07421875],"type":"VEC2"},{"bufferView":27,"componentType":5123,"count":36,"max":[23],"min":[0],"type":"SCALAR"},{"bufferView":28,"componentType":5126,"count":24,"max":[0.01015624962747097,0.01015624962747097,0.762499988079071],"min":[-0.01015624962747097,-0.01015624962747097,-7.78125],"type":"VEC3"},{"bufferView":29,"componentType":5126,"count":24,"max":[1,1,1],"min":[-1,-1,-1],"type":"VEC3"},{"bufferView":30,"componentType":5126,"count":24,"max":[0.83984375,0.87109375],"min":[0.07421875,0],"type":"VEC2"},{"bufferView":31,"componentType":5123,"count":36,"max":[23],"min":[0],"type":"SCALAR"},{"bufferView":32,"componentType":5126,"count":24,"max":[0.02890625037252903,0.02890625037252903,-9.59375],"min":[-0.02890625037252903,-0.02890625037252903,-9.875],"type":"VEC3"},{"bufferView":33,"componentType":5126,"count":24,"max":[1,1,1],"min":[-1,-1,-1],"type":"VEC3"},{"bufferView":34,"componentType":5126,"count":24,"max":[0.0390625,0.06640625],"min":[0,0],"type":"VEC2"},{"bufferView":35,"componentType":5123,"count":36,"max":[23],"min":[0],"type":"SCALAR"},{"bufferView":36,"componentType":5126,"count":24,"max":[0.008016250096261501,1.3589962720870972,0.00937500037252903],"min":[-0.010733749717473984,-0.003503750078380108,-0.00937500037252903],"type":"VEC3"},{"bufferView":37,"componentType":5126,"count":24,"max":[1,1,1],"min":[-1,-1,-1],"type":"VEC3"},{"bufferView":38,"componentType":5126,"count":24,"max":[0.41015625,0.4921875],"min":[0.03125,0.03125],"type":"VEC2"},{"bufferView":39,"componentType":5123,"count":36,"max":[23],"min":[0],"type":"SCALAR"},{"bufferView":40,"componentType":5126,"count":24,"max":[0.008016250096261501,1.5652462244033813,0.00937500037252903],"min":[-0.010733749717473984,0.0027462500147521496,-0.00937500037252903],"type":"VEC3"},{"bufferView":41,"componentType":5126,"count":24,"max":[1,1,1],"min":[-1,-1,-1],"type":"VEC3"},{"bufferView":42,"componentType":5126,"count":24,"max":[0.3984375,0.49609375],"min":[0.05078125,0.0625],"type":"VEC2"},{"bufferView":43,"componentType":5123,"count":36,"max":[23],"min":[0],"type":"SCALAR"},{"bufferView":44,"componentType":5126,"count":24,"max":[0.008016250096261501,1.427746295928955,0.00937500037252903],"min":[-0.010733749717473984,-0.0003787500027101487,-0.00937500037252903],"type":"VEC3"},{"bufferView":45,"componentType":5126,"count":24,"max":[1,1,1],"min":[-1,-1,-1],"type":"VEC3"},{"bufferView":46,"componentType":5126,"count":24,"max":[0.13671875,0.4921875],"min":[0.01953125,0.11328125],"type":"VEC2"},{"bufferView":47,"componentType":5123,"count":36,"max":[23],"min":[0],"type":"SCALAR"},{"bufferView":48,"componentType":5126,"count":54,"max":[-0.05395812541246414,0.04885437339544296,0.02137250080704689],"min":[-0.6633331179618835,-0.10739562660455704,-0.02229749970138073],"type":"VEC3"},{"bufferView":49,"componentType":5126,"count":54,"max":[1,0.9996326565742493,0.995414674282074],"min":[-0.938758134841919,-0.96683269739151,-0.9911097884178162],"type":"VEC3"},{"bufferView":50,"componentType":5126,"count":54,"max":[0.4819701910018921,0.5529272556304932],"min":[0.0004621991829480976,0.0390625],"type":"VEC2"},{"bufferView":51,"componentType":5123,"count":78,"max":[53],"min":[0],"type":"SCALAR"},{"bufferView":52,"componentType":5126,"count":96,"max":[0.09375,0.21875,0.25],"min":[-0.09375,0.03125,0.07187499850988388],"type":"VEC3"},{"bufferView":53,"componentType":5126,"count":96,"max":[0.9644686579704285,0.9532400369644165,1],"min":[-0.9644686579704285,-0.9532400369644165,-1],"type":"VEC3"},{"bufferView":54,"componentType":5126,"count":96,"max":[0.14824219048023224,0.158203125],"min":[0,0],"type":"VEC2"},{"bufferView":55,"componentType":5123,"count":144,"max":[95],"min":[0],"type":"SCALAR"},{"bufferView":56,"componentType":5126,"count":54,"max":[-0.05395812541246414,0.04885437339544296,0.02137250080704689],"min":[-0.6633331179618835,-0.10739562660455704,-0.02229749970138073],"type":"VEC3"},{"bufferView":57,"componentType":5126,"count":54,"max":[1,0.9996326565742493,0.995414674282074],"min":[-0.938758134841919,-0.96683269739151,-0.9911097884178162],"type":"VEC3"},{"bufferView":58,"componentType":5126,"count":54,"max":[0.6421264410018921,0.43573975563049316],"min":[0.00019531250291038305,0.046875],"type":"VEC2"},{"bufferView":59,"componentType":5123,"count":78,"max":[53],"min":[0],"type":"SCALAR"},{"bufferView":60,"componentType":5126,"count":54,"max":[-0.05395812541246414,0.04885437339544296,0.02137250080704689],"min":[-0.6633331179618835,-0.10739562660455704,-0.02229749970138073],"type":"VEC3"},{"bufferView":61,"componentType":5126,"count":54,"max":[1,0.9996326565742493,0.995414674282074],"min":[-0.938758134841919,-0.96683269739151,-0.9911097884178162],"type":"VEC3"},{"bufferView":62,"componentType":5126,"count":54,"max":[0.4233764410018921,0.6583960056304932],"min":[0.10566405951976776,0.0390625],"type":"VEC2"},{"bufferView":63,"componentType":5123,"count":78,"max":[53],"min":[0],"type":"SCALAR"},{"bufferView":64,"componentType":5126,"count":5,"max":[2],"min":[0],"type":"SCALAR"},{"bufferView":65,"componentType":5126,"count":5,"max":[0,0,0.9673230648040771,1],"min":[0,0,-0.8549118638038635,-0.8714279532432556],"type":"VEC4"},{"bufferView":66,"componentType":5126,"count":3,"max":[2],"min":[0],"type":"SCALAR"},{"bufferView":67,"componentType":5126,"count":3,"max":[0.0007853906136006117,0,-0.0043633077293634415,0.9999904632568359],"min":[0,-0.000003426934654271463,-0.004363309126347303,0.9999901652336121],"type":"VEC4"}],"materials":[{"pbrMetallicRoughness":{"metallicFactor":0,"roughnessFactor":1,"baseColorTexture":{"index":0}},"alphaMode":"MASK","alphaCutoff":0.05,"doubleSided":true}],"textures":[{"sampler":0,"source":0,"name":"texture"}],"samplers":[{"magFilter":9728,"minFilter":9728,"wrapS":33071,"wrapT":33071}],"images":[{"mimeType":"image/png","uri":"data:image/png;base64,"}],"meshes":[{"primitives":[{"mode":4,"attributes":{"POSITION":0,"NORMAL":1,"TEXCOORD_0":2},"indices":3,"material":0}]},{"primitives":[{"mode":4,"attributes":{"POSITION":4,"NORMAL":5,"TEXCOORD_0":6},"indices":7,"material":0}]},{"primitives":[{"mode":4,"attributes":{"POSITION":8,"NORMAL":9,"TEXCOORD_0":10},"indices":11,"material":0}]},{"primitives":[{"mode":4,"attributes":{"POSITION":12,"NORMAL":13,"TEXCOORD_0":14},"indices":15,"material":0}]},{"primitives":[{"mode":4,"attributes":{"POSITION":16,"NORMAL":17,"TEXCOORD_0":18},"indices":19,"material":0}]},{"primitives":[{"mode":4,"attributes":{"POSITION":20,"NORMAL":21,"TEXCOORD_0":22},"indices":23,"material":0}]},{"primitives":[{"mode":4,"attributes":{"POSITION":24,"NORMAL":25,"TEXCOORD_0":26},"indices":27,"material":0}]},{"primitives":[{"mode":4,"attributes":{"POSITION":28,"NORMAL":29,"TEXCOORD_0":30},"indices":31,"material":0}]},{"primitives":[{"mode":4,"attributes":{"POSITION":32,"NORMAL":33,"TEXCOORD_0":34},"indices":35,"material":0}]},{"primitives":[{"mode":4,"attributes":{"POSITION":36,"NORMAL":37,"TEXCOORD_0":38},"indices":39,"material":0}]},{"primitives":[{"mode":4,"attributes":{"POSITION":40,"NORMAL":41,"TEXCOORD_0":42},"indices":43,"material":0}]},{"primitives":[{"mode":4,"attributes":{"POSITION":44,"NORMAL":45,"TEXCOORD_0":46},"indices":47,"material":0}]},{"primitives":[{"mode":4,"attributes":{"POSITION":48,"NORMAL":49,"TEXCOORD_0":50},"indices":51,"material":0}]},{"primitives":[{"mode":4,"attributes":{"POSITION":52,"NORMAL":53,"TEXCOORD_0":54},"indices":55,"material":0}]},{"primitives":[{"mode":4,"attributes":{"POSITION":56,"NORMAL":57,"TEXCOORD_0":58},"indices":59,"material":0}]},{"primitives":[{"mode":4,"attributes":{"POSITION":60,"NORMAL":61,"TEXCOORD_0":62},"indices":63,"material":0}]}],"animations":[{"name":"rolin'","samplers":[{"input":64,"output":65,"interpolation":"LINEAR"},{"input":66,"output":67,"interpolation":"LINEAR"}],"channels":[{"sampler":0,"target":{"node":16,"path":"rotation"}},{"sampler":1,"target":{"node":17,"path":"rotation"}}]}]}