{"asset":{"version":"2.0","generator":"Blockbench 4.12.3 glTF exporter"},"scenes":[{"nodes":[1],"name":"blockbench_export"}],"scene":0,"nodes":[{"translation":[0.6985721781892575,-0.044463125,0.43311493962910486],"name":"cuboid","mesh":0},{"children":[0]}],"bufferViews":[{"buffer":0,"byteOffset":0,"byteLength":65856,"target":34962,"byteStride":12},{"buffer":0,"byteOffset":65856,"byteLength":65856,"target":34962,"byteStride":12},{"buffer":0,"byteOffset":131712,"byteLength":43904,"target":34962,"byteStride":8},{"buffer":0,"byteOffset":175616,"byteLength":14400,"target":34963}],"buffers":[{"byteLength":190016,"uri":"data:application/octet-stream;base64,"}],"accessors":[{"bufferView":0,"componentType":5126,"count":5488,"max":[6.103137493133545,12.75,5.066339015960693],"min":[-6.679532051086426,-0.2648580074310303,-6.253363132476807],"type":"VEC3"},{"bufferView":1,"componentType":5126,"count":5488,"max":[1,1,1],"min":[-1,-1,-1],"type":"VEC3"},{"bufferView":2,"componentType":5126,"count":5488,"max":[0.5911620855331421,0.590624988079071],"min":[0,0],"type":"VEC2"},{"bufferView":3,"componentType":5123,"count":7200,"max":[5487],"min":[0],"type":"SCALAR"}],"materials":[{"pbrMetallicRoughness":{"metallicFactor":0,"roughnessFactor":1,"baseColorTexture":{"index":0}},"alphaMode":"MASK","alphaCutoff":0.05,"doubleSided":true}],"textures":[{"sampler":0,"source":0,"name":"F.nps_house_2_texture.png"}],"samplers":[{"magFilter":9728,"minFilter":9728,"wrapS":33071,"wrapT":33071}],"images":[{"mimeType":"image/png","uri":"data:image/png;base64,"}],"meshes":[{"primitives":[{"mode":4,"attributes":{"POSITION":0,"NORMAL":1,"TEXCOORD_0":2},"indices":3,"material":0}]}]}