{"asset":{"version":"2.0","generator":"Blockbench 4.12.3 glTF exporter"},"scenes":[{"nodes":[1],"name":"blockbench_export"}],"scene":0,"nodes":[{"translation":[-0.1421623369908992,-0.04446329145089489,0.19802710161521042],"name":"cuboid","mesh":0},{"children":[0]}],"bufferViews":[{"buffer":0,"byteOffset":0,"byteLength":63936,"target":34962,"byteStride":12},{"buffer":0,"byteOffset":63936,"byteLength":63936,"target":34962,"byteStride":12},{"buffer":0,"byteOffset":127872,"byteLength":42624,"target":34962,"byteStride":8},{"buffer":0,"byteOffset":170496,"byteLength":13968,"target":34963}],"buffers":[{"byteLength":184464,"uri":"data:application/octet-stream;base64,"}],"accessors":[{"bufferView":0,"componentType":5126,"count":5328,"max":[6.353137016296387,12,5.272129535675049],"min":[-6.019713401794434,-0.264857679605484,-6.253363132476807],"type":"VEC3"},{"bufferView":1,"componentType":5126,"count":5328,"max":[1,1,1],"min":[-1,-1,-1],"type":"VEC3"},{"bufferView":2,"componentType":5126,"count":5328,"max":[0.5911620855331421,0.590624988079071],"min":[0,0],"type":"VEC2"},{"bufferView":3,"componentType":5123,"count":6984,"max":[5327],"min":[0],"type":"SCALAR"}],"materials":[{"pbrMetallicRoughness":{"metallicFactor":0,"roughnessFactor":1,"baseColorTexture":{"index":0}},"alphaMode":"MASK","alphaCutoff":0.05,"doubleSided":true}],"textures":[{"sampler":0,"source":0,"name":"F.nps_house_4_texture.png"}],"samplers":[{"magFilter":9728,"minFilter":9728,"wrapS":33071,"wrapT":33071}],"images":[{"mimeType":"image/png","uri":"data:image/png;base64,"}],"meshes":[{"primitives":[{"mode":4,"attributes":{"POSITION":0,"NORMAL":1,"TEXCOORD_0":2},"indices":3,"material":0}]}]}