{"asset":{"version":"2.0","generator":"Blockbench 4.12.3 glTF exporter"},"scenes":[{"nodes":[1],"name":"blockbench_export"}],"scene":0,"nodes":[{"rotation":[0,0.9537169507482268,0,0.3007057995042733],"translation":[0,0.06031249999999999,0],"name":"s2_1","mesh":0},{"children":[0]}],"bufferViews":[{"buffer":0,"byteOffset":0,"byteLength":26376,"target":34962,"byteStride":12},{"buffer":0,"byteOffset":26376,"byteLength":26376,"target":34962,"byteStride":12},{"buffer":0,"byteOffset":52752,"byteLength":17584,"target":34962,"byteStride":8},{"buffer":0,"byteOffset":70336,"byteLength":6444,"target":34963}],"buffers":[{"byteLength":76780,"uri":"data:application/octet-stream;base64,"}],"accessors":[{"bufferView":0,"componentType":5126,"count":2198,"max":[3.088331937789917,4.377187728881836,2.9765625],"min":[-3.5458731651306152,-0.06578125059604645,-2.9765625],"type":"VEC3"},{"bufferView":1,"componentType":5126,"count":2198,"max":[0.999871551990509,1,1],"min":[-0.999871551990509,-1,-1],"type":"VEC3"},{"bufferView":2,"componentType":5126,"count":2198,"max":[1,0.88671875],"min":[0,0],"type":"VEC2"},{"bufferView":3,"componentType":5123,"count":3222,"max":[2197],"min":[0],"type":"SCALAR"}],"materials":[{"pbrMetallicRoughness":{"metallicFactor":0,"roughnessFactor":1,"baseColorTexture":{"index":0}},"alphaMode":"MASK","alphaCutoff":0.05,"doubleSided":true}],"textures":[{"sampler":0,"source":0,"name":"f.nps_spherehouse_1_texture.png"}],"samplers":[{"magFilter":9728,"minFilter":9728,"wrapS":33071,"wrapT":33071}],"images":[{"mimeType":"image/png","uri":"data:image/png;base64,"}],"meshes":[{"primitives":[{"mode":4,"attributes":{"POSITION":0,"NORMAL":1,"TEXCOORD_0":2},"indices":3,"material":0}]}]}