{"asset":{"version":"2.0","generator":"Blockbench 4.12.3 glTF exporter"},"scenes":[{"nodes":[3],"name":"blockbench_export"}],"scene":0,"nodes":[{"translation":[0.010329375000000418,0.38027343749999976,-0.0137668750000004],"name":"s4_1","mesh":0},{"translation":[0,0.5978206794423898,2.703125],"name":"s4_2","mesh":1},{"rotation":[0,0.7071067811865475,0,0.7071067811865476],"translation":[-0.006925154320987725,0.9286515388535955,4.34375],"name":"s4_dop","mesh":2},{"children":[0,1,2]}],"bufferViews":[{"buffer":0,"byteOffset":0,"byteLength":21192,"target":34962,"byteStride":12},{"buffer":0,"byteOffset":21192,"byteLength":21192,"target":34962,"byteStride":12},{"buffer":0,"byteOffset":42384,"byteLength":14128,"target":34962,"byteStride":8},{"buffer":0,"byteOffset":56512,"byteLength":5148,"target":34963},{"buffer":0,"byteOffset":61660,"byteLength":2016,"target":34962,"byteStride":12},{"buffer":0,"byteOffset":63676,"byteLength":2016,"target":34962,"byteStride":12},{"buffer":0,"byteOffset":65692,"byteLength":1344,"target":34962,"byteStride":8},{"buffer":0,"byteOffset":67036,"byteLength":504,"target":34963},{"buffer":0,"byteOffset":67540,"byteLength":7680,"target":34962,"byteStride":12},{"buffer":0,"byteOffset":75220,"byteLength":7680,"target":34962,"byteStride":12},{"buffer":0,"byteOffset":82900,"byteLength":5120,"target":34962,"byteStride":8},{"buffer":0,"byteOffset":88020,"byteLength":1920,"target":34963}],"buffers":[{"byteLength":89940,"uri":"data:application/octet-stream;base64,"}],"accessors":[{"bufferView":0,"componentType":5126,"count":1766,"max":[2.296752691268921,2.1822266578674316,2.2090792655944824],"min":[-2.786161422729492,-0.3857421875,-2.265625],"type":"VEC3"},{"bufferView":1,"componentType":5126,"count":1766,"max":[1,1,1],"min":[-1,-1,-1],"type":"VEC3"},{"bufferView":2,"componentType":5126,"count":1766,"max":[0.9509791731834412,0.87890625],"min":[0,0],"type":"VEC2"},{"bufferView":3,"componentType":5123,"count":2574,"max":[1765],"min":[0],"type":"SCALAR"},{"bufferView":4,"componentType":5126,"count":168,"max":[0.578125,0.4334293305873871,0.765625],"min":[-0.578125,-0.5978206992149353,-0.765625],"type":"VEC3"},{"bufferView":5,"componentType":5126,"count":168,"max":[1,0.9720510840415955,1],"min":[-1,-1,-1],"type":"VEC3"},{"bufferView":6,"componentType":5126,"count":168,"max":[0.48046875,0.45703125],"min":[0,0.18359375],"type":"VEC2"},{"bufferView":7,"componentType":5123,"count":252,"max":[167],"min":[0],"type":"SCALAR"},{"bufferView":8,"componentType":5126,"count":640,"max":[1.015625,1.0557234287261963,1.491300106048584],"min":[-1.015625,-0.9286515116691589,-1.414949893951416],"type":"VEC3"},{"bufferView":9,"componentType":5126,"count":640,"max":[1,1,1],"min":[-1,-1,-1],"type":"VEC3"},{"bufferView":10,"componentType":5126,"count":640,"max":[0.6162109375,0.541015625],"min":[0,0],"type":"VEC2"},{"bufferView":11,"componentType":5123,"count":960,"max":[639],"min":[0],"type":"SCALAR"}],"materials":[{"pbrMetallicRoughness":{"metallicFactor":0,"roughnessFactor":1,"baseColorTexture":{"index":0}},"alphaMode":"MASK","alphaCutoff":0.05,"doubleSided":true},{"pbrMetallicRoughness":{"metallicFactor":0,"roughnessFactor":1,"baseColorTexture":{"index":1}},"alphaMode":"MASK","alphaCutoff":0.05,"doubleSided":true}],"textures":[{"sampler":0,"source":0,"name":"f.nps_spherehouse_1_texture.png"},{"sampler":1,"source":1,"name":"f.nps_spherehouse_1_texture2.png"}],"samplers":[{"magFilter":9728,"minFilter":9728,"wrapS":33071,"wrapT":33071},{"magFilter":9728,"minFilter":9728,"wrapS":33071,"wrapT":33071}],"images":[{"mimeType":"image/png","uri":"data:image/png;base64,"},{"mimeType":"image/png","uri":"data:image/png;base64,"}],"meshes":[{"primitives":[{"mode":4,"attributes":{"POSITION":0,"NORMAL":1,"TEXCOORD_0":2},"indices":3,"material":0}]},{"primitives":[{"mode":4,"attributes":{"POSITION":4,"NORMAL":5,"TEXCOORD_0":6},"indices":7,"material":1}]},{"primitives":[{"mode":4,"attributes":{"POSITION":8,"NORMAL":9,"TEXCOORD_0":10},"indices":11,"material":1}]}]}