{"asset":{"version":"2.0","generator":"Blockbench 4.12.3 glTF exporter"},"scenes":[{"nodes":[1],"name":"blockbench_export"}],"scene":0,"nodes":[{"translation":[0.10636564684301161,-0.003679300839474653,0.09348747839246205],"name":"sphere_1","mesh":0},{"children":[0]}],"bufferViews":[{"buffer":0,"byteOffset":0,"byteLength":34944,"target":34962,"byteStride":12},{"buffer":0,"byteOffset":34944,"byteLength":34944,"target":34962,"byteStride":12},{"buffer":0,"byteOffset":69888,"byteLength":23296,"target":34962,"byteStride":8},{"buffer":0,"byteOffset":93184,"byteLength":8592,"target":34963}],"buffers":[{"byteLength":101776,"uri":"data:application/octet-stream;base64,"}],"accessors":[{"bufferView":0,"componentType":5126,"count":2912,"max":[6.915719032287598,7.472429275512695,6.846409797668457],"min":[-6.776575088500977,0.016179300844669342,-6.845884799957275],"type":"VEC3"},{"bufferView":1,"componentType":5126,"count":2912,"max":[0.9999867081642151,1,0.9999867081642151],"min":[-0.9999867081642151,-1,-0.9999867081642151],"type":"VEC3"},{"bufferView":2,"componentType":5126,"count":2912,"max":[0.8864972591400146,0.79296875],"min":[0,0],"type":"VEC2"},{"bufferView":3,"componentType":5123,"count":4296,"max":[2911],"min":[0],"type":"SCALAR"}],"materials":[{"pbrMetallicRoughness":{"metallicFactor":0,"roughnessFactor":1,"baseColorTexture":{"index":0}},"alphaMode":"MASK","alphaCutoff":0.05,"doubleSided":true}],"textures":[{"sampler":0,"source":0,"name":"F.sphere_1_texture.png"}],"samplers":[{"magFilter":9728,"minFilter":9728,"wrapS":33071,"wrapT":33071}],"images":[{"mimeType":"image/png","uri":"data:image/png;base64,"}],"meshes":[{"primitives":[{"mode":4,"attributes":{"POSITION":0,"NORMAL":1,"TEXCOORD_0":2},"indices":3,"material":0}]}]}