{"asset":{"version":"2.0","generator":"Blockbench 4.12.3 glTF exporter"},"scenes":[{"nodes":[1],"name":"blockbench_export"}],"scene":0,"nodes":[{"translation":[0,0.006409933908040344,4.163336342344337e-17],"name":"sphere_2","mesh":0},{"children":[0]}],"bufferViews":[{"buffer":0,"byteOffset":0,"byteLength":20880,"target":34962,"byteStride":12},{"buffer":0,"byteOffset":20880,"byteLength":20880,"target":34962,"byteStride":12},{"buffer":0,"byteOffset":41760,"byteLength":13920,"target":34962,"byteStride":8},{"buffer":0,"byteOffset":55680,"byteLength":5112,"target":34963}],"buffers":[{"byteLength":60792,"uri":"data:application/octet-stream;base64,"}],"accessors":[{"bufferView":0,"componentType":5126,"count":1740,"max":[3.7249999046325684,4.368589878082275,3.7249999046325684],"min":[-3.7249999046325684,-0.018909933045506477,-3.7249999046325684],"type":"VEC3"},{"bufferView":1,"componentType":5126,"count":1740,"max":[1,1,1],"min":[-1,-1,-1],"type":"VEC3"},{"bufferView":2,"componentType":5126,"count":1740,"max":[0.8864972591400146,0.79296875],"min":[0,0],"type":"VEC2"},{"bufferView":3,"componentType":5123,"count":2556,"max":[1739],"min":[0],"type":"SCALAR"}],"materials":[{"pbrMetallicRoughness":{"metallicFactor":0,"roughnessFactor":1,"baseColorTexture":{"index":0}},"alphaMode":"MASK","alphaCutoff":0.05,"doubleSided":true}],"textures":[{"sampler":0,"source":0,"name":"F.sphere_2_texture.png"}],"samplers":[{"magFilter":9728,"minFilter":9728,"wrapS":33071,"wrapT":33071}],"images":[{"mimeType":"image/png","uri":"data:image/png;base64,"}],"meshes":[{"primitives":[{"mode":4,"attributes":{"POSITION":0,"NORMAL":1,"TEXCOORD_0":2},"indices":3,"material":0}]}]}