{"asset":{"version":"2.0","generator":"Blockbench 5.0.7 glTF exporter"},"scenes":[{"nodes":[0],"name":"blockbench_export"}],"scene":0,"nodes":[{"rotation":[0.7071067811865475,0,0,0.7071067811865476],"translation":[1.1894842129390444,5.074805191761362,3.496654543087124],"name":"cylinder","mesh":0}],"bufferViews":[{"buffer":0,"byteOffset":0,"byteLength":30768,"target":34962,"byteStride":12},{"buffer":0,"byteOffset":30768,"byteLength":30768,"target":34962,"byteStride":12},{"buffer":0,"byteOffset":61536,"byteLength":20512,"target":34962,"byteStride":8},{"buffer":0,"byteOffset":82048,"byteLength":7332,"target":34963}],"buffers":[{"byteLength":89380,"uri":"data:application/octet-stream;base64,"}],"accessors":[{"bufferView":0,"componentType":5126,"count":2564,"max":[6.896453380584717,6.581470489501953,4.88730525970459],"min":[-9.275422096252441,-4.7716546058654785,-6.53847599029541],"type":"VEC3"},{"bufferView":1,"componentType":5126,"count":2564,"max":[1,1,1],"min":[-1,-1,-1],"type":"VEC3"},{"bufferView":2,"componentType":5126,"count":2564,"max":[0.734375,0.6686035394668579],"min":[0,0],"type":"VEC2"},{"bufferView":3,"componentType":5123,"count":3666,"max":[2563],"min":[0],"type":"SCALAR"}],"materials":[{"pbrMetallicRoughness":{"metallicFactor":0,"roughnessFactor":1,"baseColorTexture":{"index":0}},"alphaMode":"MASK","alphaCutoff":0.05,"doubleSided":true}],"textures":[{"sampler":0,"source":0,"name":"WH_green_texture.png"}],"samplers":[{"magFilter":9728,"minFilter":9728,"wrapS":33071,"wrapT":33071}],"images":[{"mimeType":"image/png","uri":"data:image/png;base64,"}],"meshes":[{"primitives":[{"mode":4,"attributes":{"POSITION":0,"NORMAL":1,"TEXCOORD_0":2},"indices":3,"material":0}]}]}