{"asset":{"version":"2.0","generator":"Blockbench 5.0.7 glTF exporter"},"scenes":[{"nodes":[0],"name":"blockbench_export"}],"scene":0,"nodes":[{"translation":[0,0.2909375,-0.43225],"name":"mesh","mesh":0}],"bufferViews":[{"buffer":0,"byteOffset":0,"byteLength":30840,"target":34962,"byteStride":12},{"buffer":0,"byteOffset":30840,"byteLength":30840,"target":34962,"byteStride":12},{"buffer":0,"byteOffset":61680,"byteLength":20560,"target":34962,"byteStride":8},{"buffer":0,"byteOffset":82240,"byteLength":7212,"target":34963}],"buffers":[{"byteLength":89452,"uri":"data:application/octet-stream;base64,"}],"accessors":[{"bufferView":0,"componentType":5126,"count":2570,"max":[11.637499809265137,13.5078125,11.305000305175781],"min":[-11.637499809265137,-0.29093751311302185,-1.147125005722046],"type":"VEC3"},{"bufferView":1,"componentType":5126,"count":2570,"max":[1,1,1],"min":[-1,-1,-1],"type":"VEC3"},{"bufferView":2,"componentType":5126,"count":2570,"max":[0.8081343173980713,0.7516435384750366],"min":[0,0],"type":"VEC2"},{"bufferView":3,"componentType":5123,"count":3606,"max":[2569],"min":[0],"type":"SCALAR"}],"materials":[{"pbrMetallicRoughness":{"metallicFactor":0,"roughnessFactor":1,"baseColorTexture":{"index":0}},"alphaMode":"MASK","alphaCutoff":0.05,"doubleSided":true}],"textures":[{"sampler":0,"source":0,"name":"texture"}],"samplers":[{"magFilter":9728,"minFilter":9728,"wrapS":33071,"wrapT":33071}],"images":[{"mimeType":"image/png","uri":"data:image/png;base64,"}],"meshes":[{"primitives":[{"mode":4,"attributes":{"POSITION":0,"NORMAL":1,"TEXCOORD_0":2},"indices":3,"material":0}]}]}