{"asset":{"version":"2.0","generator":"Blockbench 5.0.7 glTF exporter"},"scenes":[{"nodes":[0],"name":"blockbench_export"}],"scene":0,"nodes":[{"translation":[-4.640360403254713,5.382426479446068,2.4320290518894505],"name":"mesh","mesh":0}],"bufferViews":[{"buffer":0,"byteOffset":0,"byteLength":37128,"target":34962,"byteStride":12},{"buffer":0,"byteOffset":37128,"byteLength":37128,"target":34962,"byteStride":12},{"buffer":0,"byteOffset":74256,"byteLength":24752,"target":34962,"byteStride":8},{"buffer":0,"byteOffset":99008,"byteLength":8712,"target":34963}],"buffers":[{"byteLength":107720,"uri":"data:application/octet-stream;base64,"}],"accessors":[{"bufferView":0,"componentType":5126,"count":3094,"max":[12.077860832214355,7.895698547363281,7.899220943450928],"min":[-9.569639205932617,-5.296894550323486,-5.100779056549072],"type":"VEC3"},{"bufferView":1,"componentType":5126,"count":3094,"max":[1,1,1],"min":[-1,-1,-1],"type":"VEC3"},{"bufferView":2,"componentType":5126,"count":3094,"max":[0.8447265625,0.8017578125],"min":[0,0],"type":"VEC2"},{"bufferView":3,"componentType":5123,"count":4356,"max":[3093],"min":[0],"type":"SCALAR"}],"materials":[{"pbrMetallicRoughness":{"metallicFactor":0,"roughnessFactor":1,"baseColorTexture":{"index":0}},"alphaMode":"MASK","alphaCutoff":0.05,"doubleSided":true}],"textures":[{"sampler":0,"source":0,"name":"WH_grey_texture.png"}],"samplers":[{"magFilter":9728,"minFilter":9728,"wrapS":33071,"wrapT":33071}],"images":[{"mimeType":"image/png","uri":"data:image/png;base64,"}],"meshes":[{"primitives":[{"mode":4,"attributes":{"POSITION":0,"NORMAL":1,"TEXCOORD_0":2},"indices":3,"material":0}]}]}