{"asset":{"version":"2.0","generator":"Blockbench 5.0.7 glTF exporter"},"scenes":[{"nodes":[0],"name":"blockbench_export"}],"scene":0,"nodes":[{"rotation":[0,-1,0,6.123233995736766e-17],"translation":[-0.1434796318655304,5.532046132125948,4.75710116003788],"name":"mesh","mesh":0}],"bufferViews":[{"buffer":0,"byteOffset":0,"byteLength":22992,"target":34962,"byteStride":12},{"buffer":0,"byteOffset":22992,"byteLength":22992,"target":34962,"byteStride":12},{"buffer":0,"byteOffset":45984,"byteLength":15328,"target":34962,"byteStride":8},{"buffer":0,"byteOffset":61312,"byteLength":5460,"target":34963}],"buffers":[{"byteLength":66772,"uri":"data:application/octet-stream;base64,"}],"accessors":[{"bufferView":0,"componentType":5126,"count":1916,"max":[5.916332721710205,7.493641376495361,5.870975971221924],"min":[-8.871604919433594,-5.532046318054199,-5.583648681640625],"type":"VEC3"},{"bufferView":1,"componentType":5126,"count":1916,"max":[1,1,1],"min":[-1,-1,-1],"type":"VEC3"},{"bufferView":2,"componentType":5126,"count":1916,"max":[0.734375,0.6686035394668579],"min":[0,0],"type":"VEC2"},{"bufferView":3,"componentType":5123,"count":2730,"max":[1915],"min":[0],"type":"SCALAR"}],"materials":[{"pbrMetallicRoughness":{"metallicFactor":0,"roughnessFactor":1,"baseColorTexture":{"index":0}},"alphaMode":"MASK","alphaCutoff":0.05,"doubleSided":true}],"textures":[{"sampler":0,"source":0,"name":"WH_purple_texture.png"}],"samplers":[{"magFilter":9728,"minFilter":9728,"wrapS":33071,"wrapT":33071}],"images":[{"mimeType":"image/png","uri":"data:image/png;base64,"}],"meshes":[{"primitives":[{"mode":4,"attributes":{"POSITION":0,"NORMAL":1,"TEXCOORD_0":2},"indices":3,"material":0}]}]}