{"asset":{"version":"2.0","generator":"Blockbench 5.0.7 glTF exporter"},"scenes":[{"nodes":[0],"name":"blockbench_export"}],"scene":0,"nodes":[{"translation":[-0.0625,0.20625,-7.9875],"name":"mesh","mesh":0}],"bufferViews":[{"buffer":0,"byteOffset":0,"byteLength":32640,"target":34962,"byteStride":12},{"buffer":0,"byteOffset":32640,"byteLength":32640,"target":34962,"byteStride":12},{"buffer":0,"byteOffset":65280,"byteLength":21760,"target":34962,"byteStride":8},{"buffer":0,"byteOffset":87040,"byteLength":7656,"target":34963}],"buffers":[{"byteLength":94696,"uri":"data:application/octet-stream;base64,"}],"accessors":[{"bufferView":0,"componentType":5126,"count":2720,"max":[8.899999618530273,15.018750190734863,16.825000762939453],"min":[-19.712499618530273,-0.21562500298023224,-0.8500000238418579],"type":"VEC3"},{"bufferView":1,"componentType":5126,"count":2720,"max":[1,1,1],"min":[-1,-1,-1],"type":"VEC3"},{"bufferView":2,"componentType":5126,"count":2720,"max":[0.52734375,0.4755859375],"min":[0,0],"type":"VEC2"},{"bufferView":3,"componentType":5123,"count":3828,"max":[2719],"min":[0],"type":"SCALAR"}],"materials":[{"pbrMetallicRoughness":{"metallicFactor":0,"roughnessFactor":1,"baseColorTexture":{"index":0}},"alphaMode":"MASK","alphaCutoff":0.05,"doubleSided":true}],"textures":[{"sampler":0,"source":0,"name":"WH_red_texture.png"}],"samplers":[{"magFilter":9728,"minFilter":9728,"wrapS":33071,"wrapT":33071}],"images":[{"mimeType":"image/png","uri":"data:image/png;base64,"}],"meshes":[{"primitives":[{"mode":4,"attributes":{"POSITION":0,"NORMAL":1,"TEXCOORD_0":2},"indices":3,"material":0}]}]}