{"asset":{"version":"2.0","generator":"Blockbench 5.0.7 glTF exporter"},"scenes":[{"nodes":[0],"name":"blockbench_export"}],"scene":0,"nodes":[{"translation":[2.2730742098214285,5.736191292410715,2.5837214476190478],"name":"cylinder","mesh":0}],"bufferViews":[{"buffer":0,"byteOffset":0,"byteLength":37680,"target":34962,"byteStride":12},{"buffer":0,"byteOffset":37680,"byteLength":37680,"target":34962,"byteStride":12},{"buffer":0,"byteOffset":75360,"byteLength":25120,"target":34962,"byteStride":8},{"buffer":0,"byteOffset":100480,"byteLength":9096,"target":34963}],"buffers":[{"byteLength":109576,"uri":"data:application/octet-stream;base64,"}],"accessors":[{"bufferView":0,"componentType":5126,"count":3140,"max":[11.639426231384277,8.727559089660645,5.8994035720825195],"min":[-10.432449340820312,-5.740566253662109,-4.1087212562561035],"type":"VEC3"},{"bufferView":1,"componentType":5126,"count":3140,"max":[1,1,1],"min":[-1,-1,-1],"type":"VEC3"},{"bufferView":2,"componentType":5126,"count":3140,"max":[0.8173828125,0.780468761920929],"min":[0,0],"type":"VEC2"},{"bufferView":3,"componentType":5123,"count":4548,"max":[3139],"min":[0],"type":"SCALAR"}],"materials":[{"pbrMetallicRoughness":{"metallicFactor":0,"roughnessFactor":1,"baseColorTexture":{"index":0}},"alphaMode":"MASK","alphaCutoff":0.05,"doubleSided":true}],"textures":[{"sampler":0,"source":0,"name":"WH_yellow_texture.png"}],"samplers":[{"magFilter":9728,"minFilter":9728,"wrapS":33071,"wrapT":33071}],"images":[{"mimeType":"image/png","uri":"data:image/png;base64,"}],"meshes":[{"primitives":[{"mode":4,"attributes":{"POSITION":0,"NORMAL":1,"TEXCOORD_0":2},"indices":3,"material":0}]}]}