{"asset":{"version":"2.0","generator":"Blockbench 5.0.4 glTF exporter"},"scenes":[{"nodes":[2],"name":"blockbench_export"}],"scene":0,"nodes":[{"rotation":[0,0.9537169507482268,0,0.3007057995042733],"name":"s3_2","mesh":0},{"translation":[-4.7749999999999995,-0.8728125,-1.875],"name":"cylinder","mesh":1},{"translation":[0,0.8728125,0],"name":"Indigo_house","children":[0,1]}],"bufferViews":[{"buffer":0,"byteOffset":0,"byteLength":17520,"target":34962,"byteStride":12},{"buffer":0,"byteOffset":17520,"byteLength":17520,"target":34962,"byteStride":12},{"buffer":0,"byteOffset":35040,"byteLength":11680,"target":34962,"byteStride":8},{"buffer":0,"byteOffset":46720,"byteLength":4272,"target":34963},{"buffer":0,"byteOffset":50992,"byteLength":8640,"target":34962,"byteStride":12},{"buffer":0,"byteOffset":59632,"byteLength":8640,"target":34962,"byteStride":12},{"buffer":0,"byteOffset":68272,"byteLength":5760,"target":34962,"byteStride":8},{"buffer":0,"byteOffset":74032,"byteLength":1728,"target":34963}],"buffers":[{"byteLength":75760,"uri":"data:application/octet-stream;base64,"}],"accessors":[{"bufferView":0,"componentType":5126,"count":1460,"max":[3.088331937789917,2.4103124141693115,2.9765625],"min":[-3.088331937789917,-0.8782812356948853,-2.9765625],"type":"VEC3"},{"bufferView":1,"componentType":5126,"count":1460,"max":[0.9872168898582458,1,1],"min":[-0.9872168898582458,-1,-1],"type":"VEC3"},{"bufferView":2,"componentType":5126,"count":1460,"max":[0.8099356889724731,0.853515625],"min":[0,0],"type":"VEC2"},{"bufferView":3,"componentType":5123,"count":2136,"max":[1459],"min":[0],"type":"SCALAR"},{"bufferView":4,"componentType":5126,"count":720,"max":[1.6875,3.9749999046325684,1.6875],"min":[-1.6875,0,-1.6875],"type":"VEC3"},{"bufferView":5,"componentType":5126,"count":720,"max":[1,1,1],"min":[-1,-1,-1],"type":"VEC3"},{"bufferView":6,"componentType":5126,"count":720,"max":[0.53125,0.630859375],"min":[0,0],"type":"VEC2"},{"bufferView":7,"componentType":5123,"count":864,"max":[719],"min":[0],"type":"SCALAR"}],"materials":[{"pbrMetallicRoughness":{"metallicFactor":0,"roughnessFactor":1,"baseColorTexture":{"index":0}},"alphaMode":"MASK","alphaCutoff":0.05,"doubleSided":true},{"pbrMetallicRoughness":{"metallicFactor":0,"roughnessFactor":1,"baseColorTexture":{"index":1}},"alphaMode":"MASK","alphaCutoff":0.05,"doubleSided":true}],"textures":[{"sampler":0,"source":0,"name":"W.house_red_texture.png"},{"sampler":1,"source":1,"name":"W.farm_grey_texture1.png"}],"samplers":[{"magFilter":9728,"minFilter":9728,"wrapS":33071,"wrapT":33071},{"magFilter":9728,"minFilter":9728,"wrapS":33071,"wrapT":33071}],"images":[{"mimeType":"image/png","uri":"data:image/png;base64,"},{"mimeType":"image/png","uri":"data:image/png;base64,"}],"meshes":[{"primitives":[{"mode":4,"attributes":{"POSITION":0,"NORMAL":1,"TEXCOORD_0":2},"indices":3,"material":0}]},{"primitives":[{"mode":4,"attributes":{"POSITION":4,"NORMAL":5,"TEXCOORD_0":6},"indices":7,"material":1}]}]}